IBM Plex Sans Devanagari-Thin.ufo
<glyph name="quotesingle" format="1">
  <advance width="220"/>
  <unicode hex="0027"/>
  <outline>
    <contour>
      <point x="120" y="490" type="line" name="hr00"/>
      <point x="120" y="740" type="line"/>
      <point x="100" y="740" type="line"/>
      <point x="100" y="490" type="line"/>
    </contour>
  </outline>
</glyph>
<glyph name="twosuperior" format="1">
  <advance width="345"/>
  <unicode hex="00B2"/>
  <outline>
    <contour>
      <point x="300" y="346" type="line" name="hr00"/>
      <point x="64" y="346" type="line"/>
      <point x="194" y="452" type="line" smooth="yes"/>
      <point x="257" y="503"/>
      <point x="287" y="549"/>
      <point x="287" y="599" type="curve" smooth="yes"/>
      <point x="287" y="657"/>
      <point x="248" y="704"/>
      <point x="172" y="704" type="curve" smooth="yes"/>
      <point x="99" y="704"/>
      <point x="57" y="663"/>
      <point x="41" y="614" type="curve"/>
      <point x="58" y="609" type="line"/>
      <point x="75" y="656"/>
      <point x="110" y="687"/>
      <point x="172" y="687" type="curve" smooth="yes"/>
      <point x="235" y="687"/>
      <point x="267" y="651"/>
      <point x="267" y="602" type="curve" smooth="yes"/>
      <point x="267" y="592" type="line" smooth="yes"/>
      <point x="267" y="553"/>
      <point x="240" y="511"/>
      <point x="183" y="464" type="curve" smooth="yes"/>
      <point x="44" y="349" type="line"/>
      <point x="44" y="329" type="line"/>
      <point x="300" y="329" type="line"/>
    </contour>
  </outline>
</glyph>
<glyph name="threesuperior" format="1">
  <advance width="347"/>
  <unicode hex="00B3"/>
  <outline>
    <contour>
      <point x="113" y="529" type="line"/>
      <point x="113" y="512" type="line"/>
      <point x="166" y="512" type="line" smooth="yes"/>
      <point x="240" y="512"/>
      <point x="267" y="483"/>
      <point x="267" y="433" type="curve" smooth="yes"/>
      <point x="267" y="427" type="line" smooth="yes"/>
      <point x="267" y="372"/>
      <point x="231" y="340"/>
      <point x="162" y="340" type="curve" smooth="yes"/>
      <point x="107" y="340"/>
      <point x="80" y="360"/>
      <point x="56" y="390" type="curve"/>
      <point x="42" y="379" type="line"/>
      <point x="65" y="348"/>
      <point x="102" y="323"/>
      <point x="162" y="323" type="curve" smooth="yes"/>
      <point x="242" y="323"/>
      <point x="287" y="365"/>
      <point x="287" y="431" type="curve" smooth="yes"/>
      <point x="287" y="481"/>
      <point x="261" y="512"/>
      <point x="210" y="520" type="curve"/>
      <point x="210" y="523" type="line"/>
      <point x="253" y="533"/>
      <point x="280" y="561"/>
      <point x="280" y="609" type="curve" smooth="yes" name="hr01"/>
      <point x="280" y="667"/>
      <point x="239" y="704"/>
      <point x="168" y="704" type="curve" smooth="yes"/>
      <point x="111" y="704"/>
      <point x="74" y="682"/>
      <point x="53" y="651" type="curve"/>
      <point x="67" y="641" type="line"/>
      <point x="89" y="670"/>
      <point x="116" y="687"/>
      <point x="168" y="687" type="curve" smooth="yes"/>
      <point x="228" y="687"/>
      <point x="260" y="658"/>
      <point x="260" y="614" type="curve" smooth="yes"/>
      <point x="260" y="608" type="line" smooth="yes"/>
      <point x="260" y="559"/>
      <point x="233" y="529"/>
      <point x="159" y="529" type="curve" smooth="yes"/>
    </contour>
  </outline>
</glyph>
<glyph name="Lslash" format="1">
  <advance width="478"/>
  <unicode hex="0141"/>
  <outline>
    <contour>
      <point x="458" y="20" type="line" name="hr00"/>
      <point x="133" y="20" type="line"/>
      <point x="133" y="310" type="line"/>
      <point x="337" y="374" type="line"/>
      <point x="337" y="394" type="line"/>
      <point x="133" y="330" type="line"/>
      <point x="133" y="698" type="line"/>
      <point x="111" y="698" type="line"/>
      <point x="111" y="323" type="line"/>
      <point x="14" y="292" type="line"/>
      <point x="14" y="272" type="line"/>
      <point x="111" y="303" type="line"/>
      <point x="111" y="0" type="line"/>
      <point x="458" y="0" type="line"/>
    </contour>
  </outline>
</glyph>
<glyph name="pi" format="1">
  <advance width="590"/>
  <unicode hex="03C0"/>
  <outline>
    <contour>
      <point x="445" y="487" type="line" name="hr00"/>
      <point x="552" y="487" type="line"/>
      <point x="552" y="506" type="line"/>
      <point x="30" y="506" type="line"/>
      <point x="30" y="487" type="line"/>
      <point x="125" y="487" type="line"/>
      <point x="125" y="0" type="line"/>
      <point x="146" y="0" type="line"/>
      <point x="146" y="487" type="line"/>
      <point x="424" y="487" type="line"/>
      <point x="424" y="29" type="line" smooth="yes"/>
      <point x="424" y="9"/>
      <point x="433" y="0"/>
      <point x="453" y="0" type="curve" smooth="yes"/>
      <point x="520" y="0" type="line"/>
      <point x="520" y="19" type="line"/>
      <point x="445" y="19" type="line"/>
    </contour>
  </outline>
</glyph>
<glyph name="dvCandrabindu" format="1">
  <advance width="0"/>
  <unicode hex="0901"/>
  <outline>
    <component base="dvmEcandra_Anusvara" xOffset="2"/>
    <contour>
      <point x="-293.0" y="696.0" type="move" name="_center_deva"/>
    </contour>
  </outline>
</glyph>
<glyph name="dvAnusvara" format="1">
  <advance width="0"/>
  <unicode hex="0902"/>
  <outline>
    <contour>
      <point x="-158" y="859" type="curve" smooth="yes" name="hr00"/>
      <point x="-141" y="859"/>
      <point x="-134" y="868"/>
      <point x="-134" y="882" type="curve" smooth="yes"/>
      <point x="-134" y="887" type="line" smooth="yes"/>
      <point x="-134" y="901"/>
      <point x="-141" y="910"/>
      <point x="-158" y="910" type="curve" smooth="yes"/>
      <point x="-175" y="910"/>
      <point x="-182" y="901"/>
      <point x="-182" y="887" type="curve" smooth="yes"/>
      <point x="-182" y="882" type="line" smooth="yes"/>
      <point x="-182" y="868"/>
      <point x="-175" y="859"/>
    </contour>
    <contour>
      <point x="-145.0" y="696.0" type="move" name="_top_deva"/>
    </contour>
  </outline>
</glyph>
<glyph name="dvVisarga" format="1">
  <advance width="262"/>
  <unicode hex="0903"/>
  <outline>
    <contour>
      <point x="131" y="472" type="curve" smooth="yes" name="hr00"/>
      <point x="148" y="472"/>
      <point x="155" y="481"/>
      <point x="155" y="495" type="curve" smooth="yes"/>
      <point x="155" y="500" type="line" smooth="yes"/>
      <point x="155" y="514"/>
      <point x="148" y="523"/>
      <point x="131" y="523" type="curve" smooth="yes"/>
      <point x="114" y="523"/>
      <point x="107" y="514"/>
      <point x="107" y="500" type="curve" smooth="yes"/>
      <point x="107" y="495" type="line" smooth="yes"/>
      <point x="107" y="481"/>
      <point x="114" y="472"/>
    </contour>
    <contour>
      <point x="131" y="145" type="curve" smooth="yes"/>
      <point x="148" y="145"/>
      <point x="155" y="154"/>
      <point x="155" y="168" type="curve" smooth="yes"/>
      <point x="155" y="173" type="line" smooth="yes"/>
      <point x="155" y="187"/>
      <point x="148" y="196"/>
      <point x="131" y="196" type="curve" smooth="yes"/>
      <point x="114" y="196"/>
      <point x="107" y="187"/>
      <point x="107" y="173" type="curve" smooth="yes"/>
      <point x="107" y="168" type="line" smooth="yes"/>
      <point x="107" y="154"/>
      <point x="114" y="145"/>
    </contour>
  </outline>
</glyph>
<glyph name="dvU" format="1">
  <advance width="566"/>
  <unicode hex="0909"/>
  <outline>
    <contour>
      <point x="276" y="41" type="curve" smooth="yes" name="hr00"/>
      <point x="407" y="41"/>
      <point x="473" y="118"/>
      <point x="473" y="229" type="curve" smooth="yes"/>
      <point x="473" y="325"/>
      <point x="415" y="385"/>
      <point x="333" y="403" type="curve"/>
      <point x="333" y="405" type="line"/>
      <point x="410" y="424"/>
      <point x="436" y="475"/>
      <point x="436" y="564" type="curve" smooth="yes"/>
      <point x="436" y="679" type="line"/>
      <point x="586" y="679" type="line"/>
      <point x="586" y="698" type="line"/>
      <point x="-20" y="698" type="line"/>
      <point x="-20" y="679" type="line"/>
      <point x="415" y="679" type="line"/>
      <point x="415" y="561" type="line" smooth="yes"/>
      <point x="415" y="464"/>
      <point x="380" y="413"/>
      <point x="249" y="413" type="curve" smooth="yes"/>
      <point x="164" y="413" type="line"/>
      <point x="164" y="394" type="line"/>
      <point x="254" y="394" type="line" smooth="yes"/>
      <point x="398" y="394"/>
      <point x="450" y="318"/>
      <point x="450" y="240" type="curve" smooth="yes"/>
      <point x="450" y="218" type="line" smooth="yes"/>
      <point x="450" y="129"/>
      <point x="395" y="61"/>
      <point x="277" y="61" type="curve" smooth="yes"/>
      <point x="182" y="61"/>
      <point x="123" y="99"/>
      <point x="73" y="171" type="curve"/>
      <point x="57" y="158" type="line"/>
      <point x="113" y="80"/>
      <point x="178" y="41"/>
    </contour>
    <contour>
      <point x="290.0" y="696.0" type="move" name="center_deva"/>
    </contour>
    <contour>
      <point x="436.0" y="696.0" type="move" name="top_deva"/>
    </contour>
  </outline>
</glyph>
<glyph name="dvUU" format="1">
  <advance width="823"/>
  <unicode hex="090A"/>
  <outline>
    <contour>
      <point x="276" y="41" type="curve" smooth="yes" name="hr00"/>
      <point x="407" y="41"/>
      <point x="472" y="117"/>
      <point x="472" y="225" type="curve" smooth="yes"/>
      <point x="472" y="297"/>
      <point x="542" y="372"/>
      <point x="632" y="372" type="curve" smooth="yes"/>
      <point x="722" y="372"/>
      <point x="766" y="305"/>
      <point x="766" y="241" type="curve" smooth="yes"/>
      <point x="766" y="227" type="line" smooth="yes"/>
      <point x="766" y="145"/>
      <point x="716" y="94"/>
      <point x="620" y="74" type="curve"/>
      <point x="627" y="54" type="line"/>
      <point x="747" y="81"/>
      <point x="788" y="147"/>
      <point x="788" y="237" type="curve" smooth="yes"/>
      <point x="788" y="317"/>
      <point x="734" y="392"/>
      <point x="631" y="392" type="curve" smooth="yes"/>
      <point x="542" y="392"/>
      <point x="492" y="334"/>
      <point x="468" y="284" type="curve"/>
      <point x="466" y="284" type="line"/>
      <point x="448" y="347"/>
      <point x="399" y="389"/>
      <point x="333" y="403" type="curve"/>
      <point x="333" y="405" type="line"/>
      <point x="410" y="424"/>
      <point x="436" y="475"/>
      <point x="436" y="564" type="curve" smooth="yes"/>
      <point x="436" y="679" type="line"/>
      <point x="843" y="679" type="line"/>
      <point x="843" y="698" type="line"/>
      <point x="-20" y="698" type="line"/>
      <point x="-20" y="679" type="line"/>
      <point x="415" y="679" type="line"/>
      <point x="415" y="561" type="line" smooth="yes"/>
      <point x="415" y="464"/>
      <point x="380" y="413"/>
      <point x="249" y="413" type="curve" smooth="yes"/>
      <point x="164" y="413" type="line"/>
      <point x="164" y="394" type="line"/>
      <point x="254" y="394" type="line" smooth="yes"/>
      <point x="398" y="394"/>
      <point x="450" y="318"/>
      <point x="450" y="240" type="curve" smooth="yes"/>
      <point x="450" y="218" type="line" smooth="yes"/>
      <point x="450" y="129"/>
      <point x="395" y="61"/>
      <point x="277" y="61" type="curve" smooth="yes"/>
      <point x="182" y="61"/>
      <point x="123" y="99"/>
      <point x="73" y="171" type="curve"/>
      <point x="57" y="158" type="line"/>
      <point x="113" y="80"/>
      <point x="178" y="41"/>
    </contour>
    <contour>
      <point x="415.0" y="696.0" type="move" name="center_deva"/>
    </contour>
    <contour>
      <point x="435.0" y="696.0" type="move" name="top_deva"/>
    </contour>
  </outline>
</glyph>
<glyph name="dvAI" format="1">
  <advance width="615"/>
  <unicode hex="0910"/>
  <outline>
    <contour>
      <point x="429" y="-56" type="line" name="hr00"/>
      <point x="448" y="-56" type="line"/>
      <point x="448" y="45" type="line" smooth="yes"/>
      <point x="448" y="63"/>
      <point x="447" y="69"/>
      <point x="431" y="84" type="curve" smooth="yes"/>
      <point x="161" y="336" type="line"/>
      <point x="161" y="679" type="line"/>
      <point x="454" y="679" type="line"/>
      <point x="454" y="364" type="line"/>
      <point x="414" y="315" type="line"/>
      <point x="430" y="302" type="line"/>
      <point x="462" y="342" type="line" smooth="yes"/>
      <point x="472" y="354"/>
      <point x="475" y="362"/>
      <point x="475" y="384" type="curve" smooth="yes"/>
      <point x="475" y="679" type="line"/>
      <point x="635" y="679" type="line"/>
      <point x="635" y="698" type="line"/>
      <point x="471" y="698" type="line"/>
      <point x="350" y="906" type="line" smooth="yes"/>
      <point x="344" y="917"/>
      <point x="337" y="923"/>
      <point x="323" y="923" type="curve" smooth="yes"/>
      <point x="170" y="923" type="line"/>
      <point x="170" y="904" type="line"/>
      <point x="329" y="904" type="line"/>
      <point x="430" y="735" type="line"/>
      <point x="452" y="698" type="line"/>
      <point x="-20" y="698" type="line"/>
      <point x="-20" y="679" type="line"/>
      <point x="140" y="679" type="line"/>
      <point x="140" y="353" type="line" smooth="yes"/>
      <point x="140" y="332"/>
      <point x="142" y="327"/>
      <point x="158" y="312" type="curve" smooth="yes"/>
      <point x="429" y="59" type="line"/>
    </contour>
    <contour>
      <point x="320.0" y="696.0" type="move" name="center_deva"/>
    </contour>
    <contour>
      <point x="542.0" y="696.0" type="move" name="top_deva"/>
    </contour>
  </outline>
</glyph>
<glyph name="dvOshort" format="1">
  <advance width="1138"/>
  <unicode hex="0912"/>
  <outline>
    <contour>
      <point x="264" y="66" type="curve" smooth="yes"/>
      <point x="382" y="66"/>
      <point x="443" y="140"/>
      <point x="443" y="236" type="curve" smooth="yes"/>
      <point x="443" y="253"/>
      <point x="441" y="268"/>
      <point x="437" y="282" type="curve"/>
      <point x="658" y="282" type="line"/>
      <point x="658" y="0" type="line"/>
      <point x="679" y="0" type="line"/>
      <point x="679" y="679" type="line"/>
      <point x="973" y="679" type="line"/>
      <point x="973" y="0" type="line"/>
      <point x="994" y="0" type="line"/>
      <point x="994" y="679" type="line"/>
      <point x="1158" y="679" type="line"/>
      <point x="1158" y="698" type="line"/>
      <point x="993" y="698" type="line"/>
      <point x="993" y="831" type="line" smooth="yes"/>
      <point x="993" y="846"/>
      <point x="986" y="853"/>
      <point x="968" y="853" type="curve" smooth="yes"/>
      <point x="815" y="853" type="line" smooth="yes"/>
      <point x="742" y="853"/>
      <point x="711" y="870"/>
      <point x="676" y="918" type="curve"/>
      <point x="662" y="908" type="line"/>
      <point x="700" y="856"/>
      <point x="732" y="834"/>
      <point x="819" y="834" type="curve" smooth="yes"/>
      <point x="973" y="834" type="line"/>
      <point x="973" y="698" type="line"/>
      <point x="518" y="698" type="line"/>
      <point x="518" y="679" type="line"/>
      <point x="658" y="679" type="line"/>
      <point x="658" y="301" type="line"/>
      <point x="430" y="301" type="line"/>
      <point x="408" y="352"/>
      <point x="359" y="381"/>
      <point x="300" y="390" type="curve"/>
      <point x="300" y="392" type="line"/>
      <point x="379" y="414"/>
      <point x="421" y="462"/>
      <point x="421" y="542" type="curve" smooth="yes"/>
      <point x="421" y="628"/>
      <point x="359" y="687"/>
      <point x="259" y="687" type="curve" smooth="yes" name="hr01"/>
      <point x="187" y="687"/>
      <point x="136" y="654"/>
      <point x="103" y="610" type="curve"/>
      <point x="120" y="597" type="line"/>
      <point x="150" y="639"/>
      <point x="198" y="668"/>
      <point x="260" y="668" type="curve" smooth="yes"/>
      <point x="348" y="668"/>
      <point x="399" y="616"/>
      <point x="399" y="547" type="curve" smooth="yes"/>
      <point x="399" y="535" type="line" smooth="yes"/>
      <point x="399" y="462"/>
      <point x="347" y="400"/>
      <point x="233" y="400" type="curve" smooth="yes"/>
      <point x="165" y="400" type="line"/>
      <point x="165" y="381" type="line"/>
      <point x="234" y="381" type="line" smooth="yes"/>
      <point x="362" y="381"/>
      <point x="421" y="321"/>
      <point x="421" y="246" type="curve" smooth="yes"/>
      <point x="421" y="226" type="line" smooth="yes"/>
      <point x="421" y="152"/>
      <point x="369" y="85"/>
      <point x="264" y="85" type="curve" smooth="yes"/>
      <point x="182" y="85"/>
      <point x="124" y="124"/>
      <point x="85" y="179" type="curve"/>
      <point x="70" y="166" type="line"/>
      <point x="114" y="106"/>
      <point x="176" y="66"/>
    </contour>
    <contour>
      <point x="841.0" y="696.0" type="move" name="center_deva"/>
    </contour>
    <contour>
      <point x="1107.0" y="696.0" type="move" name="top_deva"/>
    </contour>
  </outline>
</glyph>
<glyph name="dvAU" format="1">
  <advance width="1138"/>
  <unicode hex="0914"/>
  <outline>
    <contour>
      <point x="264" y="66" type="curve" smooth="yes"/>
      <point x="382" y="66"/>
      <point x="443" y="140"/>
      <point x="443" y="236" type="curve" smooth="yes"/>
      <point x="443" y="253"/>
      <point x="441" y="268"/>
      <point x="437" y="282" type="curve"/>
      <point x="658" y="282" type="line"/>
      <point x="658" y="0" type="line"/>
      <point x="679" y="0" type="line"/>
      <point x="679" y="679" type="line"/>
      <point x="973" y="679" type="line"/>
      <point x="973" y="0" type="line"/>
      <point x="994" y="0" type="line"/>
      <point x="994" y="679" type="line"/>
      <point x="1158" y="679" type="line"/>
      <point x="1158" y="698" type="line"/>
      <point x="994" y="698" type="line"/>
      <point x="935" y="952" type="line" smooth="yes"/>
      <point x="932" y="965"/>
      <point x="926" y="973"/>
      <point x="910" y="973" type="curve" smooth="yes"/>
      <point x="824" y="973" type="line"/>
      <point x="824" y="954" type="line"/>
      <point x="917" y="954" type="line"/>
      <point x="957" y="783" type="line"/>
      <point x="973" y="715" type="line"/>
      <point x="971" y="713" type="line"/>
      <point x="941" y="734" type="line"/>
      <point x="796" y="837" type="line" smooth="yes"/>
      <point x="784" y="846"/>
      <point x="779" y="847"/>
      <point x="761" y="847" type="curve" smooth="yes"/>
      <point x="666" y="847" type="line"/>
      <point x="666" y="828" type="line"/>
      <point x="777" y="828" type="line"/>
      <point x="932" y="720" type="line"/>
      <point x="966" y="698" type="line"/>
      <point x="518" y="698" type="line"/>
      <point x="518" y="679" type="line"/>
      <point x="658" y="679" type="line"/>
      <point x="658" y="301" type="line"/>
      <point x="430" y="301" type="line"/>
      <point x="408" y="352"/>
      <point x="359" y="381"/>
      <point x="300" y="390" type="curve"/>
      <point x="300" y="392" type="line"/>
      <point x="379" y="414"/>
      <point x="421" y="462"/>
      <point x="421" y="542" type="curve" smooth="yes"/>
      <point x="421" y="628"/>
      <point x="359" y="687"/>
      <point x="259" y="687" type="curve" smooth="yes" name="hr01"/>
      <point x="187" y="687"/>
      <point x="136" y="654"/>
      <point x="103" y="610" type="curve"/>
      <point x="120" y="597" type="line"/>
      <point x="150" y="639"/>
      <point x="198" y="668"/>
      <point x="260" y="668" type="curve" smooth="yes"/>
      <point x="348" y="668"/>
      <point x="399" y="616"/>
      <point x="399" y="547" type="curve" smooth="yes"/>
      <point x="399" y="535" type="line" smooth="yes"/>
      <point x="399" y="462"/>
      <point x="347" y="400"/>
      <point x="233" y="400" type="curve" smooth="yes"/>
      <point x="165" y="400" type="line"/>
      <point x="165" y="381" type="line"/>
      <point x="234" y="381" type="line" smooth="yes"/>
      <point x="362" y="381"/>
      <point x="421" y="321"/>
      <point x="421" y="246" type="curve" smooth="yes"/>
      <point x="421" y="226" type="line" smooth="yes"/>
      <point x="421" y="152"/>
      <point x="369" y="85"/>
      <point x="264" y="85" type="curve" smooth="yes"/>
      <point x="182" y="85"/>
      <point x="124" y="124"/>
      <point x="85" y="179" type="curve"/>
      <point x="70" y="166" type="line"/>
      <point x="114" y="106"/>
      <point x="176" y="66"/>
    </contour>
    <contour>
      <point x="995.0" y="696.0" type="move" name="_top_deva"/>
    </contour>
    <contour>
      <point x="841.0" y="696.0" type="move" name="center_deva"/>
    </contour>
    <contour>
      <point x="1092.0" y="696.0" type="move" name="top_deva"/>
    </contour>
  </outline>
</glyph>
<glyph name="dvKHA" format="1">
  <advance width="914"/>
  <unicode hex="0916"/>
  <outline>
    <contour>
      <point x="499" y="10" type="curve" smooth="yes"/>
      <point x="550" y="10" type="line"/>
      <point x="550" y="29" type="line"/>
      <point x="492" y="29" type="line" smooth="yes"/>
      <point x="348" y="29"/>
      <point x="270" y="68"/>
      <point x="200" y="180" type="curve" smooth="yes"/>
      <point x="105" y="331" type="line"/>
      <point x="105" y="333" type="line"/>
      <point x="239" y="333"/>
      <point x="290" y="386"/>
      <point x="290" y="507" type="curve" smooth="yes"/>
      <point x="290" y="679" type="line"/>
      <point x="749" y="679" type="line"/>
      <point x="749" y="417" type="line"/>
      <point x="746" y="417" type="line"/>
      <point x="724" y="449"/>
      <point x="678" y="489"/>
      <point x="593" y="489" type="curve" smooth="yes"/>
      <point x="500" y="489"/>
      <point x="439" y="431"/>
      <point x="439" y="348" type="curve" smooth="yes"/>
      <point x="439" y="262"/>
      <point x="502" y="205"/>
      <point x="596" y="205" type="curve" smooth="yes"/>
      <point x="677" y="205"/>
      <point x="725" y="245"/>
      <point x="746" y="279" type="curve"/>
      <point x="749" y="279" type="line"/>
      <point x="749" y="0" type="line" name="hr01"/>
      <point x="770" y="0" type="line"/>
      <point x="770" y="679" type="line"/>
      <point x="934" y="679" type="line"/>
      <point x="934" y="698" type="line"/>
      <point x="-20" y="698" type="line"/>
      <point x="-20" y="679" type="line"/>
      <point x="269" y="679" type="line"/>
      <point x="269" y="503" type="line" smooth="yes"/>
      <point x="269" y="402"/>
      <point x="230" y="352"/>
      <point x="108" y="352" type="curve" smooth="yes"/>
      <point x="82" y="352" type="line"/>
      <point x="82" y="332" type="line"/>
      <point x="183" y="170" type="line" smooth="yes"/>
      <point x="255" y="55"/>
      <point x="337" y="10"/>
    </contour>
    <contour>
      <point x="597" y="223" type="curve" smooth="yes"/>
      <point x="512" y="223"/>
      <point x="460" y="276"/>
      <point x="460" y="342" type="curve" smooth="yes"/>
      <point x="460" y="354" type="line" smooth="yes"/>
      <point x="460" y="415"/>
      <point x="510" y="470"/>
      <point x="595" y="470" type="curve" smooth="yes"/>
      <point x="690" y="470"/>
      <point x="749" y="413"/>
      <point x="749" y="352" type="curve" smooth="yes"/>
      <point x="749" y="345" type="line" smooth="yes"/>
      <point x="749" y="286"/>
      <point x="693" y="223"/>
    </contour>
    <contour>
      <point x="770.0" y="0.0" type="move" name="bottom_deva"/>
    </contour>
    <contour>
      <point x="538.0" y="696.0" type="move" name="center_deva"/>
    </contour>
    <contour>
      <point x="770.0" y="696.0" type="move" name="top_deva"/>
    </contour>
  </outline>
</glyph>
<glyph name="dvGHA" format="1">
  <advance width="704"/>
  <unicode hex="0918"/>
  <outline>
    <contour>
      <point x="539" y="0" type="line" name="hr00"/>
      <point x="560" y="0" type="line"/>
      <point x="560" y="679" type="line"/>
      <point x="724" y="679" type="line"/>
      <point x="724" y="698" type="line"/>
      <point x="-20" y="698" type="line"/>
      <point x="-20" y="679" type="line"/>
      <point x="201" y="679" type="line"/>
      <point x="201" y="676" type="line"/>
      <point x="160" y="659"/>
      <point x="126" y="623"/>
      <point x="126" y="563" type="curve" smooth="yes"/>
      <point x="126" y="494"/>
      <point x="176" y="449"/>
      <point x="244" y="437" type="curve"/>
      <point x="244" y="434" type="line"/>
      <point x="182" y="420"/>
      <point x="130" y="373"/>
      <point x="130" y="291" type="curve" smooth="yes"/>
      <point x="130" y="204"/>
      <point x="195" y="138"/>
      <point x="313" y="138" type="curve" smooth="yes"/>
      <point x="439" y="138"/>
      <point x="505" y="205"/>
      <point x="536" y="258" type="curve"/>
      <point x="539" y="258" type="line"/>
    </contour>
    <contour>
      <point x="315" y="157" type="curve" smooth="yes"/>
      <point x="202" y="157"/>
      <point x="152" y="215"/>
      <point x="152" y="291" type="curve" smooth="yes"/>
      <point x="152" y="376"/>
      <point x="211" y="426"/>
      <point x="317" y="426" type="curve" smooth="yes"/>
      <point x="383" y="426" type="line"/>
      <point x="383" y="445" type="line"/>
      <point x="314" y="445" type="line" smooth="yes"/>
      <point x="194" y="445"/>
      <point x="148" y="498"/>
      <point x="148" y="563" type="curve" smooth="yes"/>
      <point x="148" y="629"/>
      <point x="196" y="679"/>
      <point x="292" y="679" type="curve" smooth="yes"/>
      <point x="539" y="679" type="line"/>
      <point x="539" y="339" type="line" smooth="yes"/>
      <point x="539" y="248"/>
      <point x="448" y="157"/>
    </contour>
    <contour>
      <point x="560.0" y="0.0" type="move" name="bottom_deva"/>
    </contour>
    <contour>
      <point x="388.0" y="696.0" type="move" name="center_deva"/>
    </contour>
    <contour>
      <point x="560.0" y="696.0" type="move" name="top_deva"/>
    </contour>
  </outline>
</glyph>
<glyph name="dvCA" format="1">
  <advance width="696"/>
  <unicode hex="091A"/>
  <outline>
    <contour>
      <point x="531" y="0" type="line" name="hr00"/>
      <point x="552" y="0" type="line"/>
      <point x="552" y="679" type="line"/>
      <point x="716" y="679" type="line"/>
      <point x="716" y="698" type="line"/>
      <point x="-20" y="698" type="line"/>
      <point x="-20" y="679" type="line"/>
      <point x="531" y="679" type="line"/>
      <point x="531" y="329" type="line" smooth="yes"/>
      <point x="531" y="223"/>
      <point x="438" y="147"/>
      <point x="333" y="147" type="curve" smooth="yes"/>
      <point x="252" y="147"/>
      <point x="182" y="194"/>
      <point x="182" y="288" type="curve" smooth="yes"/>
      <point x="182" y="364"/>
      <point x="236" y="435"/>
      <point x="320" y="435" type="curve" smooth="yes"/>
      <point x="347" y="435" type="line"/>
      <point x="347" y="452" type="line"/>
      <point x="60" y="452" type="line"/>
      <point x="60" y="433" type="line"/>
      <point x="165" y="433" type="line"/>
      <point x="249" y="434" type="line"/>
      <point x="249" y="432" type="line"/>
      <point x="198" y="409"/>
      <point x="160" y="358"/>
      <point x="160" y="287" type="curve" smooth="yes"/>
      <point x="160" y="189"/>
      <point x="236" y="128"/>
      <point x="333" y="128" type="curve" smooth="yes"/>
      <point x="436" y="128"/>
      <point x="503" y="190"/>
      <point x="528" y="244" type="curve"/>
      <point x="531" y="244" type="line"/>
    </contour>
    <contour>
      <point x="552.0" y="0.0" type="move" name="bottom_deva"/>
    </contour>
    <contour>
      <point x="377.0" y="696.0" type="move" name="center_deva"/>
    </contour>
    <contour>
      <point x="552.0" y="696.0" type="move" name="top_deva"/>
    </contour>
  </outline>
</glyph>
<glyph name="dvCHA" format="1">
  <advance width="783"/>
  <unicode hex="091B"/>
  <outline>
    <contour>
      <point x="374" y="34" type="curve" smooth="yes"/>
      <point x="390" y="34" type="line" smooth="yes"/>
      <point x="585" y="34"/>
      <point x="720" y="160"/>
      <point x="720" y="355" type="curve" smooth="yes"/>
      <point x="720" y="459"/>
      <point x="677" y="507"/>
      <point x="611" y="512" type="curve"/>
      <point x="611" y="679" type="line"/>
      <point x="803" y="679" type="line"/>
      <point x="803" y="698" type="line"/>
      <point x="-20" y="698" type="line"/>
      <point x="-20" y="679" type="line"/>
      <point x="227" y="679" type="line"/>
      <point x="227" y="676" type="line"/>
      <point x="189" y="659"/>
      <point x="139" y="619"/>
      <point x="139" y="539" type="curve" smooth="yes"/>
      <point x="139" y="465"/>
      <point x="185" y="415"/>
      <point x="250" y="395" type="curve"/>
      <point x="250" y="392" type="line"/>
      <point x="186" y="378"/>
      <point x="127" y="327"/>
      <point x="127" y="227" type="curve" smooth="yes" name="hr01"/>
      <point x="127" y="123"/>
      <point x="205" y="34"/>
    </contour>
    <contour>
      <point x="364" y="54" type="line" smooth="yes"/>
      <point x="224" y="54"/>
      <point x="149" y="129"/>
      <point x="149" y="227" type="curve" smooth="yes"/>
      <point x="149" y="323"/>
      <point x="208" y="384"/>
      <point x="315" y="384" type="curve" smooth="yes"/>
      <point x="374" y="384" type="line"/>
      <point x="374" y="403" type="line"/>
      <point x="314" y="403" type="line" smooth="yes"/>
      <point x="218" y="403"/>
      <point x="160" y="460"/>
      <point x="160" y="539" type="curve" smooth="yes" name="hr02"/>
      <point x="160" y="628"/>
      <point x="231" y="679"/>
      <point x="315" y="679" type="curve" smooth="yes"/>
      <point x="591" y="679" type="line"/>
      <point x="591" y="512" type="line"/>
      <point x="525" y="508"/>
      <point x="482" y="460"/>
      <point x="482" y="367" type="curve" smooth="yes"/>
      <point x="482" y="253"/>
      <point x="536" y="209"/>
      <point x="636" y="209" type="curve" smooth="yes"/>
      <point x="668" y="209" type="line"/>
      <point x="668" y="207" type="line"/>
      <point x="620" y="116"/>
      <point x="524" y="54"/>
      <point x="401" y="54" type="curve" smooth="yes"/>
    </contour>
    <contour>
      <point x="633" y="227" type="line" smooth="yes"/>
      <point x="545" y="227"/>
      <point x="503" y="267"/>
      <point x="503" y="351" type="curve" smooth="yes"/>
      <point x="503" y="376" type="line" smooth="yes"/>
      <point x="503" y="449"/>
      <point x="538" y="494"/>
      <point x="600" y="494" type="curve" smooth="yes"/>
      <point x="668" y="494"/>
      <point x="699" y="442"/>
      <point x="699" y="374" type="curve" smooth="yes"/>
      <point x="699" y="342" type="line" smooth="yes"/>
      <point x="699" y="301"/>
      <point x="691" y="262"/>
      <point x="677" y="227" type="curve"/>
    </contour>
    <contour>
      <point x="409.0" y="38.0" type="move" name="bottom_deva"/>
    </contour>
    <contour>
      <point x="427.0" y="696.0" type="move" name="center_deva"/>
    </contour>
    <contour>
      <point x="611.0" y="696.0" type="move" name="top_deva"/>
    </contour>
  </outline>
</glyph>
<glyph name="dvJA" format="1">
  <advance width="831"/>
  <unicode hex="091C"/>
  <outline>
    <contour>
      <point x="313" y="82" type="curve" smooth="yes" name="hr00"/>
      <point x="411" y="82"/>
      <point x="472" y="147"/>
      <point x="472" y="243" type="curve" smooth="yes"/>
      <point x="472" y="333"/>
      <point x="425" y="386"/>
      <point x="372" y="413" type="curve"/>
      <point x="372" y="416" type="line"/>
      <point x="666" y="416" type="line"/>
      <point x="666" y="0" type="line"/>
      <point x="687" y="0" type="line"/>
      <point x="687" y="679" type="line"/>
      <point x="851" y="679" type="line"/>
      <point x="851" y="698" type="line"/>
      <point x="-20" y="698" type="line"/>
      <point x="-20" y="679" type="line"/>
      <point x="666" y="679" type="line"/>
      <point x="666" y="435" type="line"/>
      <point x="282" y="435" type="line"/>
      <point x="282" y="416" type="line"/>
      <point x="296" y="416" type="line" smooth="yes"/>
      <point x="382" y="416"/>
      <point x="450" y="340"/>
      <point x="450" y="256" type="curve" smooth="yes"/>
      <point x="450" y="234" type="line" smooth="yes"/>
      <point x="450" y="156"/>
      <point x="398" y="101"/>
      <point x="311" y="101" type="curve" smooth="yes"/>
      <point x="224" y="101"/>
      <point x="118" y="151"/>
      <point x="105" y="387" type="curve"/>
      <point x="84" y="384" type="line"/>
      <point x="97" y="174"/>
      <point x="184" y="82"/>
    </contour>
    <contour>
      <point x="687.0" y="0.0" type="move" name="bottom_deva"/>
    </contour>
    <contour>
      <point x="503.0" y="696.0" type="move" name="center_deva"/>
    </contour>
    <contour>
      <point x="687.0" y="696.0" type="move" name="top_deva"/>
    </contour>
  </outline>
</glyph>
<glyph name="dvTTA" format="1">
  <advance width="552"/>
  <unicode hex="091F"/>
  <outline>
    <contour>
      <point x="307" y="26" type="curve" smooth="yes" name="hr00"/>
      <point x="399" y="26"/>
      <point x="457" y="60"/>
      <point x="499" y="107" type="curve"/>
      <point x="485" y="122" type="line"/>
      <point x="441" y="74"/>
      <point x="390" y="45"/>
      <point x="306" y="45" type="curve" smooth="yes"/>
      <point x="187" y="45"/>
      <point x="107" y="125"/>
      <point x="107" y="232" type="curve" smooth="yes"/>
      <point x="107" y="257" type="line" smooth="yes"/>
      <point x="107" y="364"/>
      <point x="170" y="446"/>
      <point x="320" y="446" type="curve" smooth="yes"/>
      <point x="419" y="446" type="line"/>
      <point x="419" y="679" type="line"/>
      <point x="572" y="679" type="line"/>
      <point x="572" y="698" type="line"/>
      <point x="-20" y="698" type="line"/>
      <point x="-20" y="679" type="line"/>
      <point x="398" y="679" type="line"/>
      <point x="398" y="466" type="line"/>
      <point x="319" y="466" type="line" smooth="yes"/>
      <point x="162" y="466"/>
      <point x="84" y="383"/>
      <point x="84" y="245" type="curve" smooth="yes"/>
      <point x="84" y="107"/>
      <point x="180" y="26"/>
    </contour>
    <contour>
      <point x="320.0" y="29.0" type="move" name="bottom_deva"/>
    </contour>
    <contour>
      <point x="353.0" y="696.0" type="move" name="center_deva"/>
    </contour>
    <contour>
      <point x="419.0" y="696.0" type="move" name="top_deva"/>
    </contour>
  </outline>
</glyph>
<glyph name="dvDDHA" format="1">
  <advance width="607"/>
  <unicode hex="0922"/>
  <outline>
    <contour>
      <point x="361" y="40" type="curve" smooth="yes" name="hr00"/>
      <point x="482" y="40"/>
      <point x="535" y="95"/>
      <point x="535" y="166" type="curve" smooth="yes"/>
      <point x="535" y="232"/>
      <point x="491" y="272"/>
      <point x="419" y="272" type="curve" smooth="yes"/>
      <point x="340" y="272"/>
      <point x="301" y="228"/>
      <point x="301" y="155" type="curve" smooth="yes"/>
      <point x="301" y="61" type="line"/>
      <point x="185" y="79"/>
      <point x="121" y="158"/>
      <point x="121" y="248" type="curve" smooth="yes"/>
      <point x="121" y="282" type="line" smooth="yes"/>
      <point x="121" y="376"/>
      <point x="181" y="454"/>
      <point x="331" y="454" type="curve" smooth="yes"/>
      <point x="448" y="454" type="line"/>
      <point x="448" y="679" type="line"/>
      <point x="627" y="679" type="line"/>
      <point x="627" y="698" type="line"/>
      <point x="-20" y="698" type="line"/>
      <point x="-20" y="679" type="line"/>
      <point x="427" y="679" type="line"/>
      <point x="427" y="474" type="line"/>
      <point x="339" y="474" type="line" smooth="yes"/>
      <point x="171" y="474"/>
      <point x="98" y="396"/>
      <point x="98" y="266" type="curve" smooth="yes"/>
      <point x="98" y="128"/>
      <point x="190" y="40"/>
    </contour>
    <contour>
      <point x="368" y="58" type="curve" smooth="yes"/>
      <point x="356" y="58"/>
      <point x="338" y="58"/>
      <point x="321" y="59" type="curve"/>
      <point x="321" y="155" type="line" smooth="yes"/>
      <point x="321" y="205"/>
      <point x="343" y="253"/>
      <point x="418" y="253" type="curve" smooth="yes"/>
      <point x="485" y="253"/>
      <point x="515" y="218"/>
      <point x="515" y="167" type="curve" smooth="yes"/>
      <point x="515" y="101"/>
      <point x="466" y="58"/>
    </contour>
    <contour>
      <point x="359.0" y="42.0" type="move" name="bottom_deva"/>
    </contour>
    <contour>
      <point x="355.0" y="696.0" type="move" name="center_deva"/>
    </contour>
    <contour>
      <point x="448.0" y="696.0" type="move" name="top_deva"/>
    </contour>
  </outline>
</glyph>
<glyph name="dvTA" format="1">
  <advance width="617"/>
  <unicode hex="0924"/>
  <outline>
    <contour>
      <point x="231" y="1" type="curve" name="hr00"/>
      <point x="243" y="17" type="line"/>
      <point x="142" y="77"/>
      <point x="115" y="148"/>
      <point x="115" y="242" type="curve" smooth="yes"/>
      <point x="115" y="262" type="line" smooth="yes"/>
      <point x="115" y="365"/>
      <point x="161" y="432"/>
      <point x="273" y="432" type="curve" smooth="yes"/>
      <point x="452" y="432" type="line"/>
      <point x="452" y="0" type="line"/>
      <point x="473" y="0" type="line"/>
      <point x="473" y="679" type="line"/>
      <point x="637" y="679" type="line"/>
      <point x="637" y="698" type="line"/>
      <point x="-20" y="698" type="line"/>
      <point x="-20" y="679" type="line"/>
      <point x="452" y="679" type="line"/>
      <point x="452" y="451" type="line"/>
      <point x="271" y="451" type="line" smooth="yes"/>
      <point x="155" y="451"/>
      <point x="93" y="386"/>
      <point x="93" y="253" type="curve" smooth="yes"/>
      <point x="93" y="141"/>
      <point x="123" y="67"/>
    </contour>
    <contour>
      <point x="473.0" y="0.0" type="move" name="bottom_deva"/>
    </contour>
    <contour>
      <point x="303.0" y="696.0" type="move" name="center_deva"/>
    </contour>
    <contour>
      <point x="473.0" y="696.0" type="move" name="top_deva"/>
    </contour>
  </outline>
</glyph>
<glyph name="dvDA" format="1">
  <advance width="577"/>
  <unicode hex="0926"/>
  <outline>
    <contour>
      <point x="486" y="-52" type="line" name="hr00"/>
      <point x="503" y="-46" type="line"/>
      <point x="455" y="94" type="line"/>
      <point x="449" y="111" type="line"/>
      <point x="463" y="120"/>
      <point x="468" y="127"/>
      <point x="468" y="140" type="curve" smooth="yes"/>
      <point x="468" y="159"/>
      <point x="457" y="180"/>
      <point x="436" y="180" type="curve" smooth="yes"/>
      <point x="425" y="180"/>
      <point x="414" y="176"/>
      <point x="408" y="171" type="curve"/>
      <point x="426" y="121" type="line"/>
      <point x="403" y="111"/>
      <point x="363" y="102"/>
      <point x="316" y="102" type="curve" smooth="yes"/>
      <point x="179" y="102"/>
      <point x="118" y="184"/>
      <point x="118" y="274" type="curve" smooth="yes"/>
      <point x="118" y="295" type="line" smooth="yes"/>
      <point x="118" y="396"/>
      <point x="185" y="461"/>
      <point x="316" y="461" type="curve" smooth="yes"/>
      <point x="440" y="461" type="line"/>
      <point x="440" y="679" type="line"/>
      <point x="597" y="679" type="line"/>
      <point x="597" y="698" type="line"/>
      <point x="-20" y="698" type="line"/>
      <point x="-20" y="679" type="line"/>
      <point x="419" y="679" type="line"/>
      <point x="419" y="481" type="line"/>
      <point x="314" y="481" type="line" smooth="yes"/>
      <point x="174" y="481"/>
      <point x="95" y="412"/>
      <point x="95" y="287" type="curve" smooth="yes"/>
      <point x="95" y="169"/>
      <point x="168" y="83"/>
      <point x="316" y="83" type="curve" smooth="yes"/>
      <point x="364" y="83"/>
      <point x="403" y="91"/>
      <point x="433" y="104" type="curve"/>
      <point x="439" y="86" type="line"/>
    </contour>
    <contour>
      <point x="503.0" y="-49.0" type="move" name="bottom_deva"/>
    </contour>
    <contour>
      <point x="313.0" y="696.0" type="move" name="center_deva"/>
    </contour>
    <contour>
      <point x="440.0" y="696.0" type="move" name="top_deva"/>
    </contour>
  </outline>
</glyph>
<glyph name="dvNxA" format="1">
  <advance width="589"/>
  <unicode hex="0929"/>
  <outline>
    <component base="dvNA"/>
    <component base="dvNukta" xOffset="18" yOffset="6"/>
    <contour>
      <point x="445.0" y="0.0" type="move" name="bottom_deva"/>
    </contour>
    <contour>
      <point x="287.0" y="696.0" type="move" name="center_deva"/>
    </contour>
    <contour>
      <point x="445.0" y="696.0" type="move" name="top_deva"/>
    </contour>
  </outline>
</glyph>
<glyph name="dvPA" format="1">
  <advance width="607"/>
  <unicode hex="092A"/>
  <outline>
    <contour>
      <point x="442" y="0" type="line" name="hr00"/>
      <point x="463" y="0" type="line"/>
      <point x="463" y="679" type="line"/>
      <point x="627" y="679" type="line"/>
      <point x="627" y="698" type="line"/>
      <point x="-20" y="698" type="line"/>
      <point x="-20" y="679" type="line"/>
      <point x="120" y="679" type="line"/>
      <point x="120" y="422" type="line" smooth="yes"/>
      <point x="120" y="300"/>
      <point x="182" y="246"/>
      <point x="279" y="246" type="curve" smooth="yes"/>
      <point x="354" y="246"/>
      <point x="410" y="279"/>
      <point x="439" y="330" type="curve"/>
      <point x="442" y="330" type="line"/>
    </contour>
    <contour>
      <point x="141" y="418" type="curve" smooth="yes"/>
      <point x="141" y="679" type="line"/>
      <point x="442" y="679" type="line"/>
      <point x="442" y="404" type="line" smooth="yes"/>
      <point x="442" y="318"/>
      <point x="366" y="265"/>
      <point x="281" y="265" type="curve" smooth="yes"/>
      <point x="190" y="265"/>
      <point x="141" y="312"/>
    </contour>
    <contour>
      <point x="463.0" y="0.0" type="move" name="bottom_deva"/>
    </contour>
    <contour>
      <point x="298.0" y="696.0" type="move" name="center_deva"/>
    </contour>
    <contour>
      <point x="463.0" y="696.0" type="move" name="top_deva"/>
    </contour>
  </outline>
</glyph>
<glyph name="dvPHA" format="1">
  <advance width="876"/>
  <unicode hex="092B"/>
  <outline>
    <contour>
      <point x="442" y="0" type="line" name="hr00"/>
      <point x="463" y="0" type="line"/>
      <point x="463" y="272" type="line" smooth="yes"/>
      <point x="463" y="391"/>
      <point x="547" y="468"/>
      <point x="644" y="468" type="curve" smooth="yes"/>
      <point x="745" y="468"/>
      <point x="787" y="395"/>
      <point x="787" y="337" type="curve" smooth="yes"/>
      <point x="787" y="323" type="line" smooth="yes"/>
      <point x="787" y="249"/>
      <point x="743" y="192"/>
      <point x="640" y="171" type="curve"/>
      <point x="648" y="151" type="line"/>
      <point x="760" y="176"/>
      <point x="809" y="239"/>
      <point x="809" y="333" type="curve" smooth="yes"/>
      <point x="809" y="417"/>
      <point x="749" y="488"/>
      <point x="645" y="488" type="curve" smooth="yes"/>
      <point x="548" y="488"/>
      <point x="493" y="429"/>
      <point x="466" y="367" type="curve"/>
      <point x="463" y="367" type="line"/>
      <point x="463" y="679" type="line"/>
      <point x="896" y="679" type="line"/>
      <point x="896" y="698" type="line"/>
      <point x="-20" y="698" type="line"/>
      <point x="-20" y="679" type="line"/>
      <point x="120" y="679" type="line"/>
      <point x="120" y="422" type="line" smooth="yes"/>
      <point x="120" y="300"/>
      <point x="182" y="246"/>
      <point x="279" y="246" type="curve" smooth="yes"/>
      <point x="354" y="246"/>
      <point x="410" y="279"/>
      <point x="439" y="330" type="curve"/>
      <point x="442" y="330" type="line"/>
    </contour>
    <contour>
      <point x="141" y="418" type="curve" smooth="yes"/>
      <point x="141" y="679" type="line"/>
      <point x="442" y="679" type="line"/>
      <point x="442" y="404" type="line" smooth="yes"/>
      <point x="442" y="318"/>
      <point x="366" y="265"/>
      <point x="281" y="265" type="curve" smooth="yes"/>
      <point x="190" y="265"/>
      <point x="141" y="312"/>
    </contour>
    <contour>
      <point x="463.0" y="0.0" type="move" name="bottom_deva"/>
    </contour>
    <contour>
      <point x="452.0" y="696.0" type="move" name="center_deva"/>
    </contour>
    <contour>
      <point x="463.0" y="696.0" type="move" name="top_deva"/>
    </contour>
  </outline>
</glyph>
<glyph name="dvBA" format="1">
  <advance width="618"/>
  <unicode hex="092C"/>
  <outline>
    <contour>
      <point x="453" y="0" type="line" name="hr00"/>
      <point x="474" y="0" type="line"/>
      <point x="474" y="679" type="line"/>
      <point x="638" y="679" type="line"/>
      <point x="638" y="698" type="line"/>
      <point x="-20" y="698" type="line"/>
      <point x="-20" y="679" type="line"/>
      <point x="453" y="679" type="line"/>
      <point x="453" y="404" type="line"/>
      <point x="450" y="404" type="line"/>
      <point x="419" y="445"/>
      <point x="359" y="489"/>
      <point x="265" y="489" type="curve" smooth="yes"/>
      <point x="149" y="489"/>
      <point x="74" y="413"/>
      <point x="74" y="312" type="curve" smooth="yes"/>
      <point x="74" y="200"/>
      <point x="160" y="132"/>
      <point x="265" y="132" type="curve" smooth="yes"/>
      <point x="357" y="132"/>
      <point x="419" y="180"/>
      <point x="450" y="226" type="curve"/>
      <point x="453" y="226" type="line"/>
    </contour>
    <contour>
      <point x="366" y="243" type="line"/>
      <point x="199" y="399" type="line"/>
      <point x="157" y="439" type="line"/>
      <point x="163" y="443"/>
      <point x="169" y="447"/>
      <point x="175" y="450" type="curve" smooth="yes"/>
      <point x="203" y="463"/>
      <point x="234" y="470"/>
      <point x="266" y="470" type="curve" smooth="yes"/>
      <point x="373" y="470"/>
      <point x="454" y="399"/>
      <point x="454" y="345" type="curve" smooth="yes"/>
      <point x="454" y="291" type="line" smooth="yes"/>
      <point x="454" y="262"/>
      <point x="435" y="229"/>
      <point x="408" y="203" type="curve"/>
    </contour>
    <contour>
      <point x="264" y="151" type="curve" smooth="yes"/>
      <point x="167" y="151"/>
      <point x="96" y="214"/>
      <point x="96" y="300" type="curve" smooth="yes"/>
      <point x="96" y="320" type="line" smooth="yes"/>
      <point x="96" y="368"/>
      <point x="117" y="404"/>
      <point x="143" y="428" type="curve"/>
      <point x="185" y="387" type="line"/>
      <point x="355" y="227" type="line"/>
      <point x="394" y="191" type="line"/>
      <point x="385" y="184"/>
      <point x="375" y="178"/>
      <point x="365" y="173" type="curve" smooth="yes"/>
      <point x="338" y="160"/>
      <point x="309" y="151"/>
    </contour>
    <contour>
      <point x="474.0" y="0.0" type="move" name="bottom_deva"/>
    </contour>
    <contour>
      <point x="290.0" y="696.0" type="move" name="center_deva"/>
    </contour>
    <contour>
      <point x="474.0" y="696.0" type="move" name="top_deva"/>
    </contour>
  </outline>
</glyph>
<glyph name="dvBHA" format="1">
  <advance width="616"/>
  <unicode hex="092D"/>
  <outline>
    <contour>
      <point x="153" y="288" type="curve" smooth="yes" name="hr00"/>
      <point x="159" y="288"/>
      <point x="165" y="289"/>
      <point x="169" y="291" type="curve"/>
      <point x="169" y="335" type="line"/>
      <point x="451" y="335" type="line"/>
      <point x="451" y="0" type="line"/>
      <point x="472" y="0" type="line"/>
      <point x="472" y="679" type="line"/>
      <point x="636" y="679" type="line"/>
      <point x="636" y="698" type="line"/>
      <point x="451" y="698" type="line"/>
      <point x="451" y="354" type="line"/>
      <point x="169" y="354" type="line"/>
      <point x="169" y="675" type="line" smooth="yes"/>
      <point x="169" y="692"/>
      <point x="161" y="698"/>
      <point x="147" y="698" type="curve" smooth="yes"/>
      <point x="-20" y="698" type="line"/>
      <point x="-20" y="679" type="line"/>
      <point x="148" y="679" type="line"/>
      <point x="148" y="353" type="line"/>
      <point x="132" y="350"/>
      <point x="123" y="337"/>
      <point x="123" y="321" type="curve" smooth="yes"/>
      <point x="123" y="302"/>
      <point x="133" y="288"/>
    </contour>
    <contour>
      <point x="472.0" y="0.0" type="move" name="bottom_deva"/>
    </contour>
    <contour>
      <point x="304.0" y="696.0" type="move" name="center_deva"/>
    </contour>
    <contour>
      <point x="472.0" y="696.0" type="move" name="top_deva"/>
    </contour>
  </outline>
</glyph>
<glyph name="dvMA" format="1">
  <advance width="616"/>
  <unicode hex="092E"/>
  <outline>
    <contour>
      <point x="142" y="288" type="curve" smooth="yes" name="hr00"/>
      <point x="148" y="288"/>
      <point x="154" y="289"/>
      <point x="158" y="291" type="curve"/>
      <point x="158" y="335" type="line"/>
      <point x="451" y="335" type="line"/>
      <point x="451" y="0" type="line"/>
      <point x="472" y="0" type="line"/>
      <point x="472" y="679" type="line"/>
      <point x="636" y="679" type="line"/>
      <point x="636" y="698" type="line"/>
      <point x="-20" y="698" type="line"/>
      <point x="-20" y="679" type="line"/>
      <point x="137" y="679" type="line"/>
      <point x="137" y="353" type="line"/>
      <point x="121" y="351"/>
      <point x="112" y="339"/>
      <point x="112" y="321" type="curve" smooth="yes"/>
      <point x="112" y="302"/>
      <point x="121" y="288"/>
    </contour>
    <contour>
      <point x="451" y="679" type="line"/>
      <point x="451" y="354" type="line"/>
      <point x="158" y="354" type="line"/>
      <point x="158" y="679" type="line"/>
    </contour>
    <contour>
      <point x="472.0" y="0.0" type="move" name="bottom_deva"/>
    </contour>
    <contour>
      <point x="303.0" y="696.0" type="move" name="center_deva"/>
    </contour>
    <contour>
      <point x="472.0" y="696.0" type="move" name="top_deva"/>
    </contour>
  </outline>
</glyph>
<glyph name="dvRxA" format="1">
  <advance width="437"/>
  <unicode hex="0931"/>
  <outline>
    <component base="dvRA"/>
    <component base="dvNukta" xOffset="-58" yOffset="5"/>
    <contour>
      <point x="233.0" y="0.0" type="move" name="bottom_deva"/>
    </contour>
    <contour>
      <point x="273.0" y="696.0" type="move" name="center_deva"/>
    </contour>
    <contour>
      <point x="314.0" y="696.0" type="move" name="top_deva"/>
    </contour>
  </outline>
</glyph>
<glyph name="dvLLA" format="1">
  <advance width="839"/>
  <unicode hex="0933"/>
  <outline>
    <contour>
      <point x="267" y="63" type="curve" smooth="yes" name="hr00"/>
      <point x="348" y="63"/>
      <point x="397" y="121"/>
      <point x="420" y="196" type="curve"/>
      <point x="422" y="196" type="line"/>
      <point x="453" y="119"/>
      <point x="507" y="63"/>
      <point x="596" y="63" type="curve" smooth="yes"/>
      <point x="698" y="63"/>
      <point x="761" y="130"/>
      <point x="761" y="270" type="curve" smooth="yes"/>
      <point x="761" y="404"/>
      <point x="701" y="471"/>
      <point x="606" y="477" type="curve"/>
      <point x="606" y="679" type="line"/>
      <point x="859" y="679" type="line"/>
      <point x="859" y="698" type="line"/>
      <point x="-20" y="698" type="line"/>
      <point x="-20" y="679" type="line"/>
      <point x="585" y="679" type="line"/>
      <point x="585" y="477" type="line"/>
      <point x="508" y="473"/>
      <point x="460" y="417"/>
      <point x="438" y="344" type="curve"/>
      <point x="436" y="344" type="line"/>
      <point x="405" y="421"/>
      <point x="351" y="477"/>
      <point x="262" y="477" type="curve" smooth="yes"/>
      <point x="160" y="477"/>
      <point x="97" y="410"/>
      <point x="97" y="270" type="curve" smooth="yes"/>
      <point x="97" y="129"/>
      <point x="163" y="63"/>
    </contour>
    <contour>
      <point x="597" y="82" type="curve" smooth="yes"/>
      <point x="516" y="82"/>
      <point x="459" y="138"/>
      <point x="433" y="221" type="curve"/>
      <point x="449" y="385"/>
      <point x="506" y="458"/>
      <point x="597" y="458" type="curve" smooth="yes"/>
      <point x="686" y="458"/>
      <point x="738" y="391"/>
      <point x="738" y="290" type="curve" smooth="yes"/>
      <point x="738" y="252" type="line" smooth="yes"/>
      <point x="738" y="148"/>
      <point x="692" y="82"/>
    </contour>
    <contour>
      <point x="261" y="82" type="curve" smooth="yes"/>
      <point x="172" y="82"/>
      <point x="120" y="149"/>
      <point x="120" y="250" type="curve" smooth="yes"/>
      <point x="120" y="288" type="line" smooth="yes"/>
      <point x="120" y="392"/>
      <point x="166" y="458"/>
      <point x="261" y="458" type="curve" smooth="yes"/>
      <point x="342" y="458"/>
      <point x="399" y="402"/>
      <point x="425" y="319" type="curve"/>
      <point x="409" y="155"/>
      <point x="352" y="82"/>
    </contour>
    <contour>
      <point x="608.0" y="65.0" type="move" name="bottom_deva"/>
    </contour>
    <contour>
      <point x="432.0" y="696.0" type="move" name="center_deva"/>
    </contour>
    <contour>
      <point x="606.0" y="696.0" type="move" name="top_deva"/>
    </contour>
  </outline>
</glyph>
<glyph name="dvNukta" format="1">
  <advance width="0"/>
  <unicode hex="093C"/>
  <outline>
    <contour>
      <point x="124" y="-10" type="curve" smooth="yes" name="hr00"/>
      <point x="140" y="-10"/>
      <point x="148" y="-1"/>
      <point x="148" y="12" type="curve" smooth="yes"/>
      <point x="148" y="17" type="line" smooth="yes"/>
      <point x="148" y="30"/>
      <point x="140" y="39"/>
      <point x="124" y="39" type="curve" smooth="yes"/>
      <point x="108" y="39"/>
      <point x="100" y="30"/>
      <point x="100" y="17" type="curve" smooth="yes"/>
      <point x="100" y="12" type="line" smooth="yes"/>
      <point x="100" y="-1"/>
      <point x="108" y="-10"/>
    </contour>
  </outline>
</glyph>
<glyph name="dvmAA" format="1">
  <advance width="309"/>
  <unicode hex="093E"/>
  <outline>
    <contour>
      <point x="144" y="0" type="line" name="hr00"/>
      <point x="165" y="0" type="line"/>
      <point x="165" y="679" type="line"/>
      <point x="329" y="679" type="line"/>
      <point x="329" y="698" type="line"/>
      <point x="-20" y="698" type="line"/>
      <point x="-20" y="679" type="line"/>
      <point x="144" y="679" type="line"/>
    </contour>
    <contour>
      <point x="155.0" y="696.0" type="move" name="center_deva"/>
    </contour>
    <contour>
      <point x="165.0" y="696.0" type="move" name="top_deva"/>
    </contour>
  </outline>
</glyph>
<glyph name="dvmII" format="1">
  <advance width="309"/>
  <unicode hex="0940"/>
  <outline>
    <contour>
      <point x="144" y="0" type="line" name="hr00"/>
      <point x="165" y="0" type="line"/>
      <point x="165" y="679" type="line"/>
      <point x="329" y="679" type="line"/>
      <point x="329" y="698" type="line"/>
      <point x="165" y="698" type="line"/>
      <point x="165" y="748" type="line" smooth="yes"/>
      <point x="165" y="849"/>
      <point x="99" y="906"/>
      <point x="6" y="906" type="curve" smooth="yes"/>
      <point x="-76" y="906"/>
      <point x="-130" y="856"/>
      <point x="-166" y="787" type="curve"/>
      <point x="-148" y="777" type="line"/>
      <point x="-115" y="842"/>
      <point x="-68" y="887"/>
      <point x="7" y="887" type="curve" smooth="yes"/>
      <point x="85" y="887"/>
      <point x="144" y="842"/>
      <point x="144" y="749" type="curve" smooth="yes"/>
      <point x="144" y="698" type="line"/>
      <point x="-20" y="698" type="line"/>
      <point x="-20" y="679" type="line"/>
      <point x="144" y="679" type="line"/>
    </contour>
    <contour>
      <point x="165.0" y="696.0" type="move" name="mvII_deva"/>
    </contour>
    <contour>
      <point x="261.0" y="696.0" type="move" name="top_deva"/>
    </contour>
  </outline>
</glyph>
<glyph name="dvmU" format="1">
  <advance width="0"/>
  <unicode hex="0941"/>
  <outline>
    <contour>
      <point x="-156" y="-229" type="curve" smooth="yes" name="hr00"/>
      <point x="-59" y="-229"/>
      <point x="-12" y="-184"/>
      <point x="-12" y="-108" type="curve" smooth="yes"/>
      <point x="-12" y="-40"/>
      <point x="-59" y="3"/>
      <point x="-133" y="3" type="curve" smooth="yes"/>
      <point x="-239" y="3" type="line"/>
      <point x="-239" y="-15" type="line"/>
      <point x="-134" y="-15" type="line" smooth="yes"/>
      <point x="-70" y="-15"/>
      <point x="-32" y="-50"/>
      <point x="-32" y="-108" type="curve" smooth="yes"/>
      <point x="-32" y="-177"/>
      <point x="-78" y="-211"/>
      <point x="-148" y="-211" type="curve" smooth="yes"/>
      <point x="-166" y="-211" type="line" smooth="yes"/>
      <point x="-255" y="-211"/>
      <point x="-309" y="-186"/>
      <point x="-396" y="-97" type="curve"/>
      <point x="-408" y="-110" type="line"/>
      <point x="-317" y="-202"/>
      <point x="-262" y="-229"/>
    </contour>
    <contour>
      <point x="-145.0" y="0.0" type="move" name="_bottom_deva"/>
    </contour>
  </outline>
</glyph>
<glyph name="dvmvRR" format="1">
  <advance width="0"/>
  <unicode hex="0944"/>
  <outline>
    <contour>
      <point x="-186" y="-302" type="curve" smooth="yes"/>
      <point x="-118" y="-302" type="line"/>
      <point x="-118" y="-287" type="line"/>
      <point x="-186" y="-287" type="line" smooth="yes"/>
      <point x="-244" y="-287"/>
      <point x="-265" y="-263"/>
      <point x="-265" y="-228" type="curve" smooth="yes"/>
      <point x="-265" y="-193"/>
      <point x="-242" y="-166"/>
      <point x="-180" y="-166" type="curve" smooth="yes"/>
      <point x="-132" y="-166" type="line"/>
      <point x="-132" y="-149" type="line"/>
      <point x="-180" y="-149" type="line" smooth="yes"/>
      <point x="-249" y="-149"/>
      <point x="-275" y="-118"/>
      <point x="-275" y="-79" type="curve" smooth="yes" name="hr01"/>
      <point x="-275" y="-39"/>
      <point x="-249" y="-14"/>
      <point x="-190" y="-14" type="curve" smooth="yes"/>
      <point x="-144" y="-14" type="line"/>
      <point x="-144" y="3" type="line"/>
      <point x="-190" y="3" type="line" smooth="yes"/>
      <point x="-260" y="3"/>
      <point x="-293" y="-30"/>
      <point x="-293" y="-79" type="curve" smooth="yes"/>
      <point x="-293" y="-116"/>
      <point x="-273" y="-146"/>
      <point x="-226" y="-157" type="curve"/>
      <point x="-226" y="-159" type="line"/>
      <point x="-256" y="-166"/>
      <point x="-282" y="-188"/>
      <point x="-282" y="-228" type="curve" smooth="yes" name="hr02"/>
      <point x="-282" y="-271"/>
      <point x="-253" y="-302"/>
    </contour>
    <contour>
      <point x="-144.0" y="0.0" type="move" name="_bottom_deva"/>
    </contour>
  </outline>
</glyph>
<glyph name="dvmEcandra" format="1">
  <advance width="0"/>
  <unicode hex="0945"/>
  <outline>
    <contour>
      <point x="-293" y="798" type="curve" smooth="yes" name="hr00"/>
      <point x="-222" y="798"/>
      <point x="-170" y="834"/>
      <point x="-132" y="917" type="curve"/>
      <point x="-148" y="923" type="line"/>
      <point x="-181" y="848"/>
      <point x="-229" y="815"/>
      <point x="-293" y="815" type="curve" smooth="yes"/>
      <point x="-357" y="815"/>
      <point x="-405" y="848"/>
      <point x="-438" y="923" type="curve"/>
      <point x="-454" y="917" type="line"/>
      <point x="-416" y="834"/>
      <point x="-364" y="798"/>
    </contour>
    <contour>
      <point x="-293.0" y="696.0" type="move" name="_center_deva"/>
    </contour>
  </outline>
</glyph>
<glyph name="dvmEshort" format="1">
  <advance width="0"/>
  <unicode hex="0946"/>
  <outline>
    <contour>
      <point x="-166" y="687" type="line" name="hr00"/>
      <point x="-146" y="687" type="line"/>
      <point x="-146" y="831" type="line" smooth="yes"/>
      <point x="-146" y="846"/>
      <point x="-153" y="853"/>
      <point x="-171" y="853" type="curve"/>
      <point x="-324" y="853" type="line" smooth="yes"/>
      <point x="-397" y="853"/>
      <point x="-428" y="870"/>
      <point x="-463" y="918" type="curve"/>
      <point x="-477" y="908" type="line"/>
      <point x="-439" y="856"/>
      <point x="-407" y="834"/>
      <point x="-320" y="834" type="curve" smooth="yes"/>
      <point x="-166" y="834" type="line"/>
    </contour>
    <contour>
      <point x="-145.0" y="696.0" type="move" name="_top_deva"/>
    </contour>
  </outline>
</glyph>
<glyph name="dvmE" format="1">
  <advance width="0"/>
  <unicode hex="0947"/>
  <outline>
    <contour>
      <point x="-162" y="690" type="line" name="hr00"/>
      <point x="-147" y="690" type="line"/>
      <point x="-147" y="696" type="line"/>
      <point x="-269" y="906" type="line" smooth="yes"/>
      <point x="-275" y="917"/>
      <point x="-282" y="923"/>
      <point x="-296" y="923" type="curve" smooth="yes"/>
      <point x="-449" y="923" type="line"/>
      <point x="-449" y="904" type="line"/>
      <point x="-290" y="904" type="line"/>
      <point x="-189" y="735" type="line"/>
    </contour>
    <contour>
      <point x="-145.0" y="696.0" type="move" name="_top_deva"/>
    </contour>
  </outline>
</glyph>
<glyph name="dvmAI" format="1">
  <advance width="0"/>
  <unicode hex="0948"/>
  <outline>
    <contour>
      <point x="-162" y="690" type="line" name="hr00"/>
      <point x="-146" y="690" type="line"/>
      <point x="-146" y="696" type="line"/>
      <point x="-205" y="952" type="line" smooth="yes"/>
      <point x="-208" y="965"/>
      <point x="-214" y="973"/>
      <point x="-230" y="973" type="curve" smooth="yes"/>
      <point x="-316" y="973" type="line"/>
      <point x="-316" y="954" type="line"/>
      <point x="-223" y="954" type="line"/>
      <point x="-183" y="783" type="line"/>
      <point x="-167" y="715" type="line"/>
      <point x="-169" y="713" type="line"/>
      <point x="-199" y="734" type="line"/>
      <point x="-344" y="837" type="line" smooth="yes"/>
      <point x="-356" y="846"/>
      <point x="-361" y="847"/>
      <point x="-379" y="847" type="curve" smooth="yes"/>
      <point x="-474" y="847" type="line"/>
      <point x="-474" y="828" type="line"/>
      <point x="-363" y="828" type="line"/>
      <point x="-208" y="720" type="line"/>
    </contour>
    <contour>
      <point x="-145.0" y="696.0" type="move" name="_top_deva"/>
    </contour>
  </outline>
</glyph>
<glyph name="dvmOshort" format="1">
  <advance width="311"/>
  <unicode hex="094A"/>
  <outline>
    <contour>
      <point x="144" y="0" type="line" name="hr00"/>
      <point x="165" y="0" type="line"/>
      <point x="165" y="679" type="line"/>
      <point x="329" y="679" type="line"/>
      <point x="329" y="698" type="line"/>
      <point x="164" y="698" type="line"/>
      <point x="164" y="831" type="line" smooth="yes"/>
      <point x="164" y="846"/>
      <point x="157" y="853"/>
      <point x="139" y="853" type="curve"/>
      <point x="-14" y="853" type="line" smooth="yes"/>
      <point x="-87" y="853"/>
      <point x="-118" y="870"/>
      <point x="-153" y="918" type="curve"/>
      <point x="-167" y="908" type="line"/>
      <point x="-129" y="856"/>
      <point x="-97" y="834"/>
      <point x="-10" y="834" type="curve" smooth="yes"/>
      <point x="144" y="834" type="line"/>
      <point x="144" y="698" type="line"/>
      <point x="-20" y="698" type="line"/>
      <point x="-20" y="679" type="line"/>
      <point x="144" y="679" type="line"/>
    </contour>
    <contour>
      <point x="155.0" y="696.0" type="move" name="center_deva"/>
    </contour>
    <contour>
      <point x="302.0" y="696.0" type="move" name="top_deva"/>
    </contour>
  </outline>
</glyph>
<glyph name="dvmO" format="1">
  <advance width="309"/>
  <unicode hex="094B"/>
  <outline>
    <contour>
      <point x="144" y="0" type="line" name="hr00"/>
      <point x="165" y="0" type="line"/>
      <point x="165" y="679" type="line"/>
      <point x="329" y="679" type="line"/>
      <point x="329" y="698" type="line"/>
      <point x="164" y="698" type="line"/>
      <point x="43" y="906" type="line" smooth="yes"/>
      <point x="37" y="917"/>
      <point x="30" y="923"/>
      <point x="16" y="923" type="curve" smooth="yes"/>
      <point x="-137" y="923" type="line"/>
      <point x="-137" y="904" type="line"/>
      <point x="22" y="904" type="line"/>
      <point x="123" y="735" type="line"/>
      <point x="145" y="698" type="line"/>
      <point x="-20" y="698" type="line"/>
      <point x="-20" y="679" type="line"/>
      <point x="144" y="679" type="line"/>
    </contour>
    <contour>
      <point x="155.0" y="696.0" type="move" name="center_deva"/>
    </contour>
    <contour>
      <point x="165.0" y="696.0" type="move" name="top_deva"/>
    </contour>
  </outline>
</glyph>
<glyph name="dvmAU" format="1">
  <advance width="309"/>
  <unicode hex="094C"/>
  <outline>
    <contour>
      <point x="144" y="0" type="line" name="hr00"/>
      <point x="165" y="0" type="line"/>
      <point x="165" y="679" type="line"/>
      <point x="329" y="679" type="line"/>
      <point x="329" y="698" type="line"/>
      <point x="165" y="698" type="line"/>
      <point x="106" y="952" type="line" smooth="yes"/>
      <point x="103" y="965"/>
      <point x="97" y="973"/>
      <point x="81" y="973" type="curve" smooth="yes"/>
      <point x="-5" y="973" type="line"/>
      <point x="-5" y="954" type="line"/>
      <point x="88" y="954" type="line"/>
      <point x="128" y="783" type="line"/>
      <point x="144" y="715" type="line"/>
      <point x="142" y="713" type="line"/>
      <point x="112" y="734" type="line"/>
      <point x="-33" y="837" type="line" smooth="yes"/>
      <point x="-45" y="846"/>
      <point x="-50" y="847"/>
      <point x="-68" y="847" type="curve" smooth="yes"/>
      <point x="-163" y="847" type="line"/>
      <point x="-163" y="828" type="line"/>
      <point x="-52" y="828" type="line"/>
      <point x="103" y="720" type="line"/>
      <point x="137" y="698" type="line"/>
      <point x="-20" y="698" type="line"/>
      <point x="-20" y="679" type="line"/>
      <point x="144" y="679" type="line"/>
    </contour>
    <contour>
      <point x="155.0" y="696.0" type="move" name="center_deva"/>
    </contour>
    <contour>
      <point x="165.0" y="696.0" type="move" name="top_deva"/>
    </contour>
  </outline>
</glyph>
<glyph name="dvOm" format="1">
  <advance width="1023"/>
  <unicode hex="0950"/>
  <outline>
    <contour>
      <point x="620" y="743" type="curve" smooth="yes"/>
      <point x="637" y="743"/>
      <point x="644" y="752"/>
      <point x="644" y="766" type="curve" smooth="yes"/>
      <point x="644" y="771" type="line" smooth="yes"/>
      <point x="644" y="785"/>
      <point x="637" y="794"/>
      <point x="620" y="794" type="curve" smooth="yes"/>
      <point x="603" y="794"/>
      <point x="596" y="785"/>
      <point x="596" y="771" type="curve" smooth="yes"/>
      <point x="596" y="766" type="line" smooth="yes"/>
      <point x="596" y="752"/>
      <point x="603" y="743"/>
    </contour>
    <contour>
      <point x="620" y="625" type="curve" smooth="yes"/>
      <point x="691" y="625"/>
      <point x="743" y="661"/>
      <point x="781" y="744" type="curve"/>
      <point x="765" y="750" type="line"/>
      <point x="732" y="675"/>
      <point x="684" y="642"/>
      <point x="620" y="642" type="curve" smooth="yes"/>
      <point x="556" y="642"/>
      <point x="508" y="675"/>
      <point x="475" y="750" type="curve"/>
      <point x="459" y="744" type="line"/>
      <point x="497" y="661"/>
      <point x="549" y="625"/>
    </contour>
    <contour>
      <point x="264" y="66" type="curve" smooth="yes"/>
      <point x="382" y="66"/>
      <point x="443" y="140"/>
      <point x="443" y="236" type="curve" smooth="yes"/>
      <point x="443" y="244" type="line"/>
      <point x="492" y="244" type="line" smooth="yes"/>
      <point x="551" y="244"/>
      <point x="583" y="266"/>
      <point x="627" y="335" type="curve" smooth="yes"/>
      <point x="673" y="408" type="line" smooth="yes"/>
      <point x="723" y="488"/>
      <point x="759" y="510"/>
      <point x="810" y="510" type="curve" smooth="yes"/>
      <point x="898" y="510"/>
      <point x="940" y="441"/>
      <point x="940" y="343" type="curve" smooth="yes"/>
      <point x="940" y="292" type="line" smooth="yes"/>
      <point x="940" y="198"/>
      <point x="897" y="139"/>
      <point x="805" y="139" type="curve" smooth="yes"/>
      <point x="754" y="139"/>
      <point x="722" y="154"/>
      <point x="690" y="184" type="curve"/>
      <point x="678" y="170" type="line"/>
      <point x="719" y="134"/>
      <point x="757" y="121"/>
      <point x="804" y="121" type="curve" smooth="yes"/>
      <point x="900" y="121"/>
      <point x="962" y="174"/>
      <point x="962" y="319" type="curve" smooth="yes"/>
      <point x="962" y="462"/>
      <point x="906" y="529"/>
      <point x="809" y="529" type="curve" smooth="yes"/>
      <point x="746" y="529"/>
      <point x="704" y="494"/>
      <point x="660" y="425" type="curve" smooth="yes"/>
      <point x="609" y="344" type="line" smooth="yes"/>
      <point x="570" y="282"/>
      <point x="542" y="262"/>
      <point x="492" y="262" type="curve" smooth="yes"/>
      <point x="441" y="262" type="line"/>
      <point x="431" y="338"/>
      <point x="373" y="379"/>
      <point x="300" y="390" type="curve"/>
      <point x="300" y="392" type="line"/>
      <point x="379" y="414"/>
      <point x="421" y="462"/>
      <point x="421" y="542" type="curve" smooth="yes"/>
      <point x="421" y="628"/>
      <point x="359" y="687"/>
      <point x="259" y="687" type="curve" smooth="yes"/>
      <point x="187" y="687"/>
      <point x="136" y="654"/>
      <point x="103" y="610" type="curve"/>
      <point x="120" y="597" type="line"/>
      <point x="150" y="639"/>
      <point x="198" y="668"/>
      <point x="260" y="668" type="curve" smooth="yes"/>
      <point x="348" y="668"/>
      <point x="399" y="616"/>
      <point x="399" y="547" type="curve" smooth="yes" name="hr01"/>
      <point x="399" y="535" type="line" smooth="yes"/>
      <point x="399" y="462"/>
      <point x="347" y="400"/>
      <point x="233" y="400" type="curve" smooth="yes"/>
      <point x="165" y="400" type="line"/>
      <point x="165" y="381" type="line"/>
      <point x="234" y="381" type="line" smooth="yes"/>
      <point x="362" y="381"/>
      <point x="421" y="321"/>
      <point x="421" y="246" type="curve" smooth="yes"/>
      <point x="421" y="226" type="line" smooth="yes"/>
      <point x="421" y="152"/>
      <point x="369" y="85"/>
      <point x="264" y="85" type="curve" smooth="yes"/>
      <point x="182" y="85"/>
      <point x="124" y="124"/>
      <point x="85" y="179" type="curve"/>
      <point x="70" y="166" type="line"/>
      <point x="114" y="106"/>
      <point x="176" y="66"/>
    </contour>
  </outline>
</glyph>
<glyph name="dvKHxA" format="1">
  <advance width="914"/>
  <unicode hex="0959"/>
  <outline>
    <component base="dvKHA"/>
    <component base="dvNukta"/>
    <contour>
      <point x="770.0" y="0.0" type="move" name="bottom_deva"/>
    </contour>
    <contour>
      <point x="518.0" y="696.0" type="move" name="center_deva"/>
    </contour>
    <contour>
      <point x="770.0" y="696.0" type="move" name="top_deva"/>
    </contour>
  </outline>
</glyph>
<glyph name="dvGxA" format="1">
  <advance width="612"/>
  <unicode hex="095A"/>
  <outline>
    <component base="dvGA"/>
    <component base="dvNukta" xOffset="50" yOffset="4"/>
    <contour>
      <point x="468.0" y="0.0" type="move" name="bottom_deva"/>
    </contour>
    <contour>
      <point x="313.0" y="696.0" type="move" name="center_deva"/>
    </contour>
    <contour>
      <point x="468.0" y="696.0" type="move" name="top_deva"/>
    </contour>
  </outline>
</glyph>
<glyph name="dvJxA" format="1">
  <advance width="831"/>
  <unicode hex="095B"/>
  <outline>
    <component base="dvJA"/>
    <component base="dvNukta" xOffset="176" yOffset="-50"/>
    <contour>
      <point x="687.0" y="0.0" type="move" name="bottom_deva"/>
    </contour>
    <contour>
      <point x="503.0" y="696.0" type="move" name="center_deva"/>
    </contour>
    <contour>
      <point x="687.0" y="696.0" type="move" name="top_deva"/>
    </contour>
  </outline>
</glyph>
<glyph name="dvDDxA" format="1">
  <advance width="556"/>
  <unicode hex="095C"/>
  <outline>
    <component base="dvDDA"/>
    <component base="dvNukta" xOffset="170" yOffset="-93"/>
    <contour>
      <point x="294.0" y="-163.0" type="move" name="bottom_deva"/>
    </contour>
    <contour>
      <point x="333.0" y="696.0" type="move" name="center_deva"/>
    </contour>
    <contour>
      <point x="423.0" y="696.0" type="move" name="top_deva"/>
    </contour>
  </outline>
</glyph>
<glyph name="dvvLL" format="1">
  <advance width="820"/>
  <unicode hex="0961"/>
  <outline>
    <contour>
      <point x="645" y="-141" type="curve" smooth="yes"/>
      <point x="701" y="-141" type="line"/>
      <point x="701" y="-125" type="line"/>
      <point x="645" y="-125" type="line" smooth="yes"/>
      <point x="587" y="-125"/>
      <point x="561" y="-98"/>
      <point x="561" y="-60" type="curve" smooth="yes"/>
      <point x="561" y="-17"/>
      <point x="589" y="16"/>
      <point x="664" y="16" type="curve" smooth="yes"/>
      <point x="691" y="16" type="line"/>
      <point x="691" y="35" type="line"/>
      <point x="660" y="35" type="line" smooth="yes"/>
      <point x="589" y="35"/>
      <point x="556" y="62"/>
      <point x="556" y="106" type="curve" smooth="yes" name="hr01"/>
      <point x="556" y="145"/>
      <point x="573" y="166"/>
      <point x="629" y="195" type="curve" smooth="yes"/>
      <point x="693" y="228"/>
      <point x="711" y="268"/>
      <point x="711" y="328" type="curve" smooth="yes"/>
      <point x="711" y="428"/>
      <point x="650" y="479"/>
      <point x="584" y="485" type="curve"/>
      <point x="584" y="679" type="line"/>
      <point x="840" y="679" type="line"/>
      <point x="840" y="698" type="line"/>
      <point x="-20" y="698" type="line"/>
      <point x="-20" y="679" type="line"/>
      <point x="565" y="679" type="line"/>
      <point x="565" y="486" type="line"/>
      <point x="478" y="486"/>
      <point x="426" y="428"/>
      <point x="413" y="351" type="curve"/>
      <point x="410" y="351" type="line"/>
      <point x="395" y="431"/>
      <point x="344" y="484"/>
      <point x="255" y="484" type="curve" smooth="yes"/>
      <point x="173" y="484"/>
      <point x="106" y="423"/>
      <point x="106" y="288" type="curve" smooth="yes"/>
      <point x="106" y="140"/>
      <point x="187" y="77"/>
      <point x="315" y="46" type="curve"/>
      <point x="320" y="64" type="line"/>
      <point x="199" y="90"/>
      <point x="128" y="163"/>
      <point x="128" y="266" type="curve" smooth="yes"/>
      <point x="128" y="289" type="line" smooth="yes"/>
      <point x="128" y="412"/>
      <point x="185" y="464"/>
      <point x="259" y="464" type="curve" smooth="yes"/>
      <point x="335" y="464"/>
      <point x="401" y="406"/>
      <point x="401" y="287" type="curve" smooth="yes"/>
      <point x="401" y="216" type="line"/>
      <point x="422" y="216" type="line"/>
      <point x="422" y="288" type="line" smooth="yes"/>
      <point x="422" y="406"/>
      <point x="489" y="466"/>
      <point x="566" y="466" type="curve" smooth="yes"/>
      <point x="630" y="466"/>
      <point x="690" y="424"/>
      <point x="690" y="329" type="curve" smooth="yes"/>
      <point x="690" y="275"/>
      <point x="679" y="241"/>
      <point x="626" y="214" type="curve" smooth="yes"/>
      <point x="562" y="181"/>
      <point x="536" y="152"/>
      <point x="536" y="106" type="curve" smooth="yes"/>
      <point x="536" y="65"/>
      <point x="561" y="36"/>
      <point x="613" y="26" type="curve"/>
      <point x="613" y="24" type="line"/>
      <point x="573" y="13"/>
      <point x="542" y="-12"/>
      <point x="542" y="-61" type="curve" smooth="yes" name="hr02"/>
      <point x="542" y="-111"/>
      <point x="581" y="-141"/>
    </contour>
    <contour>
      <point x="421.0" y="696.0" type="move" name="center_deva"/>
    </contour>
    <contour>
      <point x="584.0" y="696.0" type="move" name="top_deva"/>
    </contour>
  </outline>
</glyph>
<glyph name="danda" format="1">
  <advance width="447"/>
  <unicode hex="0964"/>
  <outline>
    <contour>
      <point x="285" y="0" type="line" name="hr00"/>
      <point x="307" y="0" type="line"/>
      <point x="307" y="698" type="line"/>
      <point x="285" y="698" type="line"/>
    </contour>
  </outline>
</glyph>
<glyph name="dvZero" format="1">
  <advance width="588"/>
  <unicode hex="0966"/>
  <outline>
    <contour>
      <point x="294" y="86" type="curve" smooth="yes" name="hr00"/>
      <point x="423" y="86"/>
      <point x="504" y="185"/>
      <point x="504" y="353" type="curve" smooth="yes"/>
      <point x="504" y="521"/>
      <point x="423" y="620"/>
      <point x="294" y="620" type="curve" smooth="yes"/>
      <point x="165" y="620"/>
      <point x="84" y="521"/>
      <point x="84" y="353" type="curve" smooth="yes"/>
      <point x="84" y="185"/>
      <point x="165" y="86"/>
    </contour>
    <contour>
      <point x="294" y="106" type="curve" smooth="yes"/>
      <point x="178" y="106"/>
      <point x="108" y="204"/>
      <point x="108" y="326" type="curve" smooth="yes"/>
      <point x="108" y="380" type="line" smooth="yes"/>
      <point x="108" y="502"/>
      <point x="178" y="600"/>
      <point x="294" y="600" type="curve" smooth="yes"/>
      <point x="410" y="600"/>
      <point x="480" y="502"/>
      <point x="480" y="380" type="curve" smooth="yes"/>
      <point x="480" y="326" type="line" smooth="yes"/>
      <point x="480" y="204"/>
      <point x="410" y="106"/>
    </contour>
  </outline>
</glyph>
<glyph name="dvOne" format="1">
  <advance width="464"/>
  <unicode hex="0967"/>
  <outline>
    <contour>
      <point x="356" y="-8" type="line" name="hr00"/>
      <point x="370" y="8" type="line"/>
      <point x="138" y="200" type="line"/>
      <point x="342" y="428" type="line" smooth="yes"/>
      <point x="383" y="473"/>
      <point x="400" y="507"/>
      <point x="400" y="564" type="curve" smooth="yes"/>
      <point x="400" y="650"/>
      <point x="339" y="710"/>
      <point x="246" y="710" type="curve" smooth="yes"/>
      <point x="155" y="710"/>
      <point x="94" y="650"/>
      <point x="94" y="560" type="curve" smooth="yes"/>
      <point x="94" y="463"/>
      <point x="159" y="412"/>
      <point x="247" y="412" type="curve" smooth="yes"/>
      <point x="270" y="412"/>
      <point x="297" y="417"/>
      <point x="310" y="423" type="curve"/>
      <point x="311" y="421" type="line"/>
      <point x="112" y="203" type="line"/>
      <point x="112" y="195" type="line"/>
    </contour>
    <contour>
      <point x="251" y="430" type="curve" smooth="yes"/>
      <point x="170" y="430"/>
      <point x="117" y="476"/>
      <point x="117" y="554" type="curve" smooth="yes"/>
      <point x="117" y="568" type="line" smooth="yes"/>
      <point x="117" y="637"/>
      <point x="165" y="691"/>
      <point x="247" y="691" type="curve" smooth="yes"/>
      <point x="329" y="691"/>
      <point x="378" y="637"/>
      <point x="378" y="570" type="curve" smooth="yes"/>
      <point x="378" y="555" type="line" smooth="yes"/>
      <point x="378" y="489"/>
      <point x="334" y="430"/>
    </contour>
  </outline>
</glyph>
<glyph name="dvThree" format="1">
  <advance width="512"/>
  <unicode hex="0969"/>
  <outline>
    <contour>
      <point x="178" y="-60" type="line" name="hr00"/>
      <point x="196" y="-55" type="line"/>
      <point x="159" y="54" type="line"/>
      <point x="153" y="71" type="line"/>
      <point x="154" y="72" type="line"/>
      <point x="180" y="66"/>
      <point x="204" y="63"/>
      <point x="234" y="63" type="curve" smooth="yes"/>
      <point x="357" y="63"/>
      <point x="423" y="128"/>
      <point x="423" y="236" type="curve" smooth="yes"/>
      <point x="423" y="330"/>
      <point x="359" y="384"/>
      <point x="278" y="396" type="curve"/>
      <point x="278" y="398" type="line"/>
      <point x="357" y="418"/>
      <point x="399" y="471"/>
      <point x="399" y="551" type="curve" smooth="yes"/>
      <point x="399" y="641"/>
      <point x="337" y="700"/>
      <point x="237" y="700" type="curve" smooth="yes"/>
      <point x="181" y="700"/>
      <point x="139" y="683"/>
      <point x="101" y="654" type="curve"/>
      <point x="114" y="638" type="line"/>
      <point x="148" y="664"/>
      <point x="184" y="681"/>
      <point x="237" y="681" type="curve" smooth="yes"/>
      <point x="326" y="681"/>
      <point x="378" y="628"/>
      <point x="378" y="560" type="curve" smooth="yes"/>
      <point x="378" y="544" type="line" smooth="yes"/>
      <point x="378" y="471"/>
      <point x="324" y="406"/>
      <point x="211" y="406" type="curve" smooth="yes"/>
      <point x="143" y="406" type="line"/>
      <point x="143" y="386" type="line"/>
      <point x="212" y="386" type="line" smooth="yes"/>
      <point x="340" y="386"/>
      <point x="401" y="321"/>
      <point x="401" y="246" type="curve" smooth="yes"/>
      <point x="401" y="226" type="line" smooth="yes"/>
      <point x="401" y="140"/>
      <point x="343" y="82"/>
      <point x="234" y="82" type="curve" smooth="yes"/>
      <point x="200" y="82"/>
      <point x="175" y="84"/>
      <point x="146" y="93" type="curve"/>
      <point x="130" y="140" type="line"/>
      <point x="128" y="141"/>
      <point x="122" y="142"/>
      <point x="117" y="142" type="curve" smooth="yes"/>
      <point x="101" y="142"/>
      <point x="89" y="131"/>
      <point x="89" y="114" type="curve" smooth="yes"/>
      <point x="89" y="96"/>
      <point x="104" y="83"/>
      <point x="133" y="75" type="curve"/>
      <point x="140" y="53" type="line"/>
    </contour>
  </outline>
</glyph>
<glyph name="dvFour" format="1">
  <advance width="566"/>
  <unicode hex="096A"/>
  <outline>
    <contour>
      <point x="283" y="-3" type="curve" smooth="yes" name="hr00"/>
      <point x="383" y="-3"/>
      <point x="437" y="66"/>
      <point x="437" y="142" type="curve" smooth="yes"/>
      <point x="437" y="208"/>
      <point x="412" y="254"/>
      <point x="349" y="336" type="curve" smooth="yes"/>
      <point x="296" y="405" type="line"/>
      <point x="504" y="674" type="line"/>
      <point x="489" y="686" type="line"/>
      <point x="283" y="421" type="line"/>
      <point x="77" y="686" type="line"/>
      <point x="62" y="674" type="line"/>
      <point x="270" y="405" type="line"/>
      <point x="217" y="336" type="line" smooth="yes"/>
      <point x="154" y="254"/>
      <point x="129" y="208"/>
      <point x="129" y="142" type="curve" smooth="yes"/>
      <point x="129" y="66"/>
      <point x="183" y="-3"/>
    </contour>
    <contour>
      <point x="152" y="133" type="curve" smooth="yes"/>
      <point x="152" y="151" type="line" smooth="yes"/>
      <point x="152" y="201"/>
      <point x="172" y="245"/>
      <point x="232" y="322" type="curve" smooth="yes"/>
      <point x="283" y="388" type="line"/>
      <point x="334" y="322" type="line" smooth="yes"/>
      <point x="394" y="245"/>
      <point x="414" y="201"/>
      <point x="414" y="151" type="curve" smooth="yes"/>
      <point x="414" y="133" type="line" smooth="yes"/>
      <point x="414" y="79"/>
      <point x="370" y="16"/>
      <point x="283" y="16" type="curve" smooth="yes"/>
      <point x="196" y="16"/>
      <point x="152" y="79"/>
    </contour>
  </outline>
</glyph>
<glyph name="dvFive" format="1">
  <advance width="589"/>
  <unicode hex="096B"/>
  <outline>
    <contour>
      <point x="526" y="-35" type="line" name="hr00"/>
      <point x="545" y="-29" type="line"/>
      <point x="471" y="211" type="line"/>
      <point x="464" y="230" type="line"/>
      <point x="478" y="239"/>
      <point x="482" y="247"/>
      <point x="482" y="259" type="curve" smooth="yes"/>
      <point x="482" y="278"/>
      <point x="470" y="302"/>
      <point x="449" y="302" type="curve" smooth="yes"/>
      <point x="438" y="302"/>
      <point x="426" y="298"/>
      <point x="420" y="293" type="curve"/>
      <point x="438" y="241" type="line"/>
      <point x="413" y="230"/>
      <point x="369" y="220"/>
      <point x="308" y="220" type="curve" smooth="yes"/>
      <point x="183" y="220"/>
      <point x="122" y="303"/>
      <point x="122" y="399" type="curve" smooth="yes"/>
      <point x="122" y="423" type="line" smooth="yes"/>
      <point x="122" y="537"/>
      <point x="216" y="634"/>
      <point x="386" y="665" type="curve"/>
      <point x="381" y="685" type="line"/>
      <point x="204" y="652"/>
      <point x="99" y="553"/>
      <point x="99" y="410" type="curve" smooth="yes"/>
      <point x="99" y="288"/>
      <point x="174" y="200"/>
      <point x="309" y="200" type="curve" smooth="yes"/>
      <point x="372" y="200"/>
      <point x="412" y="209"/>
      <point x="447" y="222" type="curve"/>
      <point x="453" y="205" type="line"/>
    </contour>
  </outline>
</glyph>
<glyph name="dvSix" format="1">
  <advance width="536"/>
  <unicode hex="096C"/>
  <outline>
    <contour>
      <point x="450" y="-47" type="line"/>
      <point x="467" y="-41" type="line"/>
      <point x="428" y="72" type="line"/>
      <point x="422" y="88" type="line"/>
      <point x="434" y="95"/>
      <point x="440" y="104"/>
      <point x="440" y="117" type="curve" smooth="yes"/>
      <point x="440" y="138"/>
      <point x="427" y="154"/>
      <point x="409" y="154" type="curve" smooth="yes"/>
      <point x="398" y="154"/>
      <point x="389" y="150"/>
      <point x="383" y="145" type="curve"/>
      <point x="400" y="98" type="line"/>
      <point x="379" y="88"/>
      <point x="337" y="75"/>
      <point x="289" y="75" type="curve" smooth="yes"/>
      <point x="180" y="75"/>
      <point x="121" y="138"/>
      <point x="121" y="216" type="curve" smooth="yes"/>
      <point x="121" y="238" type="line" smooth="yes"/>
      <point x="121" y="311"/>
      <point x="183" y="388"/>
      <point x="306" y="388" type="curve" smooth="yes"/>
      <point x="376" y="388" type="line"/>
      <point x="376" y="409" type="line"/>
      <point x="307" y="409" type="line" smooth="yes"/>
      <point x="198" y="409"/>
      <point x="139" y="470"/>
      <point x="139" y="542" type="curve" smooth="yes" name="hr01"/>
      <point x="139" y="560" type="line" smooth="yes"/>
      <point x="139" y="624"/>
      <point x="197" y="680"/>
      <point x="275" y="680" type="curve" smooth="yes"/>
      <point x="329" y="680"/>
      <point x="368" y="666"/>
      <point x="410" y="636" type="curve"/>
      <point x="420" y="652" type="line"/>
      <point x="374" y="684"/>
      <point x="332" y="698"/>
      <point x="275" y="698" type="curve" smooth="yes"/>
      <point x="185" y="698"/>
      <point x="117" y="637"/>
      <point x="117" y="551" type="curve" smooth="yes"/>
      <point x="117" y="474"/>
      <point x="162" y="423"/>
      <point x="241" y="400" type="curve"/>
      <point x="241" y="398" type="line"/>
      <point x="160" y="386"/>
      <point x="99" y="320"/>
      <point x="99" y="228" type="curve" smooth="yes" name="hr02"/>
      <point x="99" y="124"/>
      <point x="168" y="58"/>
      <point x="289" y="58" type="curve" smooth="yes"/>
      <point x="338" y="58"/>
      <point x="376" y="69"/>
      <point x="407" y="81" type="curve"/>
      <point x="412" y="64" type="line"/>
    </contour>
  </outline>
</glyph>
<glyph name="dvSeven" format="1">
  <advance width="634"/>
  <unicode hex="096D"/>
  <outline>
    <contour>
      <point x="328" y="6" type="curve" smooth="yes" name="hr00"/>
      <point x="474" y="6"/>
      <point x="550" y="108"/>
      <point x="550" y="304" type="curve" smooth="yes"/>
      <point x="550" y="401"/>
      <point x="500" y="449"/>
      <point x="425" y="449" type="curve" smooth="yes"/>
      <point x="347" y="449"/>
      <point x="300" y="394"/>
      <point x="300" y="308" type="curve" smooth="yes"/>
      <point x="300" y="206"/>
      <point x="352" y="162"/>
      <point x="420" y="162" type="curve" smooth="yes"/>
      <point x="473" y="162"/>
      <point x="507" y="188"/>
      <point x="524" y="221" type="curve"/>
      <point x="526" y="221" type="line"/>
      <point x="511" y="95"/>
      <point x="442" y="25"/>
      <point x="328" y="25" type="curve" smooth="yes"/>
      <point x="193" y="25"/>
      <point x="120" y="109"/>
      <point x="120" y="285" type="curve" smooth="yes"/>
      <point x="120" y="428"/>
      <point x="153" y="535"/>
      <point x="211" y="676" type="curve"/>
      <point x="195" y="683" type="line"/>
      <point x="139" y="553"/>
      <point x="99" y="431"/>
      <point x="99" y="293" type="curve" smooth="yes"/>
      <point x="99" y="91"/>
      <point x="190" y="6"/>
    </contour>
    <contour>
      <point x="323" y="290" type="curve" smooth="yes"/>
      <point x="323" y="326" type="line" smooth="yes"/>
      <point x="323" y="383"/>
      <point x="362" y="430"/>
      <point x="426" y="430" type="curve" smooth="yes"/>
      <point x="491" y="430"/>
      <point x="529" y="384"/>
      <point x="529" y="312" type="curve" smooth="yes"/>
      <point x="529" y="304" type="line"/>
      <point x="529" y="219"/>
      <point x="478" y="181"/>
      <point x="422" y="181" type="curve" smooth="yes"/>
      <point x="361" y="181"/>
      <point x="323" y="221"/>
    </contour>
  </outline>
</glyph>
<glyph name="dvEight" format="1">
  <advance width="499"/>
  <unicode hex="096E"/>
  <outline>
    <contour>
      <point x="283" y="6" type="curve" smooth="yes" name="hr00"/>
      <point x="346" y="6"/>
      <point x="399" y="21"/>
      <point x="455" y="56" type="curve"/>
      <point x="445" y="74" type="line"/>
      <point x="391" y="41"/>
      <point x="344" y="26"/>
      <point x="283" y="26" type="curve" smooth="yes"/>
      <point x="178" y="26"/>
      <point x="108" y="88"/>
      <point x="108" y="184" type="curve" smooth="yes"/>
      <point x="108" y="205" type="line" smooth="yes"/>
      <point x="108" y="284"/>
      <point x="150" y="348"/>
      <point x="234" y="441" type="curve" smooth="yes"/>
      <point x="438" y="667" type="line"/>
      <point x="423" y="682" type="line"/>
      <point x="218" y="456" type="line" smooth="yes"/>
      <point x="131" y="360"/>
      <point x="84" y="289"/>
      <point x="84" y="194" type="curve" smooth="yes"/>
      <point x="84" y="76"/>
      <point x="166" y="6"/>
    </contour>
  </outline>
</glyph>
<glyph name="dvNine" format="1">
  <advance width="476"/>
  <unicode hex="096F"/>
  <outline>
    <contour>
      <point x="381" y="0" type="line" name="hr00"/>
      <point x="402" y="0" type="line"/>
      <point x="402" y="138" type="line" smooth="yes"/>
      <point x="402" y="153"/>
      <point x="399" y="158"/>
      <point x="391" y="167" type="curve" smooth="yes"/>
      <point x="157" y="419" type="line"/>
      <point x="158" y="421" type="line"/>
      <point x="179" y="413"/>
      <point x="199" y="410"/>
      <point x="218" y="410" type="curve" smooth="yes"/>
      <point x="312" y="410"/>
      <point x="368" y="471"/>
      <point x="368" y="557" type="curve" smooth="yes"/>
      <point x="368" y="645"/>
      <point x="306" y="708"/>
      <point x="211" y="708" type="curve" smooth="yes"/>
      <point x="116" y="708"/>
      <point x="64" y="640"/>
      <point x="64" y="562" type="curve" smooth="yes"/>
      <point x="64" y="508"/>
      <point x="84" y="472"/>
      <point x="131" y="421" type="curve" smooth="yes"/>
      <point x="381" y="147" type="line"/>
    </contour>
    <contour>
      <point x="218" y="428" type="curve" smooth="yes"/>
      <point x="130" y="428"/>
      <point x="86" y="492"/>
      <point x="86" y="553" type="curve" smooth="yes"/>
      <point x="86" y="568" type="line" smooth="yes"/>
      <point x="86" y="630"/>
      <point x="131" y="690"/>
      <point x="212" y="690" type="curve" smooth="yes"/>
      <point x="293" y="690"/>
      <point x="346" y="634"/>
      <point x="346" y="564" type="curve" smooth="yes"/>
      <point x="346" y="550" type="line" smooth="yes"/>
      <point x="346" y="477"/>
      <point x="299" y="428"/>
    </contour>
  </outline>
</glyph>
<glyph name="dvAcandra" format="1">
  <advance width="809"/>
  <unicode hex="0972"/>
  <outline>
    <component base="dvA"/>
    <component base="dvmEcandra" xOffset="968"/>
    <contour>
      <point x="668.0" y="696.0" type="move" name="center_deva"/>
    </contour>
    <contour>
      <point x="681.0" y="757.0" type="move" name="top_deva"/>
    </contour>
  </outline>
</glyph>
<glyph name="Germandbls" format="1">
  <advance width="680"/>
  <unicode hex="1E9E"/>
  <outline>
    <contour>
      <point x="625" y="192" type="curve" smooth="yes"/>
      <point x="625" y="329"/>
      <point x="549" y="398"/>
      <point x="386" y="398" type="curve"/>
      <point x="386" y="402" type="line"/>
      <point x="579" y="676" type="line"/>
      <point x="579" y="698" type="line"/>
      <point x="108" y="698" type="line"/>
      <point x="108" y="0" type="line"/>
      <point x="130" y="0" type="line"/>
      <point x="130" y="678" type="line"/>
      <point x="556" y="678" type="line"/>
      <point x="360" y="399" type="line"/>
      <point x="360" y="379" type="line"/>
      <point x="385" y="379" type="line" smooth="yes"/>
      <point x="536" y="379"/>
      <point x="601" y="317"/>
      <point x="601" y="211" type="curve" smooth="yes"/>
      <point x="601" y="169" type="line" smooth="yes"/>
      <point x="601" y="61"/>
      <point x="527" y="8"/>
      <point x="429" y="8" type="curve" smooth="yes" name="hr01"/>
      <point x="345" y="8"/>
      <point x="297" y="42"/>
      <point x="259" y="92" type="curve"/>
      <point x="241" y="79" type="line"/>
      <point x="280" y="26"/>
      <point x="336" y="-12"/>
      <point x="429" y="-12" type="curve" smooth="yes"/>
      <point x="546" y="-12"/>
      <point x="625" y="55"/>
    </contour>
  </outline>
</glyph>
<glyph name="eightsuperior" format="1">
  <advance width="396"/>
  <unicode hex="2078"/>
  <outline>
    <contour>
      <point x="198" y="323" type="curve" smooth="yes"/>
      <point x="289" y="323"/>
      <point x="335" y="364"/>
      <point x="335" y="426" type="curve" smooth="yes"/>
      <point x="335" y="480"/>
      <point x="300" y="507"/>
      <point x="248" y="518" type="curve"/>
      <point x="248" y="521" type="line"/>
      <point x="303" y="535"/>
      <point x="321" y="573"/>
      <point x="321" y="610" type="curve" smooth="yes" name="hr01"/>
      <point x="321" y="669"/>
      <point x="275" y="704"/>
      <point x="198" y="704" type="curve" smooth="yes"/>
      <point x="121" y="704"/>
      <point x="75" y="669"/>
      <point x="75" y="610" type="curve" smooth="yes"/>
      <point x="75" y="573"/>
      <point x="93" y="535"/>
      <point x="148" y="521" type="curve"/>
      <point x="148" y="518" type="line"/>
      <point x="96" y="507"/>
      <point x="61" y="480"/>
      <point x="61" y="426" type="curve" smooth="yes" name="hr02"/>
      <point x="61" y="364"/>
      <point x="107" y="323"/>
    </contour>
    <contour>
      <point x="198" y="528" type="curve" smooth="yes"/>
      <point x="127" y="528"/>
      <point x="95" y="558"/>
      <point x="95" y="604" type="curve" smooth="yes" name="hr03"/>
      <point x="95" y="611" type="line" smooth="yes"/>
      <point x="95" y="657"/>
      <point x="127" y="687"/>
      <point x="198" y="687" type="curve" smooth="yes"/>
      <point x="269" y="687"/>
      <point x="301" y="657"/>
      <point x="301" y="611" type="curve" smooth="yes"/>
      <point x="301" y="604" type="line" smooth="yes"/>
      <point x="301" y="558"/>
      <point x="269" y="528"/>
    </contour>
    <contour>
      <point x="198" y="340" type="curve" smooth="yes"/>
      <point x="122" y="340"/>
      <point x="81" y="370"/>
      <point x="81" y="421" type="curve" smooth="yes" name="hr04"/>
      <point x="81" y="430" type="line" smooth="yes"/>
      <point x="81" y="481"/>
      <point x="122" y="511"/>
      <point x="198" y="511" type="curve" smooth="yes"/>
      <point x="274" y="511"/>
      <point x="315" y="481"/>
      <point x="315" y="430" type="curve" smooth="yes"/>
      <point x="315" y="421" type="line" smooth="yes"/>
      <point x="315" y="370"/>
      <point x="274" y="340"/>
    </contour>
  </outline>
</glyph>
<glyph name="rupeeindian" format="1">
  <advance width="652"/>
  <unicode hex="20B9"/>
  <outline>
    <contour>
      <point x="410" y="0" type="line" name="hr00"/>
      <point x="424" y="13" type="line"/>
      <point x="139" y="295" type="line"/>
      <point x="139" y="298" type="line"/>
      <point x="228" y="298" type="line" smooth="yes"/>
      <point x="377" y="298"/>
      <point x="451" y="355"/>
      <point x="454" y="483" type="curve"/>
      <point x="562" y="483" type="line"/>
      <point x="562" y="501" type="line"/>
      <point x="454" y="501" type="line"/>
      <point x="454" y="606"/>
      <point x="392" y="658"/>
      <point x="329" y="679" type="curve"/>
      <point x="329" y="681" type="line"/>
      <point x="562" y="681" type="line"/>
      <point x="562" y="698" type="line"/>
      <point x="90" y="698" type="line"/>
      <point x="90" y="681" type="line"/>
      <point x="233" y="681" type="line" smooth="yes"/>
      <point x="351" y="681"/>
      <point x="433" y="615"/>
      <point x="433" y="504" type="curve" smooth="yes"/>
      <point x="433" y="501" type="line"/>
      <point x="90" y="501" type="line"/>
      <point x="90" y="483" type="line"/>
      <point x="433" y="483" type="line" smooth="yes"/>
      <point x="433" y="372"/>
      <point x="370" y="315"/>
      <point x="230" y="315" type="curve" smooth="yes"/>
      <point x="110" y="315" type="line"/>
      <point x="110" y="300" type="line"/>
    </contour>
  </outline>
</glyph>
<glyph name="radical" format="1">
  <advance width="600"/>
  <unicode hex="221A"/>
  <outline>
    <contour>
      <point x="316" y="0" type="line" name="hr00"/>
      <point x="535" y="698" type="line"/>
      <point x="514" y="698" type="line"/>
      <point x="305" y="27" type="line"/>
      <point x="302" y="27" type="line"/>
      <point x="165" y="506" type="line"/>
      <point x="28" y="506" type="line"/>
      <point x="28" y="487" type="line"/>
      <point x="149" y="487" type="line"/>
      <point x="289" y="0" type="line"/>
    </contour>
  </outline>
</glyph>
<glyph name="lessequal" format="1">
  <advance width="600"/>
  <unicode hex="2264"/>
  <outline>
    <contour>
      <point x="515" y="0" type="line" name="hr00"/>
      <point x="515" y="19" type="line"/>
      <point x="85" y="19" type="line"/>
      <point x="85" y="0" type="line"/>
    </contour>
    <contour>
      <point x="515" y="592" type="line"/>
      <point x="85" y="354" type="line"/>
      <point x="85" y="336" type="line"/>
      <point x="515" y="98" type="line"/>
      <point x="515" y="120" type="line"/>
      <point x="107" y="344" type="line"/>
      <point x="107" y="346" type="line"/>
      <point x="515" y="570" type="line"/>
    </contour>
  </outline>
</glyph>
<glyph name="dottedcircle" format="1">
  <advance width="654"/>
  <unicode hex="25CC"/>
  <outline>
    <contour>
      <point x="327" y="568" type="curve" smooth="yes" name="hr00"/>
      <point x="339" y="568"/>
      <point x="349" y="578"/>
      <point x="349" y="590" type="curve" smooth="yes"/>
      <point x="349" y="602"/>
      <point x="339" y="612"/>
      <point x="327" y="612" type="curve" smooth="yes"/>
      <point x="315" y="612"/>
      <point x="305" y="602"/>
      <point x="305" y="590" type="curve" smooth="yes"/>
      <point x="305" y="578"/>
      <point x="315" y="568"/>
    </contour>
    <contour>
      <point x="198" y="533" type="curve" smooth="yes"/>
      <point x="210" y="533"/>
      <point x="220" y="543"/>
      <point x="220" y="555" type="curve" smooth="yes"/>
      <point x="220" y="567"/>
      <point x="210" y="577"/>
      <point x="198" y="577" type="curve" smooth="yes"/>
      <point x="186" y="577"/>
      <point x="176" y="567"/>
      <point x="176" y="555" type="curve" smooth="yes"/>
      <point x="176" y="543"/>
      <point x="186" y="533"/>
    </contour>
    <contour>
      <point x="456" y="533" type="curve" smooth="yes"/>
      <point x="468" y="533"/>
      <point x="478" y="543"/>
      <point x="478" y="555" type="curve" smooth="yes"/>
      <point x="478" y="567"/>
      <point x="468" y="577"/>
      <point x="456" y="577" type="curve" smooth="yes"/>
      <point x="444" y="577"/>
      <point x="434" y="567"/>
      <point x="434" y="555" type="curve" smooth="yes"/>
      <point x="434" y="543"/>
      <point x="444" y="533"/>
    </contour>
    <contour>
      <point x="111" y="439" type="curve" smooth="yes"/>
      <point x="123" y="439"/>
      <point x="133" y="449"/>
      <point x="133" y="461" type="curve" smooth="yes"/>
      <point x="133" y="473"/>
      <point x="123" y="483"/>
      <point x="111" y="483" type="curve" smooth="yes"/>
      <point x="99" y="483"/>
      <point x="89" y="473"/>
      <point x="89" y="461" type="curve" smooth="yes"/>
      <point x="89" y="449"/>
      <point x="99" y="439"/>
    </contour>
    <contour>
      <point x="543" y="439" type="curve" smooth="yes"/>
      <point x="555" y="439"/>
      <point x="565" y="449"/>
      <point x="565" y="461" type="curve" smooth="yes"/>
      <point x="565" y="473"/>
      <point x="555" y="483"/>
      <point x="543" y="483" type="curve" smooth="yes"/>
      <point x="531" y="483"/>
      <point x="521" y="473"/>
      <point x="521" y="461" type="curve" smooth="yes"/>
      <point x="521" y="449"/>
      <point x="531" y="439"/>
    </contour>
    <contour>
      <point x="80" y="321" type="curve" smooth="yes"/>
      <point x="92" y="321"/>
      <point x="102" y="331"/>
      <point x="102" y="343" type="curve" smooth="yes"/>
      <point x="102" y="355"/>
      <point x="92" y="365"/>
      <point x="80" y="365" type="curve" smooth="yes"/>
      <point x="68" y="365"/>
      <point x="58" y="355"/>
      <point x="58" y="343" type="curve" smooth="yes"/>
      <point x="58" y="331"/>
      <point x="68" y="321"/>
    </contour>
    <contour>
      <point x="574" y="321" type="curve" smooth="yes"/>
      <point x="586" y="321"/>
      <point x="596" y="331"/>
      <point x="596" y="343" type="curve" smooth="yes"/>
      <point x="596" y="355"/>
      <point x="586" y="365"/>
      <point x="574" y="365" type="curve" smooth="yes"/>
      <point x="562" y="365"/>
      <point x="552" y="355"/>
      <point x="552" y="343" type="curve" smooth="yes"/>
      <point x="552" y="331"/>
      <point x="562" y="321"/>
    </contour>
    <contour>
      <point x="111" y="203" type="curve" smooth="yes"/>
      <point x="123" y="203"/>
      <point x="133" y="213"/>
      <point x="133" y="225" type="curve" smooth="yes"/>
      <point x="133" y="237"/>
      <point x="123" y="247"/>
      <point x="111" y="247" type="curve" smooth="yes"/>
      <point x="99" y="247"/>
      <point x="89" y="237"/>
      <point x="89" y="225" type="curve" smooth="yes"/>
      <point x="89" y="213"/>
      <point x="99" y="203"/>
    </contour>
    <contour>
      <point x="543" y="203" type="curve" smooth="yes"/>
      <point x="555" y="203"/>
      <point x="565" y="213"/>
      <point x="565" y="225" type="curve" smooth="yes"/>
      <point x="565" y="237"/>
      <point x="555" y="247"/>
      <point x="543" y="247" type="curve" smooth="yes"/>
      <point x="531" y="247"/>
      <point x="521" y="237"/>
      <point x="521" y="225" type="curve" smooth="yes"/>
      <point x="521" y="213"/>
      <point x="531" y="203"/>
    </contour>
    <contour>
      <point x="198" y="109" type="curve" smooth="yes"/>
      <point x="210" y="109"/>
      <point x="220" y="119"/>
      <point x="220" y="131" type="curve" smooth="yes"/>
      <point x="220" y="143"/>
      <point x="210" y="153"/>
      <point x="198" y="153" type="curve" smooth="yes"/>
      <point x="186" y="153"/>
      <point x="176" y="143"/>
      <point x="176" y="131" type="curve" smooth="yes"/>
      <point x="176" y="119"/>
      <point x="186" y="109"/>
    </contour>
    <contour>
      <point x="456" y="109" type="curve" smooth="yes"/>
      <point x="468" y="109"/>
      <point x="478" y="119"/>
      <point x="478" y="131" type="curve" smooth="yes"/>
      <point x="478" y="143"/>
      <point x="468" y="153"/>
      <point x="456" y="153" type="curve" smooth="yes"/>
      <point x="444" y="153"/>
      <point x="434" y="143"/>
      <point x="434" y="131" type="curve" smooth="yes"/>
      <point x="434" y="119"/>
      <point x="444" y="109"/>
    </contour>
    <contour>
      <point x="327" y="74" type="curve" smooth="yes"/>
      <point x="339" y="74"/>
      <point x="349" y="84"/>
      <point x="349" y="96" type="curve" smooth="yes"/>
      <point x="349" y="108"/>
      <point x="339" y="118"/>
      <point x="327" y="118" type="curve" smooth="yes"/>
      <point x="315" y="118"/>
      <point x="305" y="108"/>
      <point x="305" y="96" type="curve" smooth="yes"/>
      <point x="305" y="84"/>
      <point x="315" y="74"/>
    </contour>
    <contour>
      <point x="317.0" y="0.0" type="move" name="bottom_deva"/>
    </contour>
    <contour>
      <point x="317.0" y="696.0" type="move" name="top_deva"/>
    </contour>
  </outline>
</glyph>
<glyph name="dvAnusvara.mI" format="1">
  <advance width="0"/>
  <outline>
    <contour>
      <point x="-110" y="879" type="curve" smooth="yes" name="hr00"/>
      <point x="-93" y="879"/>
      <point x="-86" y="888"/>
      <point x="-86" y="902" type="curve" smooth="yes"/>
      <point x="-86" y="907" type="line" smooth="yes"/>
      <point x="-86" y="921"/>
      <point x="-93" y="930"/>
      <point x="-110" y="930" type="curve" smooth="yes"/>
      <point x="-127" y="930"/>
      <point x="-134" y="921"/>
      <point x="-134" y="907" type="curve" smooth="yes"/>
      <point x="-134" y="902" type="line" smooth="yes"/>
      <point x="-134" y="888"/>
      <point x="-127" y="879"/>
    </contour>
    <contour>
      <point x="-145.0" y="696.0" type="move" name="_top_deva"/>
    </contour>
  </outline>
</glyph>
<glyph name="dvBH_LA" format="1">
  <advance width="1222"/>
  <outline>
    <contour>
      <point x="1057" y="0" type="line" name="hr00"/>
      <point x="1078" y="0" type="line"/>
      <point x="1078" y="679" type="line"/>
      <point x="1242" y="679" type="line"/>
      <point x="1242" y="698" type="line"/>
      <point x="442" y="698" type="line"/>
      <point x="442" y="679" type="line"/>
      <point x="1057" y="679" type="line"/>
      <point x="1057" y="450" type="line"/>
      <point x="1058" y="385" type="line"/>
      <point x="1056" y="385" type="line"/>
      <point x="1037" y="422"/>
      <point x="996" y="465"/>
      <point x="925" y="465" type="curve" smooth="yes"/>
      <point x="848" y="465"/>
      <point x="801" y="408"/>
      <point x="785" y="333" type="curve"/>
      <point x="783" y="333" type="line"/>
      <point x="768" y="409"/>
      <point x="715" y="465"/>
      <point x="630" y="465" type="curve" smooth="yes"/>
      <point x="564" y="465"/>
      <point x="513" y="426"/>
      <point x="491" y="354" type="curve"/>
      <point x="169" y="354" type="line"/>
      <point x="169" y="675" type="line" smooth="yes"/>
      <point x="169" y="692"/>
      <point x="161" y="698"/>
      <point x="147" y="698" type="curve" smooth="yes"/>
      <point x="-20" y="698" type="line"/>
      <point x="-20" y="679" type="line"/>
      <point x="148" y="679" type="line"/>
      <point x="148" y="353" type="line"/>
      <point x="132" y="350"/>
      <point x="123" y="337"/>
      <point x="123" y="321" type="curve" smooth="yes"/>
      <point x="123" y="302"/>
      <point x="133" y="288"/>
      <point x="153" y="288" type="curve" smooth="yes"/>
      <point x="159" y="288"/>
      <point x="165" y="289"/>
      <point x="169" y="291" type="curve"/>
      <point x="169" y="335" type="line"/>
      <point x="486" y="335" type="line"/>
      <point x="482" y="316"/>
      <point x="480" y="294"/>
      <point x="480" y="271" type="curve" smooth="yes"/>
      <point x="480" y="112"/>
      <point x="542" y="29"/>
      <point x="694" y="14" type="curve"/>
      <point x="697" y="33" type="line"/>
      <point x="548" y="46"/>
      <point x="502" y="131"/>
      <point x="502" y="256" type="curve" smooth="yes"/>
      <point x="502" y="283" type="line" smooth="yes"/>
      <point x="502" y="381"/>
      <point x="556" y="445"/>
      <point x="631" y="445" type="curve" smooth="yes"/>
      <point x="715" y="445"/>
      <point x="774" y="379"/>
      <point x="774" y="273" type="curve" smooth="yes"/>
      <point x="774" y="186" type="line"/>
      <point x="795" y="186" type="line"/>
      <point x="795" y="271" type="line" smooth="yes"/>
      <point x="795" y="377"/>
      <point x="851" y="445"/>
      <point x="925" y="445" type="curve" smooth="yes"/>
      <point x="1014" y="445"/>
      <point x="1057" y="371"/>
      <point x="1057" y="321" type="curve" smooth="yes"/>
    </contour>
    <contour>
      <point x="1078.0" y="0.0" type="move" name="bottom_deva"/>
    </contour>
    <contour>
      <point x="785.0" y="696.0" type="move" name="center_deva"/>
    </contour>
    <contour>
      <point x="1078.0" y="696.0" type="move" name="top_deva"/>
    </contour>
  </outline>
</glyph>
<glyph name="dvB_DHA" format="1">
  <advance width="1010"/>
  <outline>
    <contour>
      <point x="845" y="0" type="line"/>
      <point x="866" y="0" type="line"/>
      <point x="866" y="679" type="line"/>
      <point x="1030" y="679" type="line"/>
      <point x="1030" y="698" type="line"/>
      <point x="845" y="698" type="line"/>
      <point x="845" y="335" type="line" smooth="yes"/>
      <point x="845" y="244"/>
      <point x="763" y="151"/>
      <point x="617" y="151" type="curve" smooth="yes"/>
      <point x="509" y="151"/>
      <point x="461" y="209"/>
      <point x="461" y="280" type="curve" smooth="yes"/>
      <point x="461" y="353"/>
      <point x="508" y="414"/>
      <point x="621" y="414" type="curve" smooth="yes"/>
      <point x="682" y="414" type="line"/>
      <point x="682" y="433" type="line"/>
      <point x="622" y="433" type="line" smooth="yes"/>
      <point x="492" y="433"/>
      <point x="436" y="490"/>
      <point x="436" y="566" type="curve" smooth="yes"/>
      <point x="436" y="636"/>
      <point x="482" y="679"/>
      <point x="556" y="679" type="curve" smooth="yes"/>
      <point x="592" y="679"/>
      <point x="618" y="670"/>
      <point x="643" y="656" type="curve"/>
      <point x="652" y="673" type="line"/>
      <point x="627" y="687"/>
      <point x="595" y="698"/>
      <point x="554" y="698" type="curve" smooth="yes"/>
      <point x="467" y="698"/>
      <point x="415" y="643"/>
      <point x="415" y="567" type="curve" smooth="yes"/>
      <point x="415" y="491"/>
      <point x="471" y="433"/>
      <point x="554" y="424" type="curve"/>
      <point x="554" y="421" type="line"/>
      <point x="508" y="412"/>
      <point x="472" y="383"/>
      <point x="455" y="346" type="curve"/>
      <point x="452" y="346" type="line"/>
      <point x="431" y="419"/>
      <point x="361" y="473"/>
      <point x="266" y="473" type="curve" smooth="yes"/>
      <point x="150" y="473"/>
      <point x="74" y="397"/>
      <point x="74" y="297" type="curve" smooth="yes"/>
      <point x="74" y="195"/>
      <point x="149" y="116"/>
      <point x="266" y="116" type="curve" smooth="yes" name="hr01"/>
      <point x="352" y="116"/>
      <point x="420" y="158"/>
      <point x="448" y="228" type="curve"/>
      <point x="450" y="228" type="line"/>
      <point x="472" y="171"/>
      <point x="523" y="132"/>
      <point x="617" y="132" type="curve" smooth="yes" name="hr02"/>
      <point x="746" y="132"/>
      <point x="809" y="193"/>
      <point x="842" y="252" type="curve"/>
      <point x="845" y="252" type="line"/>
    </contour>
    <contour>
      <point x="-20" y="679" type="line"/>
      <point x="376" y="679" type="line"/>
      <point x="376" y="698" type="line"/>
      <point x="-20" y="698" type="line"/>
    </contour>
    <contour>
      <point x="365" y="228" type="line"/>
      <point x="198" y="384" type="line"/>
      <point x="157" y="423" type="line"/>
      <point x="164" y="428"/>
      <point x="172" y="432"/>
      <point x="179" y="436" type="curve" smooth="yes"/>
      <point x="203" y="448"/>
      <point x="232" y="454"/>
      <point x="266" y="454" type="curve" smooth="yes"/>
      <point x="372" y="454"/>
      <point x="440" y="379"/>
      <point x="440" y="307" type="curve" smooth="yes"/>
      <point x="440" y="288" type="line" smooth="yes"/>
      <point x="440" y="250"/>
      <point x="426" y="216"/>
      <point x="405" y="190" type="curve"/>
    </contour>
    <contour>
      <point x="266" y="135" type="curve" smooth="yes" name="hr03"/>
      <point x="164" y="135"/>
      <point x="96" y="200"/>
      <point x="96" y="286" type="curve" smooth="yes"/>
      <point x="96" y="308" type="line" smooth="yes"/>
      <point x="96" y="353"/>
      <point x="116" y="388"/>
      <point x="143" y="412" type="curve"/>
      <point x="184" y="372" type="line"/>
      <point x="354" y="212" type="line"/>
      <point x="392" y="178" type="line"/>
      <point x="384" y="170"/>
      <point x="376" y="164"/>
      <point x="367" y="159" type="curve" smooth="yes"/>
      <point x="336" y="142"/>
      <point x="304" y="135"/>
    </contour>
    <contour>
      <point x="866.0" y="0.0" type="move" name="bottom_deva"/>
    </contour>
    <contour>
      <point x="698.0" y="696.0" type="move" name="center_deva"/>
    </contour>
    <contour>
      <point x="866.0" y="696.0" type="move" name="top_deva"/>
    </contour>
  </outline>
</glyph>
<glyph name="dvB_DH_VA" format="1">
  <advance width="1357"/>
  <outline>
    <contour>
      <point x="789" y="679" type="line"/>
      <point x="1192" y="679" type="line"/>
      <point x="1192" y="402" type="line"/>
      <point x="1189" y="402" type="line"/>
      <point x="1159" y="442"/>
      <point x="1101" y="490"/>
      <point x="1000" y="490" type="curve" smooth="yes"/>
      <point x="889" y="490"/>
      <point x="818" y="418"/>
      <point x="818" y="313" type="curve" smooth="yes"/>
      <point x="818" y="293"/>
      <point x="821" y="280"/>
      <point x="825" y="260" type="curve"/>
      <point x="782" y="188"/>
      <point x="712" y="151"/>
      <point x="617" y="151" type="curve" smooth="yes"/>
      <point x="509" y="151"/>
      <point x="461" y="209"/>
      <point x="461" y="280" type="curve" smooth="yes"/>
      <point x="461" y="353"/>
      <point x="508" y="414"/>
      <point x="621" y="414" type="curve" smooth="yes"/>
      <point x="682" y="414" type="line"/>
      <point x="682" y="433" type="line"/>
      <point x="622" y="433" type="line" smooth="yes"/>
      <point x="495" y="433"/>
      <point x="436" y="488"/>
      <point x="436" y="566" type="curve" smooth="yes"/>
      <point x="436" y="633"/>
      <point x="479" y="679"/>
      <point x="556" y="679" type="curve" smooth="yes"/>
      <point x="591" y="679"/>
      <point x="619" y="670"/>
      <point x="643" y="656" type="curve"/>
      <point x="652" y="673" type="line"/>
      <point x="628" y="687"/>
      <point x="594" y="698"/>
      <point x="554" y="698" type="curve" smooth="yes"/>
      <point x="466" y="698"/>
      <point x="415" y="642"/>
      <point x="415" y="566" type="curve" smooth="yes"/>
      <point x="415" y="491"/>
      <point x="471" y="433"/>
      <point x="554" y="424" type="curve"/>
      <point x="554" y="421" type="line"/>
      <point x="508" y="412"/>
      <point x="471" y="383"/>
      <point x="455" y="346" type="curve"/>
      <point x="452" y="346" type="line"/>
      <point x="431" y="419"/>
      <point x="361" y="473"/>
      <point x="266" y="473" type="curve" smooth="yes" name="hr01"/>
      <point x="150" y="473"/>
      <point x="74" y="397"/>
      <point x="74" y="297" type="curve" smooth="yes"/>
      <point x="74" y="195"/>
      <point x="149" y="116"/>
      <point x="266" y="116" type="curve" smooth="yes"/>
      <point x="352" y="116"/>
      <point x="420" y="158"/>
      <point x="448" y="228" type="curve"/>
      <point x="450" y="228" type="line"/>
      <point x="474" y="167"/>
      <point x="527" y="132"/>
      <point x="617" y="132" type="curve" smooth="yes" name="hr02"/>
      <point x="721" y="132"/>
      <point x="789" y="172"/>
      <point x="832" y="235" type="curve"/>
      <point x="834" y="235" type="line"/>
      <point x="865" y="171"/>
      <point x="933" y="136"/>
      <point x="1006" y="136" type="curve" smooth="yes" name="hr03"/>
      <point x="1106" y="136"/>
      <point x="1162" y="182"/>
      <point x="1189" y="223" type="curve"/>
      <point x="1192" y="223" type="line"/>
      <point x="1192" y="0" type="line"/>
      <point x="1213" y="0" type="line"/>
      <point x="1213" y="679" type="line"/>
      <point x="1377" y="679" type="line"/>
      <point x="1377" y="698" type="line"/>
      <point x="789" y="698" type="line"/>
    </contour>
    <contour>
      <point x="-20" y="679" type="line"/>
      <point x="376" y="679" type="line"/>
      <point x="376" y="698" type="line"/>
      <point x="-20" y="698" type="line"/>
    </contour>
    <contour>
      <point x="1009" y="155" type="curve" smooth="yes"/>
      <point x="910" y="155"/>
      <point x="840" y="218"/>
      <point x="840" y="301" type="curve" smooth="yes"/>
      <point x="840" y="325" type="line" smooth="yes"/>
      <point x="840" y="405"/>
      <point x="901" y="471"/>
      <point x="1001" y="471" type="curve" smooth="yes"/>
      <point x="1108" y="471"/>
      <point x="1193" y="400"/>
      <point x="1193" y="340" type="curve" smooth="yes"/>
      <point x="1193" y="289" type="line" smooth="yes"/>
      <point x="1193" y="222"/>
      <point x="1112" y="155"/>
    </contour>
    <contour>
      <point x="365" y="228" type="line"/>
      <point x="198" y="384" type="line"/>
      <point x="157" y="423" type="line"/>
      <point x="164" y="428"/>
      <point x="172" y="432"/>
      <point x="179" y="436" type="curve" smooth="yes"/>
      <point x="203" y="448"/>
      <point x="232" y="454"/>
      <point x="266" y="454" type="curve" smooth="yes" name="hr04"/>
      <point x="372" y="454"/>
      <point x="440" y="379"/>
      <point x="440" y="307" type="curve" smooth="yes"/>
      <point x="440" y="288" type="line" smooth="yes"/>
      <point x="440" y="250"/>
      <point x="426" y="216"/>
      <point x="405" y="190" type="curve"/>
    </contour>
    <contour>
      <point x="266" y="135" type="curve" smooth="yes"/>
      <point x="164" y="135"/>
      <point x="96" y="200"/>
      <point x="96" y="286" type="curve" smooth="yes"/>
      <point x="96" y="308" type="line" smooth="yes"/>
      <point x="96" y="353"/>
      <point x="116" y="388"/>
      <point x="143" y="412" type="curve"/>
      <point x="184" y="372" type="line"/>
      <point x="354" y="212" type="line"/>
      <point x="392" y="178" type="line"/>
      <point x="384" y="170"/>
      <point x="376" y="164"/>
      <point x="367" y="159" type="curve" smooth="yes"/>
      <point x="336" y="142"/>
      <point x="304" y="135"/>
    </contour>
    <contour>
      <point x="1213.0" y="0.0" type="move" name="bottom_deva"/>
    </contour>
    <contour>
      <point x="1026.0" y="696.0" type="move" name="center_deva"/>
    </contour>
    <contour>
      <point x="1213.0" y="696.0" type="move" name="top_deva"/>
    </contour>
  </outline>
</glyph>
<glyph name="dvB_JA" format="1">
  <advance width="1181"/>
  <outline>
    <contour>
      <point x="663" y="82" type="curve" smooth="yes" name="hr00"/>
      <point x="761" y="82"/>
      <point x="822" y="147"/>
      <point x="822" y="243" type="curve" smooth="yes"/>
      <point x="822" y="333"/>
      <point x="775" y="386"/>
      <point x="722" y="413" type="curve"/>
      <point x="722" y="416" type="line"/>
      <point x="1016" y="416" type="line"/>
      <point x="1016" y="0" type="line"/>
      <point x="1037" y="0" type="line"/>
      <point x="1037" y="679" type="line"/>
      <point x="1201" y="679" type="line"/>
      <point x="1201" y="698" type="line"/>
      <point x="-20" y="698" type="line"/>
      <point x="-20" y="679" type="line"/>
      <point x="1016" y="679" type="line"/>
      <point x="1016" y="435" type="line"/>
      <point x="632" y="435" type="line"/>
      <point x="632" y="416" type="line"/>
      <point x="646" y="416" type="line" smooth="yes"/>
      <point x="732" y="416"/>
      <point x="800" y="340"/>
      <point x="800" y="256" type="curve" smooth="yes"/>
      <point x="800" y="234" type="line" smooth="yes"/>
      <point x="800" y="156"/>
      <point x="748" y="101"/>
      <point x="661" y="101" type="curve" smooth="yes"/>
      <point x="559" y="101"/>
      <point x="481" y="171"/>
      <point x="462" y="325" type="curve" smooth="yes"/>
      <point x="450" y="420"/>
      <point x="378" y="489"/>
      <point x="266" y="489" type="curve" smooth="yes"/>
      <point x="148" y="489"/>
      <point x="74" y="412"/>
      <point x="74" y="313" type="curve" smooth="yes"/>
      <point x="74" y="210"/>
      <point x="149" y="132"/>
      <point x="266" y="132" type="curve" smooth="yes"/>
      <point x="358" y="132"/>
      <point x="431" y="181"/>
      <point x="451" y="260" type="curve"/>
      <point x="455" y="260" type="line"/>
      <point x="488" y="144"/>
      <point x="556" y="82"/>
    </contour>
    <contour>
      <point x="366" y="243" type="line"/>
      <point x="199" y="399" type="line"/>
      <point x="157" y="439" type="line"/>
      <point x="164" y="444"/>
      <point x="172" y="448"/>
      <point x="179" y="452" type="curve" smooth="yes"/>
      <point x="203" y="464"/>
      <point x="232" y="470"/>
      <point x="266" y="470" type="curve" smooth="yes"/>
      <point x="376" y="470"/>
      <point x="441" y="394"/>
      <point x="441" y="318" type="curve" smooth="yes"/>
      <point x="441" y="306" type="line" smooth="yes"/>
      <point x="441" y="267"/>
      <point x="426" y="232"/>
      <point x="405" y="206" type="curve"/>
    </contour>
    <contour>
      <point x="266" y="151" type="curve" smooth="yes"/>
      <point x="165" y="151"/>
      <point x="96" y="215"/>
      <point x="96" y="302" type="curve" smooth="yes"/>
      <point x="96" y="323" type="line" smooth="yes"/>
      <point x="96" y="368"/>
      <point x="116" y="404"/>
      <point x="143" y="428" type="curve"/>
      <point x="185" y="387" type="line"/>
      <point x="355" y="227" type="line"/>
      <point x="392" y="193" type="line"/>
      <point x="384" y="186"/>
      <point x="376" y="180"/>
      <point x="367" y="175" type="curve" smooth="yes"/>
      <point x="336" y="158"/>
      <point x="304" y="151"/>
    </contour>
    <contour>
      <point x="1037.0" y="0.0" type="move" name="bottom_deva"/>
    </contour>
    <contour>
      <point x="826.0" y="696.0" type="move" name="center_deva"/>
    </contour>
    <contour>
      <point x="1037.0" y="696.0" type="move" name="top_deva"/>
    </contour>
  </outline>
</glyph>
<glyph name="dvB_J_YA" format="1">
  <advance width="1575"/>
  <outline>
    <contour>
      <point x="-20" y="679" type="line" name="hr00"/>
      <point x="1152" y="679" type="line"/>
      <point x="1152" y="540" type="line" smooth="yes"/>
      <point x="1152" y="455"/>
      <point x="1125" y="426"/>
      <point x="1034" y="426" type="curve" smooth="yes"/>
      <point x="632" y="426" type="line"/>
      <point x="632" y="407" type="line"/>
      <point x="646" y="407" type="line" smooth="yes"/>
      <point x="732" y="407"/>
      <point x="800" y="331"/>
      <point x="800" y="247" type="curve" smooth="yes"/>
      <point x="800" y="225" type="line" smooth="yes"/>
      <point x="800" y="147"/>
      <point x="748" y="92"/>
      <point x="661" y="92" type="curve" smooth="yes"/>
      <point x="567" y="92"/>
      <point x="479" y="155"/>
      <point x="462" y="315" type="curve" smooth="yes"/>
      <point x="451" y="421"/>
      <point x="378" y="489"/>
      <point x="266" y="489" type="curve" smooth="yes"/>
      <point x="149" y="489"/>
      <point x="74" y="412"/>
      <point x="74" y="313" type="curve" smooth="yes"/>
      <point x="74" y="210"/>
      <point x="150" y="132"/>
      <point x="266" y="132" type="curve" smooth="yes"/>
      <point x="361" y="132"/>
      <point x="431" y="184"/>
      <point x="450" y="255" type="curve"/>
      <point x="453" y="255" type="line"/>
      <point x="482" y="142"/>
      <point x="556" y="73"/>
      <point x="663" y="73" type="curve" smooth="yes"/>
      <point x="761" y="73"/>
      <point x="822" y="138"/>
      <point x="822" y="234" type="curve" smooth="yes"/>
      <point x="822" y="324"/>
      <point x="775" y="377"/>
      <point x="722" y="404" type="curve"/>
      <point x="722" y="407" type="line"/>
      <point x="982" y="407" type="line"/>
      <point x="982" y="359" type="line" smooth="yes"/>
      <point x="982" y="242"/>
      <point x="1051" y="162"/>
      <point x="1189" y="162" type="curve" smooth="yes"/>
      <point x="1307" y="162"/>
      <point x="1375" y="218"/>
      <point x="1407" y="266" type="curve"/>
      <point x="1410" y="266" type="line"/>
      <point x="1410" y="0" type="line"/>
      <point x="1431" y="0" type="line"/>
      <point x="1431" y="679" type="line"/>
      <point x="1595" y="679" type="line"/>
      <point x="1595" y="698" type="line"/>
      <point x="-20" y="698" type="line"/>
    </contour>
    <contour>
      <point x="1189" y="181" type="curve" smooth="yes"/>
      <point x="1067" y="181"/>
      <point x="1003" y="248"/>
      <point x="1003" y="356" type="curve" smooth="yes"/>
      <point x="1003" y="407" type="line"/>
      <point x="1037" y="407" type="line" smooth="yes"/>
      <point x="1134" y="407"/>
      <point x="1173" y="444"/>
      <point x="1173" y="536" type="curve" smooth="yes"/>
      <point x="1173" y="679" type="line"/>
      <point x="1410" y="679" type="line"/>
      <point x="1410" y="340" type="line" smooth="yes"/>
      <point x="1410" y="262"/>
      <point x="1323" y="181"/>
    </contour>
    <contour>
      <point x="366" y="243" type="line"/>
      <point x="199" y="399" type="line"/>
      <point x="157" y="439" type="line"/>
      <point x="164" y="444"/>
      <point x="172" y="448"/>
      <point x="179" y="452" type="curve" smooth="yes"/>
      <point x="203" y="464"/>
      <point x="232" y="470"/>
      <point x="266" y="470" type="curve" smooth="yes"/>
      <point x="375" y="470"/>
      <point x="440" y="393"/>
      <point x="440" y="320" type="curve" smooth="yes"/>
      <point x="440" y="305" type="line" smooth="yes"/>
      <point x="440" y="266"/>
      <point x="426" y="232"/>
      <point x="404" y="206" type="curve"/>
    </contour>
    <contour>
      <point x="266" y="151" type="curve" smooth="yes"/>
      <point x="164" y="151"/>
      <point x="96" y="216"/>
      <point x="96" y="302" type="curve" smooth="yes"/>
      <point x="96" y="324" type="line" smooth="yes"/>
      <point x="96" y="369"/>
      <point x="116" y="404"/>
      <point x="143" y="428" type="curve"/>
      <point x="185" y="387" type="line"/>
      <point x="355" y="227" type="line"/>
      <point x="392" y="193" type="line"/>
      <point x="384" y="186"/>
      <point x="376" y="180"/>
      <point x="367" y="175" type="curve" smooth="yes"/>
      <point x="336" y="158"/>
      <point x="304" y="151"/>
    </contour>
    <contour>
      <point x="1431.0" y="0.0" type="move" name="bottom_deva"/>
    </contour>
    <contour>
      <point x="1294.0" y="696.0" type="move" name="center_deva"/>
    </contour>
    <contour>
      <point x="1431.0" y="696.0" type="move" name="top_deva"/>
    </contour>
  </outline>
</glyph>
<glyph name="dvB_NA" format="1">
  <advance width="618"/>
  <outline>
    <contour>
      <point x="167" y="-50" type="curve" smooth="yes" name="hr00"/>
      <point x="178" y="-50"/>
      <point x="186" y="-44"/>
      <point x="189" y="-35" type="curve"/>
      <point x="161" y="5" type="line"/>
      <point x="380" y="158" type="line" smooth="yes"/>
      <point x="407" y="177"/>
      <point x="429" y="196"/>
      <point x="450" y="226" type="curve"/>
      <point x="453" y="226" type="line"/>
      <point x="453" y="0" type="line"/>
      <point x="474" y="0" type="line"/>
      <point x="474" y="679" type="line"/>
      <point x="638" y="679" type="line"/>
      <point x="638" y="698" type="line"/>
      <point x="-20" y="698" type="line"/>
      <point x="-20" y="679" type="line"/>
      <point x="453" y="679" type="line"/>
      <point x="453" y="404" type="line"/>
      <point x="450" y="404" type="line"/>
      <point x="419" y="445"/>
      <point x="359" y="489"/>
      <point x="265" y="489" type="curve" smooth="yes"/>
      <point x="149" y="489"/>
      <point x="74" y="413"/>
      <point x="74" y="312" type="curve" smooth="yes"/>
      <point x="74" y="200"/>
      <point x="159" y="133"/>
      <point x="264" y="133" type="curve" smooth="yes"/>
      <point x="285" y="133"/>
      <point x="311" y="137"/>
      <point x="325" y="142" type="curve"/>
      <point x="326" y="139" type="line"/>
      <point x="208" y="60" type="line"/>
      <point x="147" y="19" type="line" smooth="yes"/>
      <point x="134" y="10"/>
      <point x="130" y="3"/>
      <point x="130" y="-9" type="curve" smooth="yes"/>
      <point x="130" y="-29"/>
      <point x="147" y="-50"/>
    </contour>
    <contour>
      <point x="366" y="243" type="line"/>
      <point x="199" y="399" type="line"/>
      <point x="157" y="439" type="line"/>
      <point x="163" y="443"/>
      <point x="170" y="447"/>
      <point x="176" y="450" type="curve" smooth="yes"/>
      <point x="203" y="463"/>
      <point x="234" y="470"/>
      <point x="266" y="470" type="curve" smooth="yes"/>
      <point x="373" y="470"/>
      <point x="454" y="399"/>
      <point x="454" y="345" type="curve" smooth="yes"/>
      <point x="454" y="291" type="line" smooth="yes"/>
      <point x="454" y="262"/>
      <point x="435" y="229"/>
      <point x="408" y="203" type="curve"/>
    </contour>
    <contour>
      <point x="264" y="151" type="curve" smooth="yes"/>
      <point x="167" y="151"/>
      <point x="96" y="214"/>
      <point x="96" y="300" type="curve" smooth="yes"/>
      <point x="96" y="321" type="line" smooth="yes"/>
      <point x="96" y="368"/>
      <point x="117" y="404"/>
      <point x="143" y="428" type="curve"/>
      <point x="185" y="387" type="line"/>
      <point x="355" y="227" type="line"/>
      <point x="394" y="191" type="line"/>
      <point x="385" y="184"/>
      <point x="375" y="178"/>
      <point x="365" y="173" type="curve" smooth="yes"/>
      <point x="338" y="160"/>
      <point x="309" y="151"/>
    </contour>
    <contour>
      <point x="474.0" y="0.0" type="move" name="bottom_deva"/>
    </contour>
    <contour>
      <point x="290.0" y="696.0" type="move" name="center_deva"/>
    </contour>
    <contour>
      <point x="474.0" y="696.0" type="move" name="top_deva"/>
    </contour>
  </outline>
</glyph>
<glyph name="dvB_TA" format="1">
  <advance width="964"/>
  <outline>
    <contour>
      <point x="578" y="1" type="curve" name="hr00"/>
      <point x="589" y="17" type="line"/>
      <point x="488" y="77"/>
      <point x="462" y="148"/>
      <point x="462" y="242" type="curve" smooth="yes"/>
      <point x="462" y="262" type="line" smooth="yes"/>
      <point x="462" y="365"/>
      <point x="508" y="432"/>
      <point x="620" y="432" type="curve" smooth="yes"/>
      <point x="799" y="432" type="line"/>
      <point x="799" y="0" type="line"/>
      <point x="820" y="0" type="line"/>
      <point x="820" y="679" type="line"/>
      <point x="984" y="679" type="line"/>
      <point x="984" y="698" type="line"/>
      <point x="-20" y="698" type="line"/>
      <point x="-20" y="679" type="line"/>
      <point x="799" y="679" type="line"/>
      <point x="799" y="451" type="line"/>
      <point x="618" y="451" type="line" smooth="yes"/>
      <point x="536" y="451"/>
      <point x="479" y="415"/>
      <point x="457" y="349" type="curve"/>
      <point x="455" y="349" type="line"/>
      <point x="439" y="433"/>
      <point x="362" y="489"/>
      <point x="266" y="489" type="curve" smooth="yes"/>
      <point x="149" y="489"/>
      <point x="74" y="412"/>
      <point x="74" y="313" type="curve" smooth="yes"/>
      <point x="74" y="210"/>
      <point x="150" y="132"/>
      <point x="266" y="132" type="curve" smooth="yes"/>
      <point x="347" y="132"/>
      <point x="413" y="171"/>
      <point x="440" y="227" type="curve"/>
      <point x="443" y="227" type="line"/>
      <point x="447" y="129"/>
      <point x="478" y="64"/>
    </contour>
    <contour>
      <point x="366" y="243" type="line"/>
      <point x="199" y="399" type="line"/>
      <point x="157" y="439" type="line"/>
      <point x="164" y="444"/>
      <point x="172" y="448"/>
      <point x="179" y="452" type="curve" smooth="yes"/>
      <point x="203" y="464"/>
      <point x="232" y="470"/>
      <point x="266" y="470" type="curve" smooth="yes"/>
      <point x="372" y="470"/>
      <point x="440" y="395"/>
      <point x="440" y="323" type="curve" smooth="yes"/>
      <point x="440" y="304" type="line" smooth="yes"/>
      <point x="440" y="266"/>
      <point x="426" y="232"/>
      <point x="405" y="206" type="curve"/>
    </contour>
    <contour>
      <point x="266" y="151" type="curve" smooth="yes"/>
      <point x="164" y="151"/>
      <point x="96" y="216"/>
      <point x="96" y="302" type="curve" smooth="yes"/>
      <point x="96" y="324" type="line" smooth="yes"/>
      <point x="96" y="369"/>
      <point x="116" y="404"/>
      <point x="143" y="428" type="curve"/>
      <point x="185" y="387" type="line"/>
      <point x="355" y="227" type="line"/>
      <point x="392" y="193" type="line"/>
      <point x="384" y="186"/>
      <point x="376" y="180"/>
      <point x="367" y="175" type="curve" smooth="yes"/>
      <point x="336" y="158"/>
      <point x="304" y="151"/>
    </contour>
    <contour>
      <point x="820.0" y="0.0" type="move" name="bottom_deva"/>
    </contour>
    <contour>
      <point x="650.0" y="696.0" type="move" name="center_deva"/>
    </contour>
    <contour>
      <point x="820.0" y="696.0" type="move" name="top_deva"/>
    </contour>
  </outline>
</glyph>
<glyph name="dvB_YA" format="1">
  <advance width="1030"/>
  <outline>
    <contour>
      <point x="-20" y="679" type="line" name="hr00"/>
      <point x="607" y="679" type="line"/>
      <point x="607" y="540" type="line" smooth="yes"/>
      <point x="607" y="455"/>
      <point x="580" y="426"/>
      <point x="489" y="426" type="curve" smooth="yes"/>
      <point x="439" y="426" type="line"/>
      <point x="405" y="482"/>
      <point x="346" y="519"/>
      <point x="266" y="519" type="curve" smooth="yes"/>
      <point x="149" y="519"/>
      <point x="74" y="442"/>
      <point x="74" y="343" type="curve" smooth="yes"/>
      <point x="74" y="240"/>
      <point x="150" y="162"/>
      <point x="266" y="162" type="curve" smooth="yes"/>
      <point x="361" y="162"/>
      <point x="427" y="212"/>
      <point x="449" y="281" type="curve"/>
      <point x="451" y="281" type="line"/>
      <point x="476" y="208"/>
      <point x="542" y="162"/>
      <point x="644" y="162" type="curve" smooth="yes"/>
      <point x="762" y="162"/>
      <point x="830" y="218"/>
      <point x="862" y="266" type="curve"/>
      <point x="865" y="266" type="line"/>
      <point x="865" y="0" type="line"/>
      <point x="886" y="0" type="line"/>
      <point x="886" y="679" type="line"/>
      <point x="1050" y="679" type="line"/>
      <point x="1050" y="698" type="line"/>
      <point x="-20" y="698" type="line"/>
    </contour>
    <contour>
      <point x="644" y="181" type="curve" smooth="yes"/>
      <point x="522" y="181"/>
      <point x="458" y="248"/>
      <point x="458" y="356" type="curve" smooth="yes"/>
      <point x="458" y="407" type="line"/>
      <point x="492" y="407" type="line" smooth="yes"/>
      <point x="589" y="407"/>
      <point x="628" y="444"/>
      <point x="628" y="536" type="curve" smooth="yes"/>
      <point x="628" y="679" type="line"/>
      <point x="865" y="679" type="line"/>
      <point x="865" y="340" type="line" smooth="yes"/>
      <point x="865" y="262"/>
      <point x="778" y="181"/>
    </contour>
    <contour>
      <point x="365" y="274" type="line"/>
      <point x="198" y="430" type="line"/>
      <point x="157" y="469" type="line"/>
      <point x="164" y="474"/>
      <point x="172" y="478"/>
      <point x="179" y="482" type="curve" smooth="yes"/>
      <point x="203" y="494"/>
      <point x="232" y="500"/>
      <point x="266" y="500" type="curve" smooth="yes"/>
      <point x="372" y="500"/>
      <point x="440" y="425"/>
      <point x="440" y="353" type="curve" smooth="yes"/>
      <point x="440" y="334" type="line" smooth="yes"/>
      <point x="440" y="296"/>
      <point x="426" y="262"/>
      <point x="405" y="236" type="curve"/>
    </contour>
    <contour>
      <point x="266" y="181" type="curve" smooth="yes"/>
      <point x="164" y="181"/>
      <point x="96" y="246"/>
      <point x="96" y="332" type="curve" smooth="yes"/>
      <point x="96" y="354" type="line" smooth="yes"/>
      <point x="96" y="399"/>
      <point x="116" y="434"/>
      <point x="143" y="458" type="curve"/>
      <point x="184" y="418" type="line"/>
      <point x="354" y="258" type="line"/>
      <point x="392" y="224" type="line"/>
      <point x="384" y="216"/>
      <point x="376" y="210"/>
      <point x="367" y="205" type="curve" smooth="yes"/>
      <point x="336" y="188"/>
      <point x="304" y="181"/>
    </contour>
    <contour>
      <point x="886.0" y="0.0" type="move" name="bottom_deva"/>
    </contour>
    <contour>
      <point x="749.0" y="696.0" type="move" name="center_deva"/>
    </contour>
    <contour>
      <point x="886.0" y="696.0" type="move" name="top_deva"/>
    </contour>
  </outline>
</glyph>
<glyph name="dvCH" format="1">
  <advance width="783"/>
  <outline>
    <component base="dvCHA"/>
    <component base="dvVirama" xOffset="553" yOffset="38"/>
    <contour>
      <point x="409.0" y="38.0" type="move" name="_bottom_deva"/>
    </contour>
    <contour>
      <point x="409.0" y="38.0" type="move" name="bottom_deva"/>
    </contour>
    <contour>
      <point x="427.0" y="696.0" type="move" name="center_deva"/>
    </contour>
    <contour>
      <point x="611.0" y="696.0" type="move" name="top_deva"/>
    </contour>
  </outline>
</glyph>
<glyph name="dvCH_YA" format="1">
  <advance width="1420"/>
  <outline>
    <contour>
      <point x="-20" y="679" type="line"/>
      <point x="227" y="679" type="line"/>
      <point x="227" y="676" type="line"/>
      <point x="188" y="659"/>
      <point x="139" y="618"/>
      <point x="139" y="539" type="curve" smooth="yes"/>
      <point x="139" y="467"/>
      <point x="185" y="414"/>
      <point x="250" y="395" type="curve"/>
      <point x="250" y="392" type="line"/>
      <point x="186" y="378"/>
      <point x="127" y="328"/>
      <point x="127" y="227" type="curve" smooth="yes" name="hr01"/>
      <point x="127" y="122"/>
      <point x="208" y="34"/>
      <point x="369" y="34" type="curve" smooth="yes"/>
      <point x="396" y="34" type="line" smooth="yes"/>
      <point x="568" y="34"/>
      <point x="720" y="151"/>
      <point x="720" y="352" type="curve" smooth="yes"/>
      <point x="720" y="420"/>
      <point x="702" y="468"/>
      <point x="660" y="494" type="curve"/>
      <point x="660" y="497" type="line"/>
      <point x="764" y="494" type="line"/>
      <point x="1021" y="494" type="line"/>
      <point x="1021" y="422" type="line" smooth="yes"/>
      <point x="1021" y="355"/>
      <point x="998" y="331"/>
      <point x="918" y="331" type="curve" smooth="yes"/>
      <point x="859" y="331" type="line"/>
      <point x="859" y="292" type="line" smooth="yes"/>
      <point x="859" y="163"/>
      <point x="933" y="109"/>
      <point x="1047" y="109" type="curve" smooth="yes"/>
      <point x="1164" y="109"/>
      <point x="1224" y="162"/>
      <point x="1252" y="216" type="curve"/>
      <point x="1255" y="216" type="line"/>
      <point x="1255" y="0" type="line"/>
      <point x="1276" y="0" type="line"/>
      <point x="1276" y="679" type="line"/>
      <point x="1440" y="679" type="line"/>
      <point x="1440" y="698" type="line"/>
      <point x="-20" y="698" type="line"/>
    </contour>
    <contour>
      <point x="359" y="54" type="line" smooth="yes"/>
      <point x="221" y="54"/>
      <point x="149" y="133"/>
      <point x="149" y="227" type="curve" smooth="yes"/>
      <point x="149" y="320"/>
      <point x="206" y="384"/>
      <point x="313" y="384" type="curve" smooth="yes"/>
      <point x="374" y="384" type="line"/>
      <point x="374" y="403" type="line"/>
      <point x="312" y="403" type="line" smooth="yes"/>
      <point x="217" y="403"/>
      <point x="160" y="462"/>
      <point x="160" y="539" type="curve" smooth="yes" name="hr02"/>
      <point x="160" y="628"/>
      <point x="233" y="679"/>
      <point x="314" y="679" type="curve" smooth="yes"/>
      <point x="1255" y="679" type="line"/>
      <point x="1255" y="298" type="line" smooth="yes"/>
      <point x="1255" y="202"/>
      <point x="1176" y="128"/>
      <point x="1049" y="128" type="curve" smooth="yes"/>
      <point x="939" y="128"/>
      <point x="880" y="180"/>
      <point x="880" y="287" type="curve" smooth="yes"/>
      <point x="880" y="312" type="line"/>
      <point x="927" y="312" type="line" smooth="yes"/>
      <point x="1008" y="312"/>
      <point x="1042" y="343"/>
      <point x="1042" y="422" type="curve" smooth="yes"/>
      <point x="1042" y="486" type="line" smooth="yes"/>
      <point x="1042" y="504"/>
      <point x="1034" y="513"/>
      <point x="1016" y="513" type="curve" smooth="yes"/>
      <point x="600" y="513" type="line" smooth="yes"/>
      <point x="535" y="513"/>
      <point x="482" y="470"/>
      <point x="482" y="367" type="curve" smooth="yes"/>
      <point x="482" y="247"/>
      <point x="542" y="209"/>
      <point x="636" y="209" type="curve" smooth="yes"/>
      <point x="668" y="209" type="line"/>
      <point x="668" y="207" type="line"/>
      <point x="624" y="120"/>
      <point x="525" y="54"/>
      <point x="404" y="54" type="curve" smooth="yes"/>
    </contour>
    <contour>
      <point x="633" y="227" type="line" smooth="yes"/>
      <point x="546" y="227"/>
      <point x="503" y="266"/>
      <point x="503" y="350" type="curve" smooth="yes"/>
      <point x="503" y="377" type="line" smooth="yes"/>
      <point x="503" y="447"/>
      <point x="536" y="495"/>
      <point x="602" y="495" type="curve" smooth="yes"/>
      <point x="667" y="495"/>
      <point x="700" y="440"/>
      <point x="700" y="373" type="curve" smooth="yes"/>
      <point x="700" y="339" type="line" smooth="yes"/>
      <point x="700" y="299"/>
      <point x="692" y="261"/>
      <point x="678" y="227" type="curve"/>
    </contour>
    <contour>
      <point x="1276.0" y="0.0" type="move" name="bottom_deva"/>
    </contour>
    <contour>
      <point x="1090.0" y="696.0" type="move" name="center_deva"/>
    </contour>
    <contour>
      <point x="1276.0" y="696.0" type="move" name="top_deva"/>
    </contour>
  </outline>
</glyph>
<glyph name="dvC_CA" format="1">
  <advance width="1062"/>
  <outline>
    <contour>
      <point x="-20" y="679" type="line" name="hr00"/>
      <point x="897" y="679" type="line"/>
      <point x="897" y="328" type="line" smooth="yes"/>
      <point x="897" y="222"/>
      <point x="801" y="147"/>
      <point x="699" y="147" type="curve" smooth="yes"/>
      <point x="616" y="147"/>
      <point x="548" y="190"/>
      <point x="548" y="288" type="curve" smooth="yes"/>
      <point x="548" y="363"/>
      <point x="600" y="434"/>
      <point x="689" y="436" type="curve" smooth="yes"/>
      <point x="713" y="436" type="line"/>
      <point x="713" y="452" type="line"/>
      <point x="60" y="452" type="line"/>
      <point x="60" y="433" type="line"/>
      <point x="135" y="433" type="line"/>
      <point x="248" y="435" type="line"/>
      <point x="248" y="432" type="line"/>
      <point x="196" y="406"/>
      <point x="160" y="357"/>
      <point x="160" y="285" type="curve" smooth="yes"/>
      <point x="160" y="185"/>
      <point x="237" y="128"/>
      <point x="333" y="128" type="curve" smooth="yes"/>
      <point x="428" y="128"/>
      <point x="495" y="181"/>
      <point x="532" y="241" type="curve"/>
      <point x="534" y="241" type="line"/>
      <point x="555" y="163"/>
      <point x="621" y="128"/>
      <point x="699" y="128" type="curve" smooth="yes"/>
      <point x="802" y="128"/>
      <point x="869" y="191"/>
      <point x="894" y="244" type="curve"/>
      <point x="897" y="244" type="line"/>
      <point x="897" y="0" type="line"/>
      <point x="918" y="0" type="line"/>
      <point x="918" y="679" type="line"/>
      <point x="1082" y="679" type="line"/>
      <point x="1082" y="698" type="line"/>
      <point x="-20" y="698" type="line"/>
    </contour>
    <contour>
      <point x="333" y="147" type="curve" smooth="yes"/>
      <point x="250" y="147"/>
      <point x="182" y="190"/>
      <point x="182" y="288" type="curve" smooth="yes"/>
      <point x="182" y="366"/>
      <point x="240" y="435"/>
      <point x="321" y="435" type="curve" smooth="yes"/>
      <point x="616" y="436" type="line"/>
      <point x="616" y="433" type="line"/>
      <point x="564" y="407"/>
      <point x="527" y="355"/>
      <point x="527" y="282" type="curve" smooth="yes"/>
      <point x="527" y="272" type="line"/>
      <point x="495" y="204"/>
      <point x="425" y="147"/>
    </contour>
    <contour>
      <point x="919.0" y="0.0" type="move" name="bottom_deva"/>
    </contour>
    <contour>
      <point x="753.0" y="696.0" type="move" name="center_deva"/>
    </contour>
    <contour>
      <point x="918.0" y="696.0" type="move" name="top_deva"/>
    </contour>
  </outline>
</glyph>
<glyph name="dvC_CHA" format="1">
  <advance width="1179"/>
  <outline>
    <contour>
      <point x="1116" y="355" type="curve" smooth="yes" name="hr00"/>
      <point x="1116" y="458"/>
      <point x="1073" y="506"/>
      <point x="1007" y="511" type="curve"/>
      <point x="1007" y="679" type="line"/>
      <point x="1199" y="679" type="line"/>
      <point x="1199" y="698" type="line"/>
      <point x="-20" y="698" type="line"/>
      <point x="-20" y="679" type="line"/>
      <point x="623" y="679" type="line"/>
      <point x="623" y="676" type="line"/>
      <point x="584" y="660"/>
      <point x="535" y="616"/>
      <point x="535" y="539" type="curve" smooth="yes"/>
      <point x="535" y="465"/>
      <point x="581" y="414"/>
      <point x="646" y="395" type="curve"/>
      <point x="646" y="392" type="line"/>
      <point x="592" y="380"/>
      <point x="545" y="342"/>
      <point x="530" y="277" type="curve"/>
      <point x="499" y="209"/>
      <point x="430" y="147"/>
      <point x="333" y="147" type="curve" smooth="yes"/>
      <point x="250" y="147"/>
      <point x="182" y="195"/>
      <point x="182" y="288" type="curve" smooth="yes"/>
      <point x="182" y="368"/>
      <point x="243" y="435"/>
      <point x="326" y="435" type="curve" smooth="yes"/>
      <point x="347" y="435" type="line"/>
      <point x="347" y="452" type="line"/>
      <point x="60" y="452" type="line"/>
      <point x="60" y="433" type="line"/>
      <point x="168" y="433" type="line"/>
      <point x="249" y="434" type="line"/>
      <point x="249" y="432" type="line"/>
      <point x="195" y="406"/>
      <point x="160" y="357"/>
      <point x="160" y="285" type="curve" smooth="yes"/>
      <point x="160" y="194"/>
      <point x="230" y="128"/>
      <point x="333" y="128" type="curve" smooth="yes"/>
      <point x="420" y="128"/>
      <point x="485" y="173"/>
      <point x="523" y="228" type="curve"/>
      <point x="525" y="228" type="line"/>
      <point x="527" y="125"/>
      <point x="598" y="34"/>
      <point x="770" y="34" type="curve" smooth="yes"/>
      <point x="786" y="34" type="line" smooth="yes"/>
      <point x="981" y="34"/>
      <point x="1116" y="159"/>
    </contour>
    <contour>
      <point x="760" y="54" type="line" smooth="yes"/>
      <point x="620" y="54"/>
      <point x="545" y="129"/>
      <point x="545" y="227" type="curve" smooth="yes"/>
      <point x="545" y="321"/>
      <point x="603" y="384"/>
      <point x="711" y="384" type="curve" smooth="yes"/>
      <point x="770" y="384" type="line"/>
      <point x="770" y="403" type="line"/>
      <point x="710" y="403" type="line" smooth="yes"/>
      <point x="613" y="403"/>
      <point x="556" y="462"/>
      <point x="556" y="539" type="curve" smooth="yes"/>
      <point x="556" y="627"/>
      <point x="627" y="679"/>
      <point x="711" y="679" type="curve" smooth="yes"/>
      <point x="987" y="679" type="line"/>
      <point x="987" y="512" type="line"/>
      <point x="920" y="509"/>
      <point x="878" y="458"/>
      <point x="878" y="367" type="curve" smooth="yes"/>
      <point x="878" y="253"/>
      <point x="932" y="209"/>
      <point x="1032" y="209" type="curve" smooth="yes"/>
      <point x="1064" y="209" type="line"/>
      <point x="1064" y="207" type="line"/>
      <point x="1018" y="118"/>
      <point x="921" y="54"/>
      <point x="797" y="54" type="curve" smooth="yes"/>
    </contour>
    <contour>
      <point x="1029" y="227" type="line" smooth="yes"/>
      <point x="941" y="227"/>
      <point x="899" y="267"/>
      <point x="899" y="351" type="curve" smooth="yes"/>
      <point x="899" y="376" type="line" smooth="yes"/>
      <point x="899" y="448"/>
      <point x="934" y="494"/>
      <point x="996" y="494" type="curve" smooth="yes"/>
      <point x="1060" y="494"/>
      <point x="1095" y="445"/>
      <point x="1095" y="374" type="curve" smooth="yes"/>
      <point x="1095" y="342" type="line" smooth="yes"/>
      <point x="1095" y="301"/>
      <point x="1087" y="262"/>
      <point x="1073" y="227" type="curve"/>
    </contour>
    <contour>
      <point x="805.0" y="38.0" type="move" name="bottom_deva"/>
    </contour>
    <contour>
      <point x="823.0" y="696.0" type="move" name="center_deva"/>
    </contour>
    <contour>
      <point x="1007.0" y="696.0" type="move" name="top_deva"/>
    </contour>
  </outline>
</glyph>
<glyph name="dvC_CH_VA" format="1">
  <advance width="1185"/>
  <outline>
    <contour>
      <point x="-20" y="679" type="line" name="hr00"/>
      <point x="629" y="679" type="line"/>
      <point x="629" y="676" type="line"/>
      <point x="589" y="660"/>
      <point x="540" y="620"/>
      <point x="540" y="547" type="curve" smooth="yes"/>
      <point x="540" y="481"/>
      <point x="585" y="432"/>
      <point x="652" y="415" type="curve"/>
      <point x="652" y="412" type="line"/>
      <point x="595" y="400"/>
      <point x="540" y="359"/>
      <point x="531" y="282" type="curve"/>
      <point x="501" y="209"/>
      <point x="430" y="147"/>
      <point x="333" y="147" type="curve" smooth="yes"/>
      <point x="251" y="147"/>
      <point x="182" y="195"/>
      <point x="182" y="288" type="curve" smooth="yes"/>
      <point x="182" y="369"/>
      <point x="244" y="435"/>
      <point x="328" y="435" type="curve" smooth="yes"/>
      <point x="347" y="435" type="line"/>
      <point x="347" y="452" type="line"/>
      <point x="60" y="452" type="line"/>
      <point x="60" y="433" type="line"/>
      <point x="183" y="433" type="line"/>
      <point x="249" y="434" type="line"/>
      <point x="249" y="432" type="line"/>
      <point x="193" y="405"/>
      <point x="160" y="355"/>
      <point x="160" y="285" type="curve" smooth="yes"/>
      <point x="160" y="194"/>
      <point x="231" y="128"/>
      <point x="333" y="128" type="curve" smooth="yes"/>
      <point x="424" y="128"/>
      <point x="493" y="178"/>
      <point x="531" y="241" type="curve"/>
      <point x="533" y="241" type="line"/>
      <point x="542" y="166"/>
      <point x="597" y="106"/>
      <point x="708" y="89" type="curve"/>
      <point x="708" y="87" type="line"/>
      <point x="665" y="71"/>
      <point x="626" y="34"/>
      <point x="626" y="-32" type="curve" smooth="yes"/>
      <point x="626" y="-120"/>
      <point x="687" y="-165"/>
      <point x="768" y="-165" type="curve" smooth="yes"/>
      <point x="843" y="-165"/>
      <point x="890" y="-131"/>
      <point x="916" y="-92" type="curve"/>
      <point x="919" y="-92" type="line"/>
      <point x="919" y="-234" type="line"/>
      <point x="938" y="-234" type="line"/>
      <point x="938" y="108" type="line"/>
      <point x="1047" y="148"/>
      <point x="1122" y="241"/>
      <point x="1122" y="376" type="curve" smooth="yes"/>
      <point x="1122" y="473"/>
      <point x="1075" y="517"/>
      <point x="1013" y="522" type="curve"/>
      <point x="1013" y="679" type="line"/>
      <point x="1205" y="679" type="line"/>
      <point x="1205" y="698" type="line"/>
      <point x="-20" y="698" type="line"/>
    </contour>
    <contour>
      <point x="758" y="104" type="line" smooth="yes"/>
      <point x="619" y="104"/>
      <point x="551" y="170"/>
      <point x="551" y="261" type="curve" smooth="yes"/>
      <point x="551" y="348"/>
      <point x="612" y="404"/>
      <point x="715" y="404" type="curve" smooth="yes"/>
      <point x="776" y="404" type="line"/>
      <point x="776" y="423" type="line"/>
      <point x="714" y="423" type="line" smooth="yes"/>
      <point x="622" y="423"/>
      <point x="561" y="473"/>
      <point x="561" y="547" type="curve" smooth="yes"/>
      <point x="561" y="627"/>
      <point x="632" y="679"/>
      <point x="713" y="679" type="curve" smooth="yes"/>
      <point x="993" y="679" type="line"/>
      <point x="993" y="523" type="line"/>
      <point x="931" y="520"/>
      <point x="885" y="477"/>
      <point x="885" y="389" type="curve" smooth="yes"/>
      <point x="885" y="279"/>
      <point x="945" y="244"/>
      <point x="1038" y="244" type="curve" smooth="yes"/>
      <point x="1071" y="244" type="line"/>
      <point x="1072" y="242" type="line"/>
      <point x="1028" y="159"/>
      <point x="934" y="104"/>
      <point x="810" y="104" type="curve" smooth="yes"/>
    </contour>
    <contour>
      <point x="1035" y="261" type="line" smooth="yes"/>
      <point x="948" y="261"/>
      <point x="906" y="298"/>
      <point x="906" y="374" type="curve" smooth="yes"/>
      <point x="906" y="399" type="line" smooth="yes"/>
      <point x="906" y="463"/>
      <point x="941" y="504"/>
      <point x="1002" y="504" type="curve" smooth="yes"/>
      <point x="1066" y="504"/>
      <point x="1102" y="456"/>
      <point x="1102" y="395" type="curve" smooth="yes"/>
      <point x="1102" y="364" type="line" smooth="yes"/>
      <point x="1102" y="327"/>
      <point x="1095" y="293"/>
      <point x="1081" y="261" type="curve"/>
    </contour>
    <contour>
      <point x="769" y="-148" type="curve" smooth="yes"/>
      <point x="696" y="-148"/>
      <point x="647" y="-106"/>
      <point x="647" y="-39" type="curve" smooth="yes"/>
      <point x="647" y="-26" type="line" smooth="yes"/>
      <point x="647" y="39"/>
      <point x="703" y="85"/>
      <point x="780" y="85" type="curve" smooth="yes"/>
      <point x="850" y="85"/>
      <point x="888" y="92"/>
      <point x="918" y="101" type="curve"/>
      <point x="920" y="99" type="line"/>
      <point x="920" y="-26" type="line"/>
      <point x="920" y="-89"/>
      <point x="858" y="-148"/>
    </contour>
    <contour>
      <point x="938.0" y="-234.0" type="move" name="bottom_deva"/>
    </contour>
    <contour>
      <point x="837.0" y="696.0" type="move" name="center_deva"/>
    </contour>
    <contour>
      <point x="1013.0" y="696.0" type="move" name="top_deva"/>
    </contour>
  </outline>
</glyph>
<glyph name="dvC_C" format="1">
  <advance width="771"/>
  <outline>
    <contour>
      <point x="-20" y="679" type="line" name="hr00"/>
      <point x="833" y="679" type="line"/>
      <point x="833" y="698" type="line"/>
      <point x="-20" y="698" type="line"/>
    </contour>
    <contour>
      <point x="333" y="128" type="curve" smooth="yes"/>
      <point x="428" y="128"/>
      <point x="495" y="181"/>
      <point x="532" y="241" type="curve"/>
      <point x="534" y="241" type="line"/>
      <point x="555" y="163"/>
      <point x="624" y="128"/>
      <point x="702" y="128" type="curve" smooth="yes"/>
      <point x="799" y="128"/>
      <point x="881" y="190"/>
      <point x="916" y="280" type="curve"/>
      <point x="903" y="295" type="line"/>
      <point x="873" y="209"/>
      <point x="796" y="147"/>
      <point x="699" y="147" type="curve" smooth="yes"/>
      <point x="616" y="147"/>
      <point x="548" y="190"/>
      <point x="548" y="288" type="curve" smooth="yes"/>
      <point x="548" y="363"/>
      <point x="600" y="434"/>
      <point x="689" y="436" type="curve" smooth="yes"/>
      <point x="713" y="436" type="line"/>
      <point x="713" y="452" type="line"/>
      <point x="60" y="452" type="line"/>
      <point x="60" y="433" type="line"/>
      <point x="135" y="433" type="line"/>
      <point x="248" y="435" type="line"/>
      <point x="248" y="432" type="line"/>
      <point x="196" y="406"/>
      <point x="160" y="357"/>
      <point x="160" y="285" type="curve" smooth="yes"/>
      <point x="160" y="185"/>
      <point x="236" y="128"/>
    </contour>
    <contour>
      <point x="333" y="147" type="curve" smooth="yes"/>
      <point x="250" y="147"/>
      <point x="182" y="190"/>
      <point x="182" y="288" type="curve" smooth="yes"/>
      <point x="182" y="366"/>
      <point x="240" y="435"/>
      <point x="321" y="435" type="curve" smooth="yes"/>
      <point x="616" y="436" type="line"/>
      <point x="616" y="433" type="line"/>
      <point x="564" y="407"/>
      <point x="527" y="355"/>
      <point x="527" y="282" type="curve" smooth="yes"/>
      <point x="527" y="272" type="line"/>
      <point x="495" y="204"/>
      <point x="425" y="147"/>
    </contour>
  </outline>
</glyph>
<glyph name="dvC_YA" format="1">
  <advance width="1115"/>
  <outline>
    <contour>
      <point x="-20" y="679" type="line" name="hr00"/>
      <point x="692" y="679" type="line"/>
      <point x="692" y="540" type="line" smooth="yes"/>
      <point x="692" y="455"/>
      <point x="665" y="426"/>
      <point x="574" y="426" type="curve" smooth="yes"/>
      <point x="522" y="426" type="line"/>
      <point x="522" y="363" type="line" smooth="yes"/>
      <point x="522" y="336"/>
      <point x="526" y="308"/>
      <point x="532" y="286" type="curve"/>
      <point x="504" y="211"/>
      <point x="431" y="147"/>
      <point x="333" y="147" type="curve" smooth="yes"/>
      <point x="250" y="147"/>
      <point x="182" y="196"/>
      <point x="182" y="288" type="curve" smooth="yes"/>
      <point x="182" y="367"/>
      <point x="243" y="435"/>
      <point x="326" y="435" type="curve" smooth="yes"/>
      <point x="347" y="435" type="line"/>
      <point x="347" y="452" type="line"/>
      <point x="60" y="452" type="line"/>
      <point x="60" y="433" type="line"/>
      <point x="178" y="433" type="line"/>
      <point x="249" y="434" type="line"/>
      <point x="249" y="432" type="line"/>
      <point x="195" y="406"/>
      <point x="160" y="357"/>
      <point x="160" y="285" type="curve" smooth="yes"/>
      <point x="160" y="194"/>
      <point x="230" y="128"/>
      <point x="333" y="128" type="curve" smooth="yes"/>
      <point x="434" y="128"/>
      <point x="508" y="189"/>
      <point x="542" y="262" type="curve"/>
      <point x="543" y="262" type="line"/>
      <point x="574" y="199"/>
      <point x="634" y="162"/>
      <point x="729" y="162" type="curve" smooth="yes"/>
      <point x="847" y="162"/>
      <point x="915" y="218"/>
      <point x="947" y="266" type="curve"/>
      <point x="950" y="266" type="line"/>
      <point x="950" y="0" type="line"/>
      <point x="971" y="0" type="line"/>
      <point x="971" y="679" type="line"/>
      <point x="1135" y="679" type="line"/>
      <point x="1135" y="698" type="line"/>
      <point x="-20" y="698" type="line"/>
    </contour>
    <contour>
      <point x="729" y="181" type="curve" smooth="yes"/>
      <point x="607" y="181"/>
      <point x="543" y="248"/>
      <point x="543" y="356" type="curve" smooth="yes"/>
      <point x="543" y="407" type="line"/>
      <point x="577" y="407" type="line" smooth="yes"/>
      <point x="674" y="407"/>
      <point x="713" y="444"/>
      <point x="713" y="536" type="curve" smooth="yes"/>
      <point x="713" y="679" type="line"/>
      <point x="950" y="679" type="line"/>
      <point x="950" y="340" type="line" smooth="yes"/>
      <point x="950" y="262"/>
      <point x="863" y="181"/>
    </contour>
    <contour>
      <point x="971.0" y="0.0" type="move" name="bottom_deva"/>
    </contour>
    <contour>
      <point x="834.0" y="696.0" type="move" name="center_deva"/>
    </contour>
    <contour>
      <point x="971.0" y="696.0" type="move" name="top_deva"/>
    </contour>
  </outline>
</glyph>
<glyph name="dvCandrabindu.small" format="1">
  <advance width="0"/>
  <outline>
    <contour>
      <point x="-158" y="907" type="curve" smooth="yes" name="hr00"/>
      <point x="-142" y="907"/>
      <point x="-136" y="915"/>
      <point x="-136" y="929" type="curve" smooth="yes"/>
      <point x="-136" y="933" type="line" smooth="yes"/>
      <point x="-136" y="947"/>
      <point x="-142" y="955"/>
      <point x="-158" y="955" type="curve" smooth="yes"/>
      <point x="-174" y="955"/>
      <point x="-180" y="947"/>
      <point x="-180" y="933" type="curve" smooth="yes"/>
      <point x="-180" y="929" type="line" smooth="yes"/>
      <point x="-180" y="915"/>
      <point x="-174" y="907"/>
    </contour>
    <contour>
      <point x="-158" y="804" type="curve" smooth="yes"/>
      <point x="-108" y="804"/>
      <point x="-65" y="830"/>
      <point x="-35" y="900" type="curve"/>
      <point x="-52" y="906" type="line"/>
      <point x="-78" y="843"/>
      <point x="-115" y="822"/>
      <point x="-158" y="822" type="curve" smooth="yes"/>
      <point x="-201" y="822"/>
      <point x="-238" y="843"/>
      <point x="-264" y="906" type="curve"/>
      <point x="-281" y="900" type="line"/>
      <point x="-251" y="830"/>
      <point x="-208" y="804"/>
    </contour>
    <contour>
      <point x="-183.0" y="696.0" type="move" name="_top_deva"/>
    </contour>
  </outline>
</glyph>
<glyph name="dvCandrabindu.smallalt" format="1">
  <advance width="0"/>
  <outline>
    <contour>
      <point x="-30" y="927" type="curve" smooth="yes" name="hr00"/>
      <point x="-14" y="927"/>
      <point x="-8" y="935"/>
      <point x="-8" y="949" type="curve" smooth="yes"/>
      <point x="-8" y="953" type="line" smooth="yes"/>
      <point x="-8" y="967"/>
      <point x="-14" y="975"/>
      <point x="-30" y="975" type="curve" smooth="yes"/>
      <point x="-46" y="975"/>
      <point x="-52" y="967"/>
      <point x="-52" y="953" type="curve" smooth="yes"/>
      <point x="-52" y="949" type="line" smooth="yes"/>
      <point x="-52" y="935"/>
      <point x="-46" y="927"/>
    </contour>
    <contour>
      <point x="-30" y="824" type="curve" smooth="yes"/>
      <point x="20" y="824"/>
      <point x="63" y="850"/>
      <point x="93" y="920" type="curve"/>
      <point x="76" y="926" type="line"/>
      <point x="50" y="863"/>
      <point x="13" y="842"/>
      <point x="-30" y="842" type="curve" smooth="yes"/>
      <point x="-73" y="842"/>
      <point x="-110" y="863"/>
      <point x="-136" y="926" type="curve"/>
      <point x="-153" y="920" type="line"/>
      <point x="-123" y="850"/>
      <point x="-80" y="824"/>
    </contour>
    <contour>
      <point x="-183.0" y="696.0" type="move" name="_top_deva"/>
    </contour>
  </outline>
</glyph>
<glyph name="dvDDH_VA" format="1">
  <advance width="591"/>
  <outline>
    <contour>
      <point x="435" y="-194" type="line"/>
      <point x="454" y="-194" type="line"/>
      <point x="454" y="145" type="line"/>
      <point x="499" y="166"/>
      <point x="517" y="204"/>
      <point x="517" y="244" type="curve" smooth="yes"/>
      <point x="517" y="303"/>
      <point x="476" y="343"/>
      <point x="402" y="343" type="curve" smooth="yes"/>
      <point x="324" y="343"/>
      <point x="283" y="297"/>
      <point x="283" y="227" type="curve" smooth="yes"/>
      <point x="283" y="148" type="line"/>
      <point x="187" y="165"/>
      <point x="126" y="227"/>
      <point x="126" y="307" type="curve" smooth="yes"/>
      <point x="126" y="330" type="line" smooth="yes"/>
      <point x="126" y="419"/>
      <point x="188" y="488"/>
      <point x="341" y="488" type="curve" smooth="yes"/>
      <point x="465" y="488" type="line" name="hr01"/>
      <point x="465" y="679" type="line"/>
      <point x="611" y="679" type="line"/>
      <point x="611" y="698" type="line"/>
      <point x="-20" y="698" type="line"/>
      <point x="-20" y="679" type="line"/>
      <point x="444" y="679" type="line"/>
      <point x="444" y="507" type="line"/>
      <point x="341" y="507" type="line" smooth="yes"/>
      <point x="172" y="507"/>
      <point x="104" y="432"/>
      <point x="104" y="318" type="curve" smooth="yes"/>
      <point x="104" y="229"/>
      <point x="156" y="165"/>
      <point x="253" y="140" type="curve"/>
      <point x="253" y="137" type="line"/>
      <point x="196" y="128"/>
      <point x="142" y="85"/>
      <point x="142" y="10" type="curve" smooth="yes"/>
      <point x="142" y="-79"/>
      <point x="203" y="-124"/>
      <point x="284" y="-124" type="curve" smooth="yes"/>
      <point x="359" y="-124"/>
      <point x="406" y="-90"/>
      <point x="432" y="-51" type="curve"/>
      <point x="435" y="-51" type="line" name="hr02"/>
    </contour>
    <contour>
      <point x="303" y="145" type="line"/>
      <point x="303" y="227" type="line" smooth="yes"/>
      <point x="303" y="285"/>
      <point x="335" y="325"/>
      <point x="403" y="325" type="curve" smooth="yes"/>
      <point x="470" y="325"/>
      <point x="497" y="289"/>
      <point x="497" y="245" type="curve" smooth="yes"/>
      <point x="497" y="189"/>
      <point x="464" y="145"/>
      <point x="354" y="145" type="curve" smooth="yes"/>
    </contour>
    <contour>
      <point x="285" y="-107" type="curve" smooth="yes"/>
      <point x="210" y="-107"/>
      <point x="163" y="-64"/>
      <point x="163" y="4" type="curve" smooth="yes"/>
      <point x="163" y="16" type="line" smooth="yes"/>
      <point x="163" y="81"/>
      <point x="219" y="127"/>
      <point x="295" y="127" type="curve" smooth="yes"/>
      <point x="374" y="127"/>
      <point x="405" y="130"/>
      <point x="434" y="138" type="curve"/>
      <point x="436" y="135" type="line"/>
      <point x="436" y="14" type="line"/>
      <point x="436" y="-46"/>
      <point x="375" y="-107"/>
    </contour>
    <contour>
      <point x="454.0" y="-194.0" type="move" name="bottom_deva"/>
    </contour>
    <contour>
      <point x="365.0" y="696.0" type="move" name="center_deva"/>
    </contour>
    <contour>
      <point x="465.0" y="696.0" type="move" name="top_deva"/>
    </contour>
  </outline>
</glyph>
<glyph name="dvDDHxA.mU" format="1">
  <advance width="607"/>
  <outline>
    <component base="dvDDHA"/>
    <component base="dvNukta" xOffset="19" yOffset="-24"/>
    <contour>
      <point x="359.0" y="42.0" type="move" name="bottom_deva"/>
    </contour>
    <contour>
      <point x="355.0" y="696.0" type="move" name="center_deva"/>
    </contour>
    <contour>
      <point x="448.0" y="696.0" type="move" name="top_deva"/>
    </contour>
  </outline>
</glyph>
<glyph name="dvDD_DDHA" format="1">
  <advance width="576"/>
  <outline>
    <contour>
      <point x="329" y="123" type="curve" smooth="yes" name="hr00"/>
      <point x="347" y="123"/>
      <point x="363" y="124"/>
      <point x="378" y="126" type="curve"/>
      <point x="378" y="8" type="line"/>
      <point x="290" y="8" type="line" smooth="yes"/>
      <point x="158" y="8"/>
      <point x="102" y="-53"/>
      <point x="102" y="-146" type="curve" smooth="yes"/>
      <point x="102" y="-241"/>
      <point x="174" y="-307"/>
      <point x="316" y="-307" type="curve" smooth="yes"/>
      <point x="426" y="-307"/>
      <point x="468" y="-265"/>
      <point x="468" y="-207" type="curve" smooth="yes"/>
      <point x="468" y="-155"/>
      <point x="433" y="-121"/>
      <point x="364" y="-121" type="curve" smooth="yes"/>
      <point x="292" y="-121"/>
      <point x="258" y="-163"/>
      <point x="258" y="-225" type="curve" smooth="yes"/>
      <point x="258" y="-287" type="line"/>
      <point x="170" y="-273"/>
      <point x="122" y="-220"/>
      <point x="122" y="-153" type="curve" smooth="yes"/>
      <point x="122" y="-137" type="line" smooth="yes"/>
      <point x="122" y="-68"/>
      <point x="170" y="-10"/>
      <point x="285" y="-10" type="curve" smooth="yes"/>
      <point x="399" y="-10" type="line"/>
      <point x="399" y="131" type="line"/>
      <point x="466" y="147"/>
      <point x="495" y="190"/>
      <point x="495" y="241" type="curve" smooth="yes"/>
      <point x="495" y="312"/>
      <point x="444" y="346"/>
      <point x="350" y="346" type="curve" smooth="yes"/>
      <point x="270" y="346" type="line" smooth="yes"/>
      <point x="198" y="346"/>
      <point x="173" y="380"/>
      <point x="173" y="417" type="curve" smooth="yes"/>
      <point x="173" y="460"/>
      <point x="200" y="488"/>
      <point x="272" y="488" type="curve" smooth="yes"/>
      <point x="442" y="488" type="line"/>
      <point x="442" y="679" type="line"/>
      <point x="596" y="679" type="line"/>
      <point x="596" y="698" type="line"/>
      <point x="-20" y="698" type="line"/>
      <point x="-20" y="679" type="line"/>
      <point x="421" y="679" type="line"/>
      <point x="421" y="507" type="line"/>
      <point x="270" y="507" type="line" smooth="yes"/>
      <point x="188" y="507"/>
      <point x="152" y="469"/>
      <point x="152" y="418" type="curve" smooth="yes"/>
      <point x="152" y="368"/>
      <point x="187" y="327"/>
      <point x="278" y="327" type="curve" smooth="yes"/>
      <point x="349" y="327" type="line" smooth="yes"/>
      <point x="432" y="327"/>
      <point x="474" y="301"/>
      <point x="474" y="240" type="curve" smooth="yes"/>
      <point x="474" y="180"/>
      <point x="427" y="142"/>
      <point x="327" y="142" type="curve" smooth="yes"/>
      <point x="240" y="142"/>
      <point x="171" y="166"/>
      <point x="102" y="231" type="curve"/>
      <point x="90" y="216" type="line"/>
      <point x="163" y="149"/>
      <point x="235" y="123"/>
    </contour>
    <contour>
      <point x="322" y="-291" type="curve" smooth="yes"/>
      <point x="302" y="-291"/>
      <point x="287" y="-290"/>
      <point x="276" y="-289" type="curve"/>
      <point x="276" y="-225" type="line" smooth="yes"/>
      <point x="276" y="-177"/>
      <point x="299" y="-138"/>
      <point x="366" y="-138" type="curve" smooth="yes"/>
      <point x="425" y="-138"/>
      <point x="450" y="-166"/>
      <point x="450" y="-207" type="curve" smooth="yes"/>
      <point x="450" y="-257"/>
      <point x="411" y="-291"/>
    </contour>
    <contour>
      <point x="327.0" y="-307.0" type="move" name="bottom_deva"/>
    </contour>
    <contour>
      <point x="366.0" y="696.0" type="move" name="center_deva"/>
    </contour>
    <contour>
      <point x="442.0" y="696.0" type="move" name="top_deva"/>
    </contour>
  </outline>
</glyph>
<glyph name="dvDD_GA" format="1">
  <advance width="576"/>
  <outline>
    <contour>
      <point x="185" y="-116" type="curve" smooth="yes"/>
      <point x="190" y="-116"/>
      <point x="197" y="-115"/>
      <point x="200" y="-114" type="curve"/>
      <point x="200" y="142" type="line"/>
      <point x="201" y="143" type="line"/>
      <point x="244" y="130"/>
      <point x="281" y="123"/>
      <point x="329" y="123" type="curve" smooth="yes"/>
      <point x="357" y="123"/>
      <point x="386" y="127"/>
      <point x="406" y="132" type="curve"/>
      <point x="407" y="131" type="line"/>
      <point x="407" y="-202" type="line"/>
      <point x="428" y="-202" type="line"/>
      <point x="428" y="140" type="line"/>
      <point x="471" y="160"/>
      <point x="495" y="198"/>
      <point x="495" y="241" type="curve" smooth="yes"/>
      <point x="495" y="312"/>
      <point x="444" y="346"/>
      <point x="350" y="346" type="curve" smooth="yes"/>
      <point x="270" y="346" type="line" smooth="yes"/>
      <point x="198" y="346"/>
      <point x="173" y="380"/>
      <point x="173" y="417" type="curve" smooth="yes"/>
      <point x="173" y="460"/>
      <point x="200" y="488"/>
      <point x="272" y="488" type="curve" smooth="yes"/>
      <point x="442" y="488" type="line" name="hr01"/>
      <point x="442" y="679" type="line"/>
      <point x="596" y="679" type="line"/>
      <point x="596" y="698" type="line"/>
      <point x="-20" y="698" type="line"/>
      <point x="-20" y="679" type="line"/>
      <point x="421" y="679" type="line"/>
      <point x="421" y="507" type="line"/>
      <point x="270" y="507" type="line" smooth="yes"/>
      <point x="188" y="507"/>
      <point x="152" y="469"/>
      <point x="152" y="418" type="curve" smooth="yes"/>
      <point x="152" y="368"/>
      <point x="187" y="327"/>
      <point x="278" y="327" type="curve" smooth="yes"/>
      <point x="349" y="327" type="line" smooth="yes"/>
      <point x="432" y="327"/>
      <point x="474" y="301"/>
      <point x="474" y="240" type="curve" smooth="yes"/>
      <point x="474" y="180"/>
      <point x="425" y="142"/>
      <point x="327" y="142" type="curve" smooth="yes"/>
      <point x="240" y="142"/>
      <point x="171" y="166"/>
      <point x="102" y="231" type="curve"/>
      <point x="90" y="216" type="line"/>
      <point x="119" y="189"/>
      <point x="149" y="169"/>
      <point x="179" y="153" type="curve"/>
      <point x="179" y="-53" type="line"/>
      <point x="163" y="-53"/>
      <point x="151" y="-65"/>
      <point x="151" y="-84" type="curve" smooth="yes"/>
      <point x="151" y="-104"/>
      <point x="163" y="-116"/>
    </contour>
    <contour>
      <point x="428.0" y="-202.0" type="move" name="bottom_deva"/>
    </contour>
    <contour>
      <point x="342.0" y="696.0" type="move" name="center_deva"/>
    </contour>
    <contour>
      <point x="442.0" y="696.0" type="move" name="top_deva"/>
    </contour>
  </outline>
</glyph>
<glyph name="dvDD_VA" format="1">
  <advance width="577"/>
  <outline>
    <contour>
      <point x="427" y="-199" type="line"/>
      <point x="446" y="-199" type="line"/>
      <point x="446" y="150" type="line"/>
      <point x="479" y="173"/>
      <point x="495" y="204"/>
      <point x="495" y="241" type="curve" smooth="yes"/>
      <point x="495" y="312"/>
      <point x="444" y="346"/>
      <point x="350" y="346" type="curve" smooth="yes"/>
      <point x="270" y="346" type="line" smooth="yes"/>
      <point x="198" y="346"/>
      <point x="173" y="380"/>
      <point x="173" y="417" type="curve" smooth="yes"/>
      <point x="173" y="460"/>
      <point x="200" y="488"/>
      <point x="272" y="488" type="curve" smooth="yes"/>
      <point x="442" y="488" type="line" name="hr01"/>
      <point x="442" y="679" type="line"/>
      <point x="597" y="679" type="line"/>
      <point x="597" y="698" type="line"/>
      <point x="-20" y="698" type="line"/>
      <point x="-20" y="679" type="line"/>
      <point x="421" y="679" type="line"/>
      <point x="421" y="507" type="line"/>
      <point x="270" y="507" type="line" smooth="yes"/>
      <point x="188" y="507"/>
      <point x="152" y="469"/>
      <point x="152" y="418" type="curve" smooth="yes"/>
      <point x="152" y="368"/>
      <point x="187" y="327"/>
      <point x="278" y="327" type="curve" smooth="yes"/>
      <point x="349" y="327" type="line" smooth="yes"/>
      <point x="432" y="327"/>
      <point x="474" y="301"/>
      <point x="474" y="240" type="curve" smooth="yes"/>
      <point x="474" y="180"/>
      <point x="427" y="142"/>
      <point x="327" y="142" type="curve" smooth="yes"/>
      <point x="240" y="142"/>
      <point x="171" y="166"/>
      <point x="102" y="231" type="curve"/>
      <point x="90" y="216" type="line"/>
      <point x="139" y="171"/>
      <point x="187" y="147"/>
      <point x="241" y="133" type="curve"/>
      <point x="241" y="131" type="line"/>
      <point x="184" y="119"/>
      <point x="134" y="76"/>
      <point x="134" y="4" type="curve" smooth="yes" name="hr02"/>
      <point x="134" y="-87"/>
      <point x="197" y="-130"/>
      <point x="276" y="-130" type="curve" smooth="yes"/>
      <point x="348" y="-130"/>
      <point x="397" y="-98"/>
      <point x="424" y="-57" type="curve"/>
      <point x="427" y="-57" type="line"/>
    </contour>
    <contour>
      <point x="277" y="-113" type="curve" smooth="yes"/>
      <point x="206" y="-113"/>
      <point x="155" y="-73"/>
      <point x="155" y="-1" type="curve" smooth="yes"/>
      <point x="155" y="10" type="line" smooth="yes"/>
      <point x="155" y="78"/>
      <point x="216" y="124"/>
      <point x="302" y="124" type="curve" smooth="yes"/>
      <point x="367" y="124"/>
      <point x="397" y="130"/>
      <point x="426" y="141" type="curve"/>
      <point x="428" y="139" type="line"/>
      <point x="428" y="8" type="line"/>
      <point x="428" y="-52"/>
      <point x="367" y="-113"/>
    </contour>
    <contour>
      <point x="446.0" y="-199.0" type="move" name="bottom_deva"/>
    </contour>
    <contour>
      <point x="356.0" y="696.0" type="move" name="center_deva"/>
    </contour>
    <contour>
      <point x="442.0" y="696.0" type="move" name="top_deva"/>
    </contour>
  </outline>
</glyph>
<glyph name="dvDDxA.mU" format="1">
  <advance width="556"/>
  <outline>
    <component base="dvDDA"/>
    <component base="dvNukta" xOffset="-23" yOffset="-24"/>
    <contour>
      <point x="315.0" y="37.0" type="move" name="bottom_deva"/>
    </contour>
    <contour>
      <point x="333.0" y="696.0" type="move" name="center_deva"/>
    </contour>
    <contour>
      <point x="423.0" y="696.0" type="move" name="top_deva"/>
    </contour>
  </outline>
</glyph>
<glyph name="dvDH" format="1">
  <advance width="403"/>
  <outline>
    <contour>
      <point x="292" y="132" type="curve" smooth="yes" name="hr00"/>
      <point x="428" y="132"/>
      <point x="513" y="201"/>
      <point x="544" y="320" type="curve"/>
      <point x="529" y="329" type="line"/>
      <point x="499" y="215"/>
      <point x="419" y="151"/>
      <point x="292" y="151" type="curve" smooth="yes"/>
      <point x="184" y="151"/>
      <point x="136" y="209"/>
      <point x="136" y="280" type="curve" smooth="yes"/>
      <point x="136" y="353"/>
      <point x="183" y="414"/>
      <point x="296" y="414" type="curve" smooth="yes"/>
      <point x="357" y="414" type="line"/>
      <point x="357" y="433" type="line"/>
      <point x="297" y="433" type="line" smooth="yes"/>
      <point x="170" y="433"/>
      <point x="111" y="488"/>
      <point x="111" y="566" type="curve" smooth="yes"/>
      <point x="111" y="633"/>
      <point x="154" y="679"/>
      <point x="231" y="679" type="curve" smooth="yes"/>
      <point x="266" y="679"/>
      <point x="294" y="670"/>
      <point x="318" y="656" type="curve"/>
      <point x="327" y="673" type="line"/>
      <point x="303" y="687"/>
      <point x="269" y="698"/>
      <point x="229" y="698" type="curve" smooth="yes"/>
      <point x="141" y="698"/>
      <point x="90" y="642"/>
      <point x="90" y="566" type="curve" smooth="yes"/>
      <point x="90" y="491"/>
      <point x="146" y="433"/>
      <point x="229" y="424" type="curve"/>
      <point x="229" y="421" type="line"/>
      <point x="157" y="407"/>
      <point x="114" y="355"/>
      <point x="114" y="279" type="curve" smooth="yes"/>
      <point x="114" y="197"/>
      <point x="172" y="132"/>
    </contour>
  </outline>
</glyph>
<glyph name="dvDH_MA" format="1">
  <advance width="1015"/>
  <outline>
    <contour>
      <point x="292" y="132" type="curve" smooth="yes" name="hr00"/>
      <point x="416" y="132"/>
      <point x="497" y="189"/>
      <point x="534" y="289" type="curve"/>
      <point x="538" y="288"/>
      <point x="540" y="288"/>
      <point x="542" y="288" type="curve" smooth="yes"/>
      <point x="548" y="288"/>
      <point x="553" y="289"/>
      <point x="557" y="291" type="curve"/>
      <point x="557" y="335" type="line"/>
      <point x="850" y="335" type="line"/>
      <point x="850" y="0" type="line"/>
      <point x="871" y="0" type="line"/>
      <point x="871" y="679" type="line"/>
      <point x="1035" y="679" type="line"/>
      <point x="1035" y="698" type="line"/>
      <point x="443" y="698" type="line"/>
      <point x="443" y="679" type="line"/>
      <point x="536" y="679" type="line"/>
      <point x="536" y="353" type="line"/>
      <point x="520" y="351"/>
      <point x="511" y="339"/>
      <point x="511" y="321" type="curve" smooth="yes"/>
      <point x="511" y="311"/>
      <point x="513" y="303"/>
      <point x="519" y="297" type="curve"/>
      <point x="483" y="203"/>
      <point x="406" y="151"/>
      <point x="292" y="151" type="curve" smooth="yes"/>
      <point x="184" y="151"/>
      <point x="136" y="209"/>
      <point x="136" y="280" type="curve" smooth="yes"/>
      <point x="136" y="353"/>
      <point x="183" y="414"/>
      <point x="296" y="414" type="curve" smooth="yes"/>
      <point x="357" y="414" type="line"/>
      <point x="357" y="433" type="line"/>
      <point x="297" y="433" type="line" smooth="yes"/>
      <point x="170" y="433"/>
      <point x="111" y="488"/>
      <point x="111" y="566" type="curve" smooth="yes"/>
      <point x="111" y="633"/>
      <point x="154" y="679"/>
      <point x="231" y="679" type="curve" smooth="yes"/>
      <point x="266" y="679"/>
      <point x="294" y="670"/>
      <point x="318" y="656" type="curve"/>
      <point x="327" y="673" type="line"/>
      <point x="303" y="687"/>
      <point x="269" y="698"/>
      <point x="229" y="698" type="curve" smooth="yes"/>
      <point x="141" y="698"/>
      <point x="90" y="642"/>
      <point x="90" y="566" type="curve" smooth="yes"/>
      <point x="90" y="491"/>
      <point x="146" y="433"/>
      <point x="229" y="424" type="curve"/>
      <point x="229" y="421" type="line"/>
      <point x="157" y="407"/>
      <point x="114" y="355"/>
      <point x="114" y="279" type="curve" smooth="yes"/>
      <point x="114" y="197"/>
      <point x="172" y="132"/>
    </contour>
    <contour>
      <point x="850" y="679" type="line"/>
      <point x="850" y="354" type="line"/>
      <point x="557" y="354" type="line"/>
      <point x="557" y="679" type="line"/>
    </contour>
    <contour>
      <point x="871.0" y="0.0" type="move" name="bottom_deva"/>
    </contour>
    <contour>
      <point x="702.0" y="696.0" type="move" name="center_deva"/>
    </contour>
    <contour>
      <point x="871.0" y="696.0" type="move" name="top_deva"/>
    </contour>
  </outline>
</glyph>
<glyph name="dvDH_N_YA" format="1">
  <advance width="1086"/>
  <outline>
    <contour>
      <point x="216" y="-59" type="curve" smooth="yes"/>
      <point x="227" y="-59"/>
      <point x="235" y="-53"/>
      <point x="238" y="-44" type="curve"/>
      <point x="208" y="-2" type="line"/>
      <point x="446" y="171" type="line" smooth="yes"/>
      <point x="481" y="196"/>
      <point x="505" y="221"/>
      <point x="524" y="257" type="curve"/>
      <point x="526" y="257" type="line"/>
      <point x="555" y="198"/>
      <point x="617" y="162"/>
      <point x="710" y="162" type="curve" smooth="yes"/>
      <point x="827" y="162"/>
      <point x="889" y="215"/>
      <point x="918" y="264" type="curve"/>
      <point x="921" y="264" type="line"/>
      <point x="921" y="0" type="line"/>
      <point x="942" y="0" type="line"/>
      <point x="942" y="679" type="line"/>
      <point x="1106" y="679" type="line"/>
      <point x="1106" y="698" type="line"/>
      <point x="471" y="698" type="line"/>
      <point x="471" y="679" type="line"/>
      <point x="673" y="679" type="line"/>
      <point x="673" y="541" type="line" smooth="yes"/>
      <point x="673" y="455"/>
      <point x="645" y="426"/>
      <point x="555" y="426" type="curve" smooth="yes"/>
      <point x="503" y="426" type="line"/>
      <point x="503" y="359" type="line" smooth="yes"/>
      <point x="503" y="332"/>
      <point x="507" y="307"/>
      <point x="514" y="285" type="curve"/>
      <point x="485" y="212"/>
      <point x="410" y="151"/>
      <point x="292" y="151" type="curve" smooth="yes"/>
      <point x="184" y="151"/>
      <point x="136" y="209"/>
      <point x="136" y="280" type="curve" smooth="yes"/>
      <point x="136" y="353"/>
      <point x="183" y="414"/>
      <point x="296" y="414" type="curve" smooth="yes" name="hr01"/>
      <point x="357" y="414" type="line"/>
      <point x="357" y="433" type="line"/>
      <point x="297" y="433" type="line" smooth="yes"/>
      <point x="170" y="433"/>
      <point x="111" y="488"/>
      <point x="111" y="566" type="curve" smooth="yes"/>
      <point x="111" y="633"/>
      <point x="154" y="679"/>
      <point x="231" y="679" type="curve" smooth="yes"/>
      <point x="266" y="679"/>
      <point x="294" y="670"/>
      <point x="318" y="656" type="curve"/>
      <point x="327" y="673" type="line"/>
      <point x="303" y="687"/>
      <point x="269" y="698"/>
      <point x="229" y="698" type="curve" smooth="yes"/>
      <point x="141" y="698"/>
      <point x="90" y="642"/>
      <point x="90" y="566" type="curve" smooth="yes"/>
      <point x="90" y="491"/>
      <point x="146" y="433"/>
      <point x="229" y="424" type="curve"/>
      <point x="229" y="421" type="line"/>
      <point x="157" y="407"/>
      <point x="114" y="355"/>
      <point x="114" y="279" type="curve" smooth="yes"/>
      <point x="114" y="197"/>
      <point x="173" y="133"/>
      <point x="292" y="133" type="curve" smooth="yes"/>
      <point x="318" y="133"/>
      <point x="346" y="136"/>
      <point x="370" y="142" type="curve"/>
      <point x="371" y="138" type="line"/>
      <point x="258" y="61" type="line"/>
      <point x="192" y="13" type="line" smooth="yes"/>
      <point x="179" y="4"/>
      <point x="174" y="-3"/>
      <point x="174" y="-15" type="curve" smooth="yes"/>
      <point x="174" y="-36"/>
      <point x="195" y="-59"/>
    </contour>
    <contour>
      <point x="710" y="181" type="curve" smooth="yes"/>
      <point x="588" y="181"/>
      <point x="524" y="248"/>
      <point x="524" y="356" type="curve" smooth="yes"/>
      <point x="524" y="407" type="line" name="hr02"/>
      <point x="558" y="407" type="line" smooth="yes"/>
      <point x="655" y="407"/>
      <point x="694" y="444"/>
      <point x="694" y="536" type="curve" smooth="yes"/>
      <point x="694" y="679" type="line"/>
      <point x="921" y="679" type="line"/>
      <point x="921" y="340" type="line" smooth="yes"/>
      <point x="921" y="263"/>
      <point x="845" y="181"/>
    </contour>
    <contour>
      <point x="942.0" y="0.0" type="move" name="bottom_deva"/>
    </contour>
    <contour>
      <point x="815.0" y="696.0" type="move" name="center_deva"/>
    </contour>
    <contour>
      <point x="942.0" y="696.0" type="move" name="top_deva"/>
    </contour>
  </outline>
</glyph>
<glyph name="dvD_BHA" format="1">
  <advance width="654"/>
  <outline>
    <contour>
      <point x="233" y="-108" type="curve" smooth="yes" name="hr00"/>
      <point x="245" y="-108"/>
      <point x="253" y="-103"/>
      <point x="259" y="-93" type="curve"/>
      <point x="237" y="-59" type="line"/>
      <point x="485" y="106" type="line"/>
      <point x="509" y="123" type="line"/>
      <point x="511" y="123" type="line"/>
      <point x="516" y="106" type="line"/>
      <point x="570" y="-53" type="line"/>
      <point x="587" y="-47" type="line"/>
      <point x="532" y="114" type="line"/>
      <point x="526" y="131" type="line"/>
      <point x="541" y="141"/>
      <point x="545" y="148"/>
      <point x="545" y="160" type="curve" smooth="yes"/>
      <point x="545" y="179"/>
      <point x="534" y="200"/>
      <point x="513" y="200" type="curve" smooth="yes"/>
      <point x="502" y="200"/>
      <point x="491" y="196"/>
      <point x="485" y="191" type="curve"/>
      <point x="503" y="141" type="line"/>
      <point x="480" y="131"/>
      <point x="440" y="122"/>
      <point x="393" y="122" type="curve" smooth="yes"/>
      <point x="268" y="122"/>
      <point x="207" y="202"/>
      <point x="207" y="290" type="curve" smooth="yes"/>
      <point x="207" y="311" type="line" smooth="yes"/>
      <point x="207" y="406"/>
      <point x="274" y="472"/>
      <point x="393" y="472" type="curve" smooth="yes"/>
      <point x="517" y="472" type="line"/>
      <point x="517" y="679" type="line"/>
      <point x="674" y="679" type="line"/>
      <point x="674" y="698" type="line"/>
      <point x="-20" y="698" type="line"/>
      <point x="-20" y="679" type="line"/>
      <point x="496" y="679" type="line"/>
      <point x="496" y="492" type="line"/>
      <point x="391" y="492" type="line" smooth="yes"/>
      <point x="263" y="492"/>
      <point x="185" y="421"/>
      <point x="185" y="303" type="curve" smooth="yes"/>
      <point x="185" y="187"/>
      <point x="258" y="105"/>
      <point x="393" y="105" type="curve" smooth="yes"/>
      <point x="418" y="105"/>
      <point x="441" y="107"/>
      <point x="461" y="112" type="curve"/>
      <point x="462" y="109" type="line"/>
      <point x="420" y="84" type="line"/>
      <point x="226" y="-43" type="line"/>
      <point x="94" y="146" type="line" smooth="yes"/>
      <point x="89" y="154"/>
      <point x="82" y="157"/>
      <point x="77" y="157" type="curve" smooth="yes"/>
      <point x="73" y="157"/>
      <point x="69" y="156"/>
      <point x="64" y="153" type="curve" smooth="yes"/>
      <point x="-4" y="107" type="line"/>
      <point x="7" y="91" type="line"/>
      <point x="77" y="138" type="line"/>
      <point x="211" y="-53" type="line"/>
      <point x="204" y="-59"/>
      <point x="201" y="-65"/>
      <point x="201" y="-73" type="curve" smooth="yes"/>
      <point x="201" y="-90"/>
      <point x="215" y="-108"/>
    </contour>
    <contour>
      <point x="587.0" y="-50.0" type="move" name="bottom_deva"/>
    </contour>
    <contour>
      <point x="390.0" y="696.0" type="move" name="center_deva"/>
    </contour>
    <contour>
      <point x="517.0" y="696.0" type="move" name="top_deva"/>
    </contour>
  </outline>
</glyph>
<glyph name="dvD_DA" format="1">
  <advance width="551"/>
  <outline>
    <contour>
      <point x="459" y="-83" type="line"/>
      <point x="476" y="-77" type="line"/>
      <point x="440" y="28" type="line"/>
      <point x="434" y="45" type="line"/>
      <point x="449" y="55"/>
      <point x="453" y="62"/>
      <point x="453" y="74" type="curve" smooth="yes"/>
      <point x="453" y="93"/>
      <point x="442" y="114"/>
      <point x="421" y="114" type="curve" smooth="yes"/>
      <point x="410" y="114"/>
      <point x="399" y="110"/>
      <point x="393" y="105" type="curve"/>
      <point x="411" y="54" type="line"/>
      <point x="387" y="41"/>
      <point x="347" y="30"/>
      <point x="295" y="30" type="curve" smooth="yes"/>
      <point x="178" y="30"/>
      <point x="127" y="92"/>
      <point x="127" y="153" type="curve" smooth="yes"/>
      <point x="127" y="169" type="line" smooth="yes"/>
      <point x="127" y="236"/>
      <point x="184" y="293"/>
      <point x="291" y="293" type="curve" smooth="yes"/>
      <point x="399" y="293" type="line"/>
      <point x="399" y="311" type="line"/>
      <point x="262" y="311" type="line" smooth="yes"/>
      <point x="179" y="311"/>
      <point x="133" y="352"/>
      <point x="133" y="407" type="curve" smooth="yes" name="hr01"/>
      <point x="133" y="420" type="line" smooth="yes"/>
      <point x="133" y="470"/>
      <point x="173" y="509"/>
      <point x="253" y="509" type="curve" smooth="yes"/>
      <point x="418" y="509" type="line"/>
      <point x="418" y="679" type="line"/>
      <point x="571" y="679" type="line"/>
      <point x="571" y="698" type="line"/>
      <point x="-20" y="698" type="line"/>
      <point x="-20" y="679" type="line"/>
      <point x="397" y="679" type="line"/>
      <point x="397" y="528" type="line"/>
      <point x="254" y="528" type="line" smooth="yes"/>
      <point x="162" y="528"/>
      <point x="113" y="484"/>
      <point x="113" y="414" type="curve" smooth="yes"/>
      <point x="113" y="358"/>
      <point x="146" y="314"/>
      <point x="213" y="300" type="curve"/>
      <point x="213" y="298" type="line"/>
      <point x="159" y="282"/>
      <point x="106" y="241"/>
      <point x="106" y="162" type="curve" smooth="yes" name="hr02"/>
      <point x="106" y="81"/>
      <point x="167" y="13"/>
      <point x="295" y="13" type="curve" smooth="yes"/>
      <point x="348" y="13"/>
      <point x="386" y="23"/>
      <point x="418" y="38" type="curve"/>
      <point x="424" y="20" type="line"/>
    </contour>
    <contour>
      <point x="476.0" y="-80.0" type="move" name="bottom_deva"/>
    </contour>
    <contour>
      <point x="322.0" y="696.0" type="move" name="center_deva"/>
    </contour>
    <contour>
      <point x="418.0" y="696.0" type="move" name="top_deva"/>
    </contour>
  </outline>
</glyph>
